<svg xmlns:xlink="http://www.w3.org/1999/xlink" xmlns="http://www.w3.org/2000/svg" style="width: 18px; height: 18px; fill: var(--color-blue-500);" width="24"  height="24" ><defs><symbol id="productAvailable" xmlns="http://www.w3.org/2000/svg" viewBox="0 0 24 24"><path fill-rule="evenodd" d="M7 19H6a1 1 0 01-1-1V6a1 1 0 011-1h2v7h8V5h2a1 1 0 011 1v12a1 1 0 01-1 1h-1v2h1a3 3 0 003-3V6a3 3 0 00-3-3H6a3 3 0 00-3 3v12a3 3 0 003 3h1v-2zm3-9V5h4v5h-4zm-.293 7.793l1.755 1.755 3.795-4.217 1.486 1.338-4.5 5a1 1 0 01-1.45.038l-2.5-2.5 1.414-1.414z" clip-rule="evenodd"></path></symbol></defs><use xlink:href="#productAvailable" fill="#87D3E1"></use></svg>