<svg xmlns:xlink="http://www.w3.org/1999/xlink" xmlns="http://www.w3.org/2000/svg" width="153" height="39" viewBox="0 0 153 39" fill="none">
<path d="M1.28477 22.056H6.21677C6.69677 22.056 7.05677 21.948 7.29677 21.732C7.54877 21.504 7.67477 21.132 7.67477 20.616V12.21H9.36677V20.688C9.36677 21.432 9.20477 22.056 8.88077 22.56C8.56877 23.052 8.17877 23.418 7.71077 23.658C7.24277 23.886 6.78677 24 6.34277 24H1.28477V22.056ZM3.48077 12.408L3.96677 20.67L2.27477 20.796L1.77077 12.534L3.48077 12.408ZM15.0697 24C13.8577 24 12.9997 23.664 12.4957 22.992C12.0037 22.32 11.7577 21.36 11.7577 20.112L11.7397 12.21H13.4317L13.4497 20.112C13.4497 20.688 13.4857 21.108 13.5577 21.372C13.6297 21.624 13.7737 21.804 13.9897 21.912C14.2057 22.008 14.5657 22.056 15.0697 22.056H15.4657L15.5737 23.046L15.4657 24H15.0697ZM23.7146 13.2L18.2606 15.612L21.3746 18.78C22.0106 19.428 22.3286 20.19 22.3286 21.066C22.3286 21.582 22.2026 22.068 21.9506 22.524C21.7106 22.968 21.3566 23.328 20.8886 23.604C20.4206 23.868 19.8686 24 19.2326 24H15.2186V22.056H19.2506C19.7066 22.056 20.0546 21.972 20.2946 21.804C20.5466 21.636 20.6726 21.414 20.6726 21.138C20.6726 20.802 20.4926 20.454 20.1326 20.094L16.4066 16.35L16.8926 14.136L23.0306 11.436L23.7146 13.2ZM27.136 19.374C26.44 20.898 26.092 22.158 26.092 23.154C26.092 24.21 26.344 25.044 26.848 25.656C27.364 26.28 28.144 26.592 29.188 26.592H31.006C31.906 26.592 32.614 26.472 33.13 26.232C33.646 25.992 33.904 25.686 33.904 25.314C33.928 24.978 33.712 24.702 33.256 24.486C32.548 24.162 31.486 24 30.07 24V22.056H36.046L36.154 23.01L36.046 24H35.146C35.458 24.276 35.614 24.696 35.614 25.26C35.602 25.812 35.428 26.334 35.092 26.826C34.756 27.33 34.24 27.738 33.544 28.05C32.86 28.374 32.014 28.536 31.006 28.536H29.188C28.204 28.536 27.346 28.29 26.614 27.798C25.894 27.318 25.342 26.664 24.958 25.836C24.586 25.02 24.4 24.132 24.4 23.172C24.4 22.5 24.514 21.762 24.742 20.958C24.97 20.142 25.258 19.35 25.606 18.582L27.136 19.374ZM46.7989 24C46.1509 24 45.5749 23.856 45.0709 23.568C44.5669 23.268 44.2069 22.83 43.9909 22.254C42.9829 22.818 42.0109 23.25 41.0749 23.55C40.1389 23.85 39.1189 24 38.0149 24H35.8009V22.056H38.0149C39.1789 22.056 40.2349 21.876 41.1829 21.516C42.1309 21.156 43.2409 20.604 44.5129 19.86C41.8849 18.816 40.3309 18.294 39.8509 18.294C39.5269 18.294 39.2689 18.372 39.0769 18.528C38.8969 18.684 38.7229 18.984 38.5549 19.428L36.9709 18.924C37.2589 18.048 37.6489 17.406 38.1409 16.998C38.6449 16.578 39.2149 16.368 39.8509 16.368C40.2949 16.368 40.9849 16.542 41.9209 16.89C42.8569 17.226 44.1769 17.748 45.8809 18.456L46.2229 18.6L46.5829 20.67L45.2329 21.516C45.5809 21.876 46.0909 22.056 46.7629 22.056H48.2929L48.4189 23.01L48.2929 24H46.7989ZM40.8769 26.16H42.8749V28.14H40.8769V26.16ZM48.0897 22.056H50.3757C51.5157 22.056 52.0857 21.672 52.0857 20.904C52.0857 20.592 52.0317 20.112 51.9237 19.464C51.8157 18.804 51.6957 18.186 51.5637 17.61L53.2017 17.196C53.3457 17.796 53.4777 18.462 53.5977 19.194C53.7297 19.926 53.7957 20.502 53.7957 20.922C53.7957 21.45 53.6697 21.954 53.4177 22.434C53.1657 22.902 52.7877 23.28 52.2837 23.568C51.7797 23.856 51.1617 24 50.4297 24H48.0897V22.056ZM47.2797 26.574H49.1877V28.482H47.2797V26.574ZM50.5557 26.574H52.4637V28.482H50.5557V26.574ZM62.4952 19.158C62.9032 19.782 63.1072 20.46 63.1072 21.192C63.1072 21.768 62.9692 22.26 62.6932 22.668C62.3452 23.172 61.9192 23.52 61.4152 23.712C60.9112 23.904 60.3412 24 59.7052 24H58.7512C58.0672 24 57.4552 23.898 56.9152 23.694C56.3752 23.49 55.9372 23.256 55.6012 22.992L56.4472 21.39C56.7352 21.57 57.0472 21.726 57.3832 21.858C57.7312 21.99 58.1872 22.056 58.7512 22.056H59.6872C60.1192 22.056 60.4612 22.02 60.7132 21.948C60.9772 21.864 61.1752 21.72 61.3072 21.516C61.3912 21.396 61.4332 21.258 61.4332 21.102C61.4332 20.85 61.3132 20.538 61.0732 20.166L60.7852 19.716C59.6452 17.964 58.8232 16.722 58.3192 15.99L59.7592 14.91L62.4952 19.158Z" fill="#029A49"/>
<path d="M73.5339 24.5C72.7539 24.5 72.0759 24.332 71.4999 23.996C70.9359 23.648 70.5039 23.186 70.2039 22.61C69.9039 22.034 69.7539 21.404 69.7539 20.72C69.7539 20.36 69.7839 20.054 69.8439 19.802C69.9039 19.49 69.9819 19.112 70.0779 18.668C70.1739 18.224 70.2579 17.846 70.3299 17.534L72.7059 18.11L72.5979 18.578C72.4059 19.322 72.2919 19.88 72.2559 20.252C72.2079 20.648 72.2919 20.972 72.5079 21.224C72.7359 21.464 73.0779 21.584 73.5339 21.584H81.3819C81.8379 21.584 82.1499 21.536 82.3179 21.44C82.4859 21.344 82.5699 21.164 82.5699 20.9V18.308H85.1619V20.936C85.1619 21.188 85.2279 21.362 85.3599 21.458C85.5039 21.542 85.7319 21.584 86.0439 21.584H86.5479L86.6559 23.096L86.5479 24.5H86.0439C85.6719 24.5 85.2819 24.434 84.8739 24.302C84.4779 24.158 84.1179 23.948 83.7939 23.672C83.2539 24.224 82.4499 24.5 81.3819 24.5H73.5339ZM74.9019 15.536H77.1519V17.804H74.9019V15.536ZM78.3219 15.536H80.5899V17.804H78.3219V15.536ZM95.0352 13.664L90.2112 15.788L92.8212 18.434C93.1932 18.818 93.4752 19.244 93.6672 19.712C93.8592 20.168 93.9552 20.636 93.9552 21.116C93.9552 21.716 93.8112 22.274 93.5232 22.79C93.2352 23.306 92.8212 23.72 92.2812 24.032C91.7412 24.344 91.1052 24.5 90.3732 24.5H86.3592V21.584H90.4452C90.6852 21.584 90.8712 21.53 91.0032 21.422C91.1472 21.314 91.2192 21.176 91.2192 21.008C91.2192 20.804 91.1172 20.6 90.9132 20.396L87.4212 16.868L87.9972 13.628L93.9912 11L95.0352 13.664ZM98.9585 18.308V23.384C98.9585 25.148 98.4965 26.528 97.5725 27.524C96.6485 28.532 95.3285 29.036 93.6125 29.036H92.4785V26.12H93.6125C94.3565 26.12 94.9205 26.042 95.3045 25.886C95.6885 25.73 95.9585 25.454 96.1145 25.058C96.2825 24.674 96.3665 24.116 96.3665 23.384V18.308H98.9585ZM104.529 24.5C103.245 24.5 102.279 24.122 101.631 23.366C100.995 22.61 100.677 21.614 100.677 20.378V12.368H103.251V20.378C103.251 20.762 103.275 21.032 103.323 21.188C103.371 21.344 103.479 21.452 103.647 21.512C103.815 21.56 104.109 21.584 104.529 21.584H105.303L105.393 23.096L105.303 24.5H104.529ZM105.115 21.584H105.583C105.787 21.584 105.943 21.53 106.051 21.422C106.171 21.314 106.267 21.122 106.339 20.846L106.753 19.226C107.029 18.158 107.491 17.342 108.139 16.778C108.787 16.214 109.561 15.932 110.461 15.932C111.169 15.932 111.811 16.124 112.387 16.508C112.963 16.892 113.413 17.426 113.737 18.11C114.061 18.794 114.223 19.568 114.223 20.432C114.223 21.452 114.049 22.292 113.701 22.952C113.353 23.6 112.921 24.068 112.405 24.356C111.889 24.644 111.361 24.788 110.821 24.788C110.425 24.788 109.993 24.704 109.525 24.536C109.057 24.38 108.409 24.11 107.581 23.726C107.305 23.966 106.993 24.158 106.645 24.302C106.309 24.434 105.967 24.5 105.619 24.5H105.115V21.584ZM108.841 21.296C109.417 21.56 109.849 21.74 110.137 21.836C110.425 21.932 110.689 21.98 110.929 21.98C111.205 21.98 111.421 21.854 111.577 21.602C111.745 21.35 111.829 20.966 111.829 20.45C111.829 19.886 111.703 19.46 111.451 19.172C111.199 18.872 110.887 18.722 110.515 18.722C110.203 18.722 109.927 18.842 109.687 19.082C109.447 19.322 109.267 19.652 109.147 20.072L108.841 21.296ZM119.789 18.308V20.936C119.789 21.188 119.855 21.362 119.987 21.458C120.131 21.542 120.359 21.584 120.671 21.584H121.067L121.175 23.06L121.067 24.5H120.671C120.323 24.5 120.017 24.422 119.753 24.266C119.597 25.766 119.063 26.936 118.151 27.776C117.239 28.616 116.003 29.036 114.443 29.036H113.309V26.12H114.443C115.187 26.12 115.751 26.042 116.135 25.886C116.519 25.73 116.789 25.454 116.945 25.058C117.113 24.674 117.197 24.116 117.197 23.384V18.308H119.789ZM120.901 21.584H123.619C124.111 21.584 124.459 21.5 124.663 21.332C124.879 21.164 124.975 20.924 124.951 20.612C124.903 19.952 124.759 18.986 124.519 17.714L126.931 17.102C127.339 18.83 127.543 20.09 127.543 20.882C127.543 21.518 127.405 22.112 127.129 22.664C126.865 23.204 126.457 23.648 125.905 23.996C125.353 24.332 124.675 24.5 123.871 24.5H120.901V21.584ZM121.495 25.778H123.763V28.046H121.495V25.778ZM123.277 28.568H125.437V30.728H123.277V28.568ZM124.951 25.778H127.219V28.046H124.951V25.778ZM131.971 26.282C132.679 26.282 133.207 26.228 133.555 26.12C133.915 26.024 134.167 25.85 134.311 25.598C134.455 25.346 134.539 24.98 134.563 24.5H133.177C131.977 24.5 131.035 24.158 130.351 23.474C129.679 22.778 129.343 21.812 129.343 20.576C129.343 19.676 129.505 18.89 129.829 18.218C130.153 17.534 130.603 17.006 131.179 16.634C131.767 16.262 132.427 16.076 133.159 16.076C133.951 16.076 134.647 16.262 135.247 16.634C135.847 17.006 136.309 17.534 136.633 18.218C136.969 18.89 137.137 19.676 137.137 20.576V21.584H138.145L138.289 23.06L138.145 24.5H137.119C137.047 25.916 136.597 27.05 135.769 27.902C134.941 28.766 133.675 29.198 131.971 29.198H129.739V26.282H131.971ZM131.791 20.414C131.791 20.846 131.899 21.176 132.115 21.404C132.331 21.62 132.685 21.728 133.177 21.728H134.563V20.504C134.563 19.352 134.095 18.776 133.159 18.776C132.703 18.776 132.361 18.932 132.133 19.244C131.905 19.556 131.791 19.946 131.791 20.414ZM137.969 21.584H139.355C139.715 21.584 139.979 21.512 140.147 21.368C140.315 21.224 140.399 20.984 140.399 20.648V18.308H142.973V20.648C142.973 20.96 143.069 21.194 143.261 21.35C143.453 21.506 143.693 21.584 143.981 21.584C144.293 21.584 144.545 21.5 144.737 21.332C144.929 21.164 145.025 20.924 145.025 20.612L145.007 18.308H147.599L147.581 20.648C147.581 20.96 147.665 21.194 147.833 21.35C148.013 21.506 148.247 21.584 148.535 21.584C148.847 21.584 149.111 21.494 149.327 21.314C149.543 21.134 149.627 20.882 149.579 20.558C149.399 19.466 149.231 18.518 149.075 17.714L151.505 17.102C151.649 17.714 151.781 18.386 151.901 19.118C152.033 19.85 152.099 20.444 152.099 20.9C152.099 21.908 151.811 22.76 151.235 23.456C150.659 24.152 149.759 24.5 148.535 24.5C147.635 24.5 146.885 24.17 146.285 23.51C146.021 23.798 145.679 24.038 145.259 24.23C144.851 24.41 144.401 24.5 143.909 24.5C143.489 24.5 143.051 24.398 142.595 24.194C142.139 23.99 141.815 23.762 141.623 23.51C141.431 23.786 141.119 24.02 140.687 24.212C140.267 24.404 139.781 24.5 139.229 24.5H137.969V21.584Z" fill="#029A49"/>
</svg>