<svg width="80" height="80" viewBox="0 0 80 80" fill="none" xmlns="http://www.w3.org/2000/svg">
<path d="M40.2086 66.6112C34.1483 66.6112 28.286 65.382 22.7825 62.9582C17.4681 60.6184 12.7435 57.282 8.73926 53.0422L13.1577 48.8699C20.2611 56.392 29.8679 60.5343 40.2086 60.5343C50.5493 60.5343 59.8545 56.5166 66.9249 49.2211L71.2893 53.4504C63.0632 61.9376 52.0246 66.6112 40.2086 66.6112Z" fill="#FAFAFA"/>
<path d="M53.1453 50.1636C49.6664 50.1636 46.3841 48.037 45.0874 44.5941C43.4169 40.1561 45.6682 35.1869 50.1046 33.5164C54.5426 31.846 59.5118 34.0973 61.1837 38.5352C62.8542 42.9732 60.6029 47.9424 56.1665 49.6128C55.1714 49.988 54.1509 50.1636 53.1453 50.1636ZM52.2463 39.2016C50.9451 39.6923 50.2832 41.1496 50.774 42.4524C51.2648 43.7551 52.7221 44.4155 54.0248 43.9247C55.326 43.4339 55.9879 41.9766 55.4971 40.6754C55.0063 39.3727 53.549 38.7108 52.2463 39.2016Z" fill="#FAFAFA"/>
<path d="M49.4717 13.3898L25.5627 48.4129L30.5815 51.8391L54.4906 16.816L49.4717 13.3898Z" fill="#FAFAFA"/>
<path d="M26.9147 32.271C25.7065 32.271 24.5029 32.0128 23.3712 31.501C21.2791 30.5525 19.6807 28.8476 18.8718 26.6969C18.0628 24.5477 18.1379 22.2109 19.0864 20.1188C20.0349 18.0266 21.7398 16.4282 23.8905 15.6193C26.0397 14.8103 28.3765 14.8854 30.4687 15.8339C32.5608 16.7824 34.1592 18.4874 34.9681 20.638C36.6386 25.076 34.3873 30.0452 29.9494 31.7172C28.9633 32.0879 27.9383 32.274 26.9147 32.274V32.271ZM26.9207 21.1423C26.6205 21.1423 26.3204 21.1963 26.0307 21.3059C25.4004 21.543 24.8991 22.0128 24.6214 22.6266C24.3438 23.2405 24.3213 23.9264 24.5584 24.5567C24.7955 25.187 25.2653 25.6883 25.8791 25.966C26.493 26.2436 27.1788 26.2661 27.8092 26.029C29.1119 25.5382 29.7723 24.0809 29.2815 22.7782C29.0444 22.1479 28.5746 21.6466 27.9608 21.3689C27.6291 21.2189 27.2749 21.1423 26.9207 21.1423Z" fill="#FAFAFA"/>
</svg>
