<svg xmlns:xlink="http://www.w3.org/1999/xlink" xmlns="http://www.w3.org/2000/svg" width="309" height="144" viewBox="0 0 309 144" fill="none"><link xmlns="" type="text/css" rel="stylesheet" id="dark-mode-custom-link"/><link xmlns="" type="text/css" rel="stylesheet" id="dark-mode-general-link"/><style xmlns="" lang="en" type="text/css" id="dark-mode-custom-style"/><style xmlns="" lang="en" type="text/css" id="dark-mode-native-style"/><style xmlns="" lang="en" type="text/css" id="dark-mode-native-sheet"/>
<path d="M221.28 46.2214C221.297 47.2672 220.472 48.126 219.427 48.143C218.389 48.16 217.531 47.3352 217.505 46.2895C217.488 45.2522 218.321 44.3934 219.359 44.3679C220.404 44.3509 221.263 45.1842 221.28 46.2214Z" fill="#54AF70"/>
<g style="mix-blend-mode:multiply">
<path d="M0.831381 77.9098L0.117188 54.6474L164.781 46.0176L166.006 85.7999L17.836 93.5625C8.78104 94.0386 1.10346 86.9732 0.831381 77.9098V77.9098Z" fill="#E5E5E5"/>
</g>
<path d="M4.89486 73.7012L4.18066 50.4389L168.845 41.8005L170.069 81.5914L21.8995 89.354C12.8445 89.8301 5.17543 82.7647 4.89486 73.7012V73.7012Z" fill="#54AF70"/>
<g style="mix-blend-mode:multiply">
<path d="M154.655 57.5639L154.545 55.5488L202.796 53.0151L202.898 55.0302L154.655 57.5639Z" fill="#E5E5E5"/>
</g>
<g style="mix-blend-mode:multiply">
<path d="M223.176 55.0387L223.065 53.0236L268.816 50.626L268.918 52.641L223.176 55.0387Z" fill="#E5E5E5"/>
</g>
<g style="mix-blend-mode:multiply">
<path d="M100.316 92.5169L100.214 90.4933L156.363 87.5515L156.474 89.5666L100.316 92.5169Z" fill="#E5E5E5"/>
</g>
<g style="mix-blend-mode:multiply">
<path d="M46.6086 101.878L46.498 99.8543L100.105 97.0486L100.216 99.0636L46.6086 101.878Z" fill="#E5E5E5"/>
</g>
<g style="mix-blend-mode:multiply">
<path d="M73.3589 43.4163L73.2568 41.4012L109.205 39.5222L109.315 41.5373L73.3589 43.4163Z" fill="#E5E5E5"/>
</g>
<g style="mix-blend-mode:multiply">
<path d="M166.753 115.736L166.651 113.712L215.183 111.17L215.285 113.194L166.753 115.736Z" fill="#E5E5E5"/>
</g>
<path d="M153.474 56.6711L153.363 54.6475L201.614 52.1223L201.716 54.1374L153.474 56.6711Z" fill="black"/>
<path d="M221.994 54.1459L221.884 52.1308L267.635 49.7332L267.737 51.7482L221.994 54.1459Z" fill="#88217F"/>
<path d="M99.1343 91.6155L99.0322 89.6005L155.19 86.6587L155.292 88.6737L99.1343 91.6155Z" fill="#88217F"/>
<path d="M45.424 100.976L45.3135 98.961L98.9206 96.1553L99.0311 98.1703L45.424 100.976Z" fill="#54AF70"/>
<path d="M72.1828 42.5232L72.0723 40.5081L108.029 38.6206L108.131 40.6442L72.1828 42.5232Z" fill="#54AF70"/>
<path d="M165.572 114.836L165.47 112.821L214.001 110.278L214.103 112.293L165.572 114.836Z" fill="#54AF70"/>
<path d="M278.519 34.5729L190.868 39.3223L192.262 68.2996L289.963 62.9484L289.095 44.8738C288.811 38.8961 284.034 34.242 278.519 34.5729V34.5729Z" fill="#C9C1C7"/>
<path d="M273.962 32.5742L186.837 37.4028L188.29 66.3764L285.404 60.9369L284.499 42.8646C284.203 36.8876 279.444 32.2382 273.962 32.5742V32.5742Z" fill="#88217F"/>
<path d="M212.795 55.6709L212.222 54.4587C212.569 54.3207 212.885 54.1643 213.169 53.9895C213.461 53.8143 213.711 53.6245 213.921 53.4202C214.131 53.2158 214.29 52.9974 214.398 52.7648C214.506 52.5257 214.553 52.2729 214.539 52.0066C214.525 51.727 214.446 51.4239 214.303 51.0975C214.159 50.7711 213.988 50.4395 213.791 50.1025L215.067 49.4061C215.197 49.6064 215.312 49.8241 215.411 50.0593C215.516 50.2876 215.603 50.4934 215.673 50.6767C215.742 50.86 215.789 50.9845 215.812 51.0501C215.922 51.3648 216.059 51.5714 216.224 51.6697C216.396 51.7677 216.665 51.8073 217.032 51.7885C217.285 51.7755 217.468 51.8328 217.581 51.9605C217.701 52.0812 217.766 52.2381 217.776 52.4312C217.786 52.6376 217.725 52.8142 217.592 52.9612C217.459 53.1016 217.263 53.1784 217.003 53.1918C216.731 53.2058 216.489 53.1781 216.278 53.1088C216.068 53.0396 215.895 52.9316 215.761 52.785C215.633 52.638 215.547 52.4621 215.504 52.2575L215.884 52.4482C215.862 52.8031 215.763 53.142 215.586 53.4648C215.416 53.794 215.188 54.0994 214.902 54.3811C214.616 54.6628 214.292 54.9131 213.929 55.132C213.566 55.3509 213.188 55.5305 212.795 55.6709ZM217.015 53.1911L217.043 51.7879C217.283 51.7755 217.488 51.7416 217.659 51.6861C217.83 51.6306 217.971 51.5299 218.084 51.3839C218.196 51.2313 218.285 51.0131 218.351 50.7294C218.423 50.4453 218.481 50.0685 218.523 49.5991L219.843 49.7516C219.835 49.8521 219.821 49.9697 219.801 50.1042C219.788 50.2384 219.775 50.3759 219.762 50.5167C219.755 50.6506 219.755 50.7774 219.761 50.8973C219.768 51.0171 219.796 51.1224 219.848 51.2133C219.899 51.3041 219.976 51.3802 220.08 51.4417C220.189 51.4961 220.328 51.5357 220.496 51.5604C220.671 51.5848 220.882 51.5907 221.128 51.5781C221.381 51.5651 221.564 51.6224 221.678 51.7501C221.791 51.8711 221.852 52.0282 221.862 52.2213C221.873 52.4277 221.812 52.6044 221.679 52.7513C221.553 52.8913 221.36 52.968 221.1 52.9813C220.8 52.9967 220.526 52.9875 220.278 52.9535C220.035 52.9192 219.822 52.8534 219.637 52.7561C219.458 52.6518 219.307 52.5127 219.185 52.3388C219.068 52.1578 218.99 51.9349 218.95 51.6699L219.429 51.6453C219.326 51.971 219.186 52.2352 219.009 52.4379C218.839 52.6335 218.643 52.7838 218.422 52.8886C218.2 52.9934 217.967 53.0655 217.722 53.1048C217.484 53.1504 217.248 53.1792 217.015 53.1911ZM219.995 48.6223C219.802 48.6322 219.632 48.5742 219.485 48.4482C219.345 48.3152 219.27 48.1555 219.261 47.9691C219.251 47.776 219.309 47.6062 219.435 47.4595C219.567 47.3125 219.73 47.2341 219.923 47.2241C220.11 47.2146 220.273 47.2763 220.413 47.4092C220.554 47.5422 220.629 47.7052 220.639 47.8983C220.648 48.0847 220.59 48.2513 220.464 48.3979C220.338 48.5379 220.181 48.6127 219.995 48.6223ZM218.267 48.701C218.074 48.711 217.904 48.6529 217.757 48.527C217.617 48.394 217.542 48.2343 217.532 48.0479C217.522 47.8548 217.58 47.6849 217.706 47.5383C217.839 47.3913 218.002 47.3128 218.195 47.3029C218.381 47.2933 218.545 47.355 218.685 47.488C218.825 47.621 218.901 47.784 218.91 47.9771C218.92 48.1635 218.862 48.33 218.736 48.4767C218.61 48.6167 218.453 48.6915 218.267 48.701ZM221.102 52.9813L221.13 51.578C221.35 51.5667 221.529 51.5408 221.667 51.5003C221.804 51.4532 221.913 51.3642 221.993 51.2332C222.08 51.0953 222.15 50.8948 222.203 50.6317C222.262 50.3616 222.324 49.998 222.387 49.5408L223.698 49.7138C223.679 49.8616 223.651 50.0466 223.616 50.2687C223.587 50.4905 223.577 50.6813 223.585 50.8411C223.592 50.9676 223.621 51.0762 223.672 51.167C223.73 51.2508 223.82 51.3163 223.943 51.3634C224.071 51.4035 224.246 51.4179 224.466 51.4066C224.639 51.3978 224.784 51.3736 224.902 51.3341C225.027 51.2877 225.129 51.199 225.209 51.0681C225.295 50.9301 225.365 50.7229 225.418 50.4466C225.476 50.1632 225.527 49.7834 225.569 49.3073L226.898 49.4493C226.88 49.6038 226.861 49.7683 226.844 49.9427C226.826 50.1172 226.811 50.2782 226.798 50.4257C226.786 50.5732 226.782 50.6936 226.787 50.7868C226.791 50.8733 226.819 50.9553 226.869 51.0328C226.927 51.1033 227.023 51.1585 227.158 51.1982C227.301 51.2377 227.495 51.2511 227.741 51.2384C228.041 51.223 228.257 51.1485 228.391 51.0148C228.53 50.8741 228.593 50.6706 228.58 50.4043C228.572 50.2512 228.56 50.0882 228.544 49.9155C228.528 49.736 228.505 49.537 228.474 49.3183C228.449 49.0926 228.409 48.8377 228.354 48.5534L229.637 48.3874C229.713 48.9576 229.791 49.4209 229.869 49.7773C229.947 50.1338 230.042 50.4093 230.152 50.6039C230.268 50.7915 230.415 50.9175 230.592 50.9818C230.775 51.0458 231.01 51.0705 231.297 51.0558C231.55 51.0428 231.733 51.1001 231.846 51.2278C231.966 51.3485 232.031 51.5054 232.04 51.6985C232.051 51.9049 231.99 52.0816 231.857 52.2286C231.731 52.3686 231.535 52.4454 231.268 52.4591C231.089 52.4683 230.901 52.4612 230.707 52.4379C230.512 52.4212 230.323 52.3741 230.139 52.2968C229.954 52.2128 229.787 52.0879 229.639 51.922C229.49 51.756 229.368 51.532 229.274 51.2498L229.457 51.3005C229.381 51.6382 229.267 51.901 229.117 52.089C228.966 52.2769 228.776 52.4135 228.547 52.4987C228.317 52.5773 228.039 52.6249 227.713 52.6417C227.414 52.6571 227.145 52.6308 226.908 52.5629C226.671 52.495 226.478 52.3747 226.329 52.2021C226.186 52.0225 226.103 51.7765 226.081 51.4639L226.42 51.4464C226.306 51.8261 226.167 52.1103 226.003 52.2989C225.839 52.4876 225.636 52.6149 225.392 52.6808C225.148 52.7467 224.84 52.7892 224.467 52.8084C224.241 52.82 224.017 52.8082 223.795 52.7729C223.572 52.7309 223.37 52.6245 223.188 52.4536C223.005 52.276 222.863 51.9896 222.763 51.5942L223.301 51.5466C223.182 51.9466 223.013 52.2456 222.796 52.4436C222.586 52.6413 222.34 52.7775 222.056 52.8521C221.773 52.9201 221.455 52.9631 221.102 52.9813ZM225.908 46.5363C225.741 46.5448 225.591 46.4891 225.458 46.3691C225.332 46.2487 225.264 46.102 225.256 45.9289C225.247 45.7558 225.299 45.6063 225.413 45.4803C225.533 45.3539 225.677 45.2865 225.843 45.2779C226.016 45.269 226.166 45.3214 226.292 45.4351C226.418 45.5488 226.485 45.6922 226.494 45.8653C226.503 46.0384 226.451 46.1913 226.337 46.3239C226.224 46.4566 226.081 46.5274 225.908 46.5363ZM225.176 47.8956C225.01 47.9041 224.86 47.8484 224.727 47.7284C224.601 47.608 224.533 47.4613 224.524 47.2882C224.515 47.1151 224.568 46.9656 224.682 46.8396C224.802 46.7132 224.945 46.6458 225.112 46.6372C225.285 46.6283 225.434 46.6807 225.56 46.7944C225.686 46.9081 225.754 47.0515 225.763 47.2246C225.772 47.3977 225.719 47.5506 225.606 47.6832C225.493 47.8159 225.349 47.8867 225.176 47.8956ZM226.724 47.8161C226.558 47.8246 226.408 47.7689 226.275 47.6489C226.149 47.5285 226.081 47.3818 226.072 47.2087C226.063 47.0356 226.116 46.886 226.229 46.76C226.35 46.6337 226.493 46.5663 226.66 46.5577C226.833 46.5488 226.982 46.6012 227.108 46.7149C227.234 46.8286 227.302 46.972 227.311 47.1451C227.32 47.3182 227.267 47.4711 227.154 47.6037C227.041 47.7364 226.897 47.8072 226.724 47.8161ZM231.274 52.4588L231.302 51.0555C231.542 51.0432 231.747 51.0093 231.918 50.9538C232.088 50.8983 232.23 50.7976 232.343 50.6516C232.455 50.499 232.544 50.2808 232.609 49.9971C232.682 49.713 232.739 49.3362 232.782 48.8667L234.101 49.0192C234.093 49.1198 234.079 49.2373 234.059 49.3719C234.046 49.506 234.033 49.6436 234.02 49.7844C234.014 49.9182 234.014 50.0451 234.02 50.1649C234.026 50.2848 234.055 50.3901 234.106 50.4809C234.158 50.5717 234.235 50.6479 234.338 50.7093C234.448 50.7638 234.587 50.8034 234.755 50.8281C234.93 50.8525 235.14 50.8584 235.387 50.8457C235.64 50.8327 235.823 50.8901 235.936 51.0178C236.049 51.1388 236.111 51.2958 236.121 51.4889C236.131 51.6953 236.07 51.872 235.938 52.019C235.811 52.159 235.618 52.2357 235.359 52.249C235.059 52.2644 234.785 52.2551 234.536 52.2212C234.294 52.1869 234.08 52.1211 233.895 52.0238C233.716 51.9195 233.566 51.7804 233.443 51.6064C233.327 51.4255 233.249 51.2025 233.209 50.9376L233.688 50.9129C233.584 51.2387 233.444 51.5029 233.268 51.7055C233.098 51.9012 232.902 52.0514 232.68 52.1563C232.459 52.2611 232.225 52.3332 231.98 52.3724C231.743 52.418 231.507 52.4468 231.274 52.4588ZM234.179 54.6326C233.986 54.6425 233.816 54.5812 233.669 54.4486C233.529 54.3222 233.454 54.1659 233.445 53.9794C233.435 53.7864 233.493 53.6165 233.619 53.4698C233.752 53.3228 233.914 53.2444 234.108 53.2345C234.294 53.2249 234.457 53.2866 234.598 53.4196C234.738 53.5526 234.813 53.7156 234.823 53.9087C234.833 54.0951 234.774 54.2583 234.648 54.3983C234.522 54.5449 234.366 54.6231 234.179 54.6326ZM232.452 54.7214C232.259 54.7313 232.088 54.6699 231.941 54.5373C231.801 54.411 231.727 54.2546 231.717 54.0682C231.707 53.8751 231.765 53.7052 231.891 53.5586C232.024 53.4116 232.187 53.3331 232.38 53.3232C232.566 53.3136 232.73 53.3753 232.87 53.5083C233.01 53.6413 233.085 53.8043 233.095 53.9974C233.105 54.1838 233.047 54.347 232.92 54.487C232.794 54.6337 232.638 54.7118 232.452 54.7214ZM235.36 52.2489L235.388 50.8456C235.681 50.8306 235.91 50.7988 236.074 50.7503C236.246 50.7015 236.365 50.6219 236.433 50.5116C236.5 50.3947 236.529 50.233 236.518 50.0266C236.508 49.8402 236.47 49.6185 236.404 49.3616C236.344 49.1043 236.267 48.8379 236.172 48.5624C236.078 48.2869 235.985 48.0347 235.893 47.8057L237.252 47.3554C237.343 47.5777 237.437 47.8366 237.532 48.1321C237.627 48.4276 237.71 48.7338 237.78 49.0506C237.856 49.3605 237.901 49.6619 237.916 49.9548C237.935 50.321 237.904 50.633 237.824 50.8908C237.743 51.1419 237.624 51.3549 237.466 51.5299C237.315 51.6979 237.128 51.8344 236.907 51.9392C236.691 52.037 236.451 52.1094 236.187 52.1564C235.922 52.2034 235.647 52.2342 235.36 52.2489ZM236.707 54.4828C236.514 54.4927 236.344 54.4347 236.197 54.3087C236.057 54.1824 235.982 54.0227 235.972 53.8296C235.962 53.6365 236.02 53.4633 236.146 53.31C236.278 53.163 236.441 53.0846 236.634 53.0746C236.828 53.0647 236.994 53.1263 237.135 53.2592C237.282 53.3985 237.361 53.5647 237.37 53.7578C237.38 53.9509 237.319 54.1176 237.186 54.2579C237.06 54.3979 236.9 54.4729 236.707 54.4828ZM244.918 51.9182L245.106 50.5067C245.519 50.4855 245.911 50.452 246.283 50.4062C246.654 50.3605 246.995 50.3096 247.306 50.2535C247.624 50.1972 247.898 50.1397 248.128 50.0811C248.366 50.0222 248.546 49.9695 248.671 49.9231C248.893 49.8382 249.082 49.7384 249.236 49.6237C249.391 49.509 249.508 49.3828 249.587 49.2452C249.667 49.1076 249.703 48.9722 249.697 48.8391C249.692 48.7458 249.67 48.6535 249.632 48.562C249.594 48.4705 249.543 48.3863 249.479 48.3095C249.422 48.2324 249.352 48.1725 249.27 48.13C249.194 48.0805 249.116 48.0578 249.036 48.0619C248.929 48.0674 248.825 48.1128 248.722 48.1982C248.627 48.2832 248.549 48.394 248.489 48.5306C248.436 48.6602 248.413 48.8048 248.421 48.9646C248.427 49.0778 248.467 49.1959 248.54 49.319C248.613 49.4421 248.712 49.5605 248.838 49.6742C248.971 49.7809 249.119 49.8734 249.283 49.9517L247.981 50.5293C247.827 50.397 247.68 50.261 247.54 50.1214C247.405 49.9748 247.29 49.8104 247.194 49.6285C247.104 49.4462 247.054 49.2385 247.042 49.0055C247.026 48.6992 247.071 48.4132 247.178 48.1473C247.291 47.8745 247.442 47.6331 247.631 47.4231C247.827 47.2128 248.043 47.0482 248.277 46.9294C248.517 46.8035 248.757 46.7345 248.997 46.7221C249.383 46.7023 249.728 46.7881 250.032 46.9794C250.335 47.1641 250.578 47.412 250.761 47.723C250.95 48.0337 251.054 48.3655 251.072 48.7183C251.088 49.0313 251.043 49.314 250.936 49.5665C250.828 49.819 250.676 50.0437 250.48 50.2407C250.289 50.4308 250.074 50.602 249.835 50.7545C249.603 50.9066 249.366 51.0389 249.124 51.1514C248.955 51.2336 248.719 51.3158 248.416 51.3981C248.12 51.4801 247.777 51.5544 247.386 51.6212C247.003 51.6943 246.599 51.7551 246.174 51.8036C245.75 51.8588 245.331 51.897 244.918 51.9182ZM251.801 51.4045C251.415 51.4243 251.034 51.4238 250.659 51.403C250.285 51.3822 249.935 51.3401 249.612 51.2766C249.295 51.2128 249.017 51.1303 248.778 51.0291L249.411 49.9151C249.614 49.9581 249.849 49.9894 250.117 50.009C250.392 50.0216 250.676 50.0271 250.969 50.0253C251.269 50.0233 251.556 50.0152 251.829 50.0012C252.082 49.9882 252.265 50.0456 252.379 50.1732C252.498 50.2939 252.563 50.4508 252.573 50.6439C252.584 50.8503 252.523 51.027 252.39 51.174C252.257 51.3143 252.061 51.3912 251.801 51.4045ZM244.918 51.9182C244.199 51.9551 243.587 51.9298 243.082 51.8423C242.584 51.7611 242.173 51.6286 241.85 51.445C241.533 51.2543 241.298 51.0261 241.144 50.7603C240.99 50.4945 240.905 50.1985 240.888 49.8722C240.877 49.6592 240.883 49.4453 240.905 49.2305C240.934 49.0088 240.969 48.7933 241.012 48.5842C241.061 48.3747 241.105 48.1856 241.143 48.0167L242.406 48.2422C242.386 48.3634 242.363 48.4948 242.337 48.6363C242.31 48.7778 242.291 48.9157 242.278 49.0499C242.264 49.1774 242.26 49.2944 242.266 49.401C242.278 49.6473 242.376 49.8626 242.559 50.0468C242.749 50.2239 243.049 50.3554 243.461 50.441C243.872 50.52 244.42 50.5419 245.106 50.5067L245.361 51.575L244.918 51.9182ZM248.959 45.7929C248.753 45.8035 248.573 45.7426 248.419 45.6103C248.272 45.4777 248.194 45.3082 248.183 45.1018C248.172 44.8954 248.233 44.7154 248.365 44.5617C248.504 44.4077 248.677 44.3254 248.883 44.3148C249.083 44.3045 249.257 44.3691 249.404 44.5084C249.558 44.6473 249.64 44.82 249.651 45.0264C249.662 45.2328 249.597 45.4096 249.458 45.557C249.325 45.704 249.159 45.7826 248.959 45.7929ZM251.813 51.4039L251.841 50.0006C252.081 49.9883 252.286 49.9544 252.457 49.8989C252.628 49.8434 252.769 49.7426 252.882 49.5967C252.994 49.444 253.083 49.2258 253.149 48.9421C253.221 48.658 253.278 48.2813 253.321 47.8118L254.641 47.9643C254.632 48.0649 254.618 48.1824 254.599 48.3169C254.586 48.4511 254.573 48.5886 254.56 48.7295C254.553 48.8633 254.553 48.9901 254.559 49.11C254.565 49.2298 254.594 49.3352 254.646 49.426C254.697 49.5168 254.774 49.5929 254.878 49.6544C254.987 49.7088 255.126 49.7484 255.294 49.7732C255.469 49.7976 255.68 49.8034 255.926 49.7908C256.179 49.7778 256.362 49.8351 256.476 49.9628C256.589 50.0838 256.65 50.2409 256.66 50.434C256.671 50.6404 256.61 50.8171 256.477 50.9641C256.351 51.1041 256.158 51.1807 255.898 51.1941C255.598 51.2095 255.324 51.2002 255.075 51.1662C254.833 51.1319 254.62 51.0661 254.434 50.9688C254.256 50.8645 254.105 50.7254 253.982 50.5515C253.866 50.3705 253.788 50.1476 253.748 49.8826L254.227 49.858C254.124 50.1837 253.984 50.4479 253.807 50.6506C253.637 50.8462 253.441 50.9965 253.22 51.1013C252.998 51.2062 252.765 51.2782 252.52 51.3175C252.282 51.3631 252.046 51.3919 251.813 51.4039ZM254.719 53.5777C254.526 53.5876 254.356 53.5262 254.209 53.3936C254.069 53.2673 253.994 53.1109 253.984 52.9245C253.974 52.7314 254.032 52.5616 254.158 52.4149C254.291 52.2679 254.454 52.1895 254.647 52.1795C254.833 52.17 254.997 52.2317 255.137 52.3646C255.277 52.4976 255.352 52.6606 255.362 52.8537C255.372 53.0401 255.314 53.2033 255.187 53.3433C255.061 53.49 254.905 53.5681 254.719 53.5777ZM252.991 53.6664C252.798 53.6763 252.628 53.615 252.481 53.4824C252.341 53.356 252.266 53.1997 252.256 53.0132C252.247 52.8202 252.305 52.6503 252.431 52.5036C252.563 52.3566 252.726 52.2782 252.919 52.2683C253.106 52.2587 253.269 52.3204 253.409 52.4534C253.55 52.5864 253.625 52.7494 253.635 52.9425C253.644 53.1289 253.586 53.2921 253.46 53.4321C253.334 53.5787 253.177 53.6569 252.991 53.6664ZM255.9 51.194L255.928 49.8007C256.188 49.794 256.428 49.7784 256.647 49.7538C256.866 49.7292 257.061 49.6991 257.233 49.6636C257.411 49.6277 257.566 49.5897 257.698 49.5496C257.836 49.5091 257.951 49.4732 258.043 49.4417C258.265 49.3569 258.454 49.2604 258.609 49.1523C258.763 49.0376 258.88 48.9114 258.96 48.7738C259.039 48.6362 259.075 48.4909 259.067 48.3377C259.061 48.2179 259.028 48.0994 258.969 47.9823C258.916 47.8582 258.841 47.7586 258.743 47.6835C258.646 47.6084 258.534 47.5741 258.408 47.5806C258.288 47.5867 258.18 47.629 258.084 47.7074C257.988 47.7857 257.913 47.8897 257.859 48.0193C257.806 48.1422 257.783 48.2835 257.791 48.4433C257.798 48.5831 257.838 48.7146 257.912 48.8377C257.984 48.9541 258.083 49.0658 258.209 49.1729C258.335 49.2799 258.483 49.3791 258.655 49.4704L257.353 50.0479C257.199 49.9156 257.052 49.773 256.91 49.6201C256.776 49.4668 256.66 49.2925 256.563 49.0972C256.473 48.8949 256.421 48.6672 256.408 48.4142C256.392 48.108 256.438 47.8253 256.544 47.5661C256.651 47.307 256.8 47.0824 256.991 46.8924C257.181 46.6957 257.396 46.5411 257.638 46.4286C257.879 46.316 258.123 46.2534 258.369 46.2408C258.768 46.2203 259.119 46.2957 259.422 46.4671C259.724 46.6385 259.963 46.8698 260.138 47.1612C260.32 47.4523 260.42 47.7743 260.438 48.1271C260.455 48.4534 260.41 48.7494 260.304 49.0152C260.197 49.2744 260.045 49.5091 259.849 49.7194C259.659 49.9228 259.445 50.104 259.206 50.2631C258.974 50.4219 258.737 50.5576 258.496 50.6701C258.379 50.7295 258.232 50.7871 258.055 50.843C257.877 50.8988 257.676 50.9525 257.452 51.0041C257.227 51.049 256.986 51.0881 256.727 51.1214C256.468 51.1547 256.193 51.1789 255.9 51.194ZM261.173 50.9231C260.787 50.943 260.406 50.9425 260.031 50.9217C259.656 50.9009 259.307 50.8588 258.983 50.7953C258.666 50.7315 258.388 50.6489 258.15 50.5477L258.783 49.4337C258.986 49.4768 259.221 49.5081 259.489 49.5277C259.763 49.5403 260.047 49.5457 260.341 49.544C260.641 49.5419 260.928 49.5339 261.201 49.5199C261.454 49.5069 261.637 49.5642 261.75 49.6919C261.87 49.8126 261.935 49.9695 261.945 50.1625C261.955 50.3689 261.894 50.5456 261.762 50.6926C261.629 50.833 261.432 50.9098 261.173 50.9231ZM258.331 45.3115C258.125 45.3221 257.945 45.2613 257.791 45.129C257.644 44.9963 257.565 44.8268 257.555 44.6204C257.544 44.414 257.605 44.234 257.737 44.0804C257.876 43.9264 258.049 43.8441 258.255 43.8335C258.455 43.8232 258.629 43.8877 258.776 44.027C258.93 44.166 259.012 44.3386 259.023 44.545C259.033 44.7514 258.969 44.9283 258.83 45.0756C258.697 45.2226 258.531 45.3012 258.331 45.3115ZM267.717 50.587C267.411 50.6027 267.123 50.5941 266.855 50.5612C266.593 50.5279 266.349 50.4604 266.123 50.3585C265.897 50.2499 265.693 50.0969 265.509 49.8994C265.332 49.7015 265.179 49.449 265.049 49.1419L265.806 48.4722C265.937 48.6791 266.092 48.8381 266.271 48.949C266.45 49.0533 266.661 49.1226 266.903 49.1569C267.145 49.1912 267.426 49.2001 267.745 49.1837C267.998 49.1707 268.181 49.2281 268.295 49.3558C268.408 49.4768 268.469 49.6338 268.479 49.8269C268.49 50.0333 268.429 50.21 268.296 50.357C268.17 50.497 267.977 50.5737 267.717 50.587ZM261.186 50.9225L261.214 49.5192C261.573 49.5007 261.928 49.4625 262.279 49.4044C262.63 49.3463 262.97 49.2688 263.299 49.1718C263.627 49.0748 263.938 48.9553 264.232 48.8135C264.531 48.6712 264.81 48.5034 265.067 48.31C264.861 48.2004 264.639 48.1083 264.402 48.0337C264.164 47.9591 263.911 47.9087 263.643 47.8824C263.381 47.8492 263.103 47.84 262.811 47.8551C262.704 47.8606 262.591 47.8697 262.471 47.8825C262.359 47.895 262.243 47.9143 262.124 47.9404C262.005 47.9599 261.886 47.986 261.768 48.0188L261.498 46.6609C261.688 46.5977 261.889 46.5506 262.101 46.5197C262.319 46.4818 262.512 46.4586 262.678 46.45C263.038 46.4316 263.369 46.4546 263.673 46.5191C263.983 46.5832 264.268 46.6688 264.527 46.7756C264.793 46.8821 265.039 46.9896 265.265 47.0982C265.497 47.2064 265.716 47.2953 265.919 47.365C266.13 47.4343 266.332 47.464 266.525 47.454L266.894 47.4351L267.122 48.7551C266.837 48.7831 266.57 48.8536 266.322 48.9664C266.081 49.0723 265.84 49.2048 265.602 49.3639C265.369 49.516 265.117 49.6758 264.845 49.8433C264.58 50.0105 264.278 50.1695 263.938 50.3205C263.599 50.4714 263.205 50.6018 262.757 50.7116C262.309 50.8214 261.785 50.8917 261.186 50.9225ZM262.625 45.4214C262.419 45.432 262.239 45.3711 262.085 45.2388C261.938 45.1062 261.86 44.9367 261.849 44.7303C261.838 44.5239 261.899 44.3439 262.032 44.1902C262.17 44.0362 262.343 43.9539 262.55 43.9433C262.749 43.9331 262.923 43.9976 263.07 44.1369C263.224 44.2758 263.306 44.4485 263.317 44.6549C263.328 44.8613 263.263 45.0382 263.124 45.1855C262.991 45.3325 262.825 45.4111 262.625 45.4214ZM267.72 50.5869L267.748 49.1836C268.148 49.1631 268.453 49.1273 268.664 49.0765C268.875 49.0256 269.018 48.9448 269.092 48.8342C269.173 48.7165 269.208 48.5545 269.197 48.3481C269.188 48.1617 269.15 47.94 269.083 47.6831C269.023 47.4259 268.946 47.1595 268.852 46.8839C268.764 46.6081 268.671 46.3558 268.572 46.1273L269.931 45.677C270.029 45.8989 270.126 46.1576 270.221 46.4531C270.317 46.7486 270.399 47.0548 270.469 47.3716C270.538 47.6818 270.58 47.9834 270.595 48.2763C270.619 48.7291 270.564 49.1023 270.433 49.3962C270.3 49.6833 270.105 49.9103 269.847 50.0771C269.595 50.2436 269.287 50.3662 268.924 50.4449C268.561 50.517 268.16 50.5643 267.72 50.5869ZM270.139 44.8552C269.946 44.8651 269.776 44.8071 269.63 44.6811C269.489 44.5482 269.414 44.3885 269.405 44.202C269.395 44.009 269.453 43.8391 269.579 43.6924C269.712 43.5454 269.874 43.467 270.067 43.4571C270.254 43.4475 270.417 43.5092 270.558 43.6422C270.698 43.7751 270.773 43.9382 270.783 44.1312C270.793 44.3177 270.734 44.4842 270.608 44.6309C270.482 44.7709 270.326 44.8456 270.139 44.8552ZM268.411 44.934C268.218 44.9439 268.048 44.8859 267.901 44.7599C267.761 44.6269 267.686 44.4672 267.677 44.2808C267.667 44.0877 267.725 43.9178 267.851 43.7712C267.983 43.6242 268.146 43.5457 268.339 43.5358C268.526 43.5262 268.689 43.5879 268.829 43.7209C268.97 43.8539 269.045 44.0169 269.055 44.21C269.064 44.3964 269.006 44.563 268.88 44.7096C268.754 44.8496 268.597 44.9244 268.411 44.934ZM274.139 52.5101L273.778 51.1268C274.248 51.0426 274.657 50.9482 275.005 50.8435C275.354 50.7455 275.644 50.6171 275.876 50.4583C276.109 50.2995 276.278 50.0906 276.385 49.8314C276.491 49.5656 276.534 49.2296 276.513 48.8235C276.506 48.677 276.485 48.5312 276.451 48.3861C276.416 48.2344 276.369 48.0966 276.309 47.9728C276.25 47.8491 276.175 47.7495 276.084 47.674C276 47.5982 275.901 47.5632 275.788 47.569C275.668 47.5752 275.564 47.6239 275.475 47.7153C275.386 47.8 275.318 47.9069 275.271 48.0362C275.224 48.1587 275.204 48.2833 275.21 48.4098C275.215 48.503 275.243 48.5817 275.293 48.6459C275.342 48.7034 275.415 48.7464 275.51 48.7749C275.604 48.7968 275.721 48.8041 275.861 48.7969C276.021 48.7887 276.183 48.7637 276.348 48.7218C276.519 48.673 276.673 48.6117 276.809 48.5379L276.905 49.6245C276.752 49.7592 276.574 49.8817 276.373 49.9922C276.172 50.096 275.924 50.1555 275.631 50.1705C275.392 50.1828 275.167 50.1676 274.958 50.125C274.749 50.0757 274.561 49.9952 274.395 49.8835C274.236 49.7716 274.108 49.6246 274.012 49.4426C273.915 49.254 273.86 49.0265 273.847 48.7602C273.83 48.434 273.867 48.115 273.958 47.8032C274.048 47.4915 274.181 47.211 274.355 46.9617C274.535 46.7055 274.745 46.5011 274.984 46.3487C275.23 46.1892 275.492 46.1023 275.772 46.0879C276.105 46.0708 276.399 46.1392 276.654 46.293C276.915 46.4464 277.136 46.6553 277.317 46.9198C277.497 47.1775 277.638 47.4607 277.741 47.7691C277.844 48.0776 277.902 48.375 277.917 48.6613C277.956 49.4136 277.829 50.061 277.536 50.6034C277.243 51.1458 276.808 51.5753 276.23 51.892C275.653 52.2154 274.956 52.4214 274.139 52.5101Z" fill="white"/>
<path d="M278.083 14.478C278.117 16.4335 276.561 18.049 274.606 18.083C272.65 18.117 271.035 16.5611 271.001 14.6055C270.967 12.65 272.522 11.0346 274.478 11.0005C276.434 10.9665 278.049 12.5225 278.083 14.478Z" fill="#54AF70"/>
<g style="mix-blend-mode:multiply">
<path d="M295.177 98.0376L175.924 104.89L173.229 68.5771L306.162 61.01L307.846 83.6602C308.398 91.1592 302.685 97.6465 295.177 98.0376V98.0376Z" fill="#E5E5E5"/>
</g>
<g filter="url(#filter0_d_10265_555875)">
<path d="M292.057 95.0276L172.812 101.88L170.117 65.5671L303.042 58L304.726 80.6502C305.287 88.1407 299.565 94.6365 292.057 95.0276V95.0276Z" fill="#88217F"/>
</g>
<path d="M203.309 66.4799C205.001 84.4198 191.788 100.396 173.848 102.088C166.536 102.776 159.539 100.991 153.715 97.4114C145.255 92.2165 139.252 83.255 138.249 72.6271C136.548 54.6872 149.769 38.7199 167.701 37.0194C181.415 35.7271 193.99 43.1496 199.899 54.7297C201.719 58.3007 202.909 62.2628 203.309 66.4799V66.4799Z" fill="white"/>
<path d="M167.137 31.0421C165.19 31.2291 163.26 31.0506 161.407 30.5149C156.407 29.0865 152.479 25.286 150.872 20.3546L150.711 19.8615L153.474 19.5979L153.585 19.904C154.886 23.5175 157.827 26.4253 161.466 27.6921C163.209 28.2958 165.029 28.5169 166.882 28.3468C168.727 28.1683 170.479 27.6156 172.077 26.6889C176.422 24.1807 178.93 19.3344 178.454 14.352C178.233 11.9374 177.323 9.64173 175.835 7.7202L175.631 7.45663L177.391 5.33105L177.714 5.72216C179.678 8.11981 180.869 11.0106 181.158 14.0969C181.753 20.4142 178.343 26.5868 172.664 29.4521C170.938 30.3194 169.076 30.855 167.137 31.0421V31.0421Z" fill="black"/>
<path d="M150.983 20.6781L150.873 20.355C150.524 19.2752 150.295 18.1529 150.184 17.0221C149.376 8.48578 155.668 0.876206 164.204 0.0684861C169.365 -0.416146 174.416 1.69243 177.715 5.72252L177.936 5.9861L176.159 8.13718L175.836 7.72057C173.115 4.20911 168.864 2.35561 164.459 2.77222C157.411 3.4354 152.216 9.71861 152.888 16.767C152.99 17.8383 153.219 18.8926 153.585 19.9044L153.772 20.4145L150.983 20.6781Z" fill="#373B47"/>
<g style="mix-blend-mode:multiply">
<path d="M167.138 31.042C165.191 31.229 163.261 31.0505 161.408 30.5149L161.127 30.4383L160.847 27.4795L161.467 27.6921C163.21 28.2957 165.03 28.5168 166.883 28.3468C168.728 28.1682 170.48 27.6156 172.078 26.6888L172.639 26.3657L172.92 29.3245L172.665 29.4521C170.939 30.3193 169.077 30.8549 167.138 31.042Z" fill="#EEEEEE"/>
</g>
<path d="M198.07 34.3157L196.556 36.5093L195.289 38.3373C194.558 39.3916 193.113 39.6552 192.05 38.924L189.338 37.0534C188.275 36.3222 188.011 34.8684 188.742 33.8056L189.763 32.3262L191.523 29.7925C192.254 28.7297 193.708 28.4661 194.762 29.1973L197.474 31.0678C198.537 31.799 198.801 33.2529 198.07 34.3157V34.3157Z" fill="#373B47"/>
<path d="M171.203 30.2349L162.99 31.0171L162.063 21.1714L170.268 20.3977L171.203 30.2349Z" fill="#373B47"/>
<path d="M170.736 25.295L162.276 23.382L162.063 21.1714L170.268 20.3977L170.736 25.295Z" fill="black"/>
<path d="M173.61 17.2435L173.78 18.9865C173.899 20.3128 172.929 21.4861 171.603 21.6137L160.984 22.617C159.657 22.736 158.484 21.7667 158.356 20.4404L158.195 18.7059C158.067 17.3795 159.037 16.2062 160.363 16.0787L170.991 15.0754C172.309 14.9479 173.482 15.9256 173.61 17.2435Z" fill="#373B47"/>
<path d="M173.534 16.733C171.553 17.7873 168.917 18.5695 165.984 18.8416C163.05 19.1221 160.321 18.8501 158.17 18.1784C158.263 17.0986 159.258 16.1803 160.559 16.0613L170.787 15.092C172.088 14.973 173.245 15.6872 173.534 16.733V16.733Z" fill="black"/>
<path d="M168.431 16.75C168.406 16.5714 168.584 16.4014 168.788 16.3844C168.856 16.3787 168.927 16.373 169.001 16.3673C169.511 16.3163 170.021 16.2682 170.531 16.2228C170.744 16.1973 170.922 16.3333 170.948 16.5119C170.973 16.6904 170.795 16.8605 170.591 16.8775C170.517 16.8832 170.446 16.8888 170.378 16.8945C169.868 16.9455 169.358 16.9937 168.848 17.039C168.635 17.0645 168.457 16.9285 168.431 16.75Z" fill="#373B47"/>
<path d="M161.026 17.1159C161.281 17.0933 161.536 17.0706 161.791 17.0479C163.565 16.8779 165.34 16.7107 167.114 16.5463C167.607 16.4953 167.666 17.15 167.173 17.201C166.918 17.2236 166.663 17.2463 166.408 17.269C164.634 17.439 162.86 17.6091 161.086 17.7791C160.592 17.8216 160.533 17.167 161.026 17.1159Z" fill="#373B47"/>
<path d="M145.211 75.3393C146.155 85.3295 150.805 94.1039 157.675 100.413C146.724 95.7449 138.588 85.372 137.389 72.7121C135.654 54.2961 149.215 37.9121 167.623 36.1776L167.733 36.1606C153.11 42.937 143.612 58.4027 145.211 75.3393V75.3393Z" fill="#E5E5E5"/>
<g style="mix-blend-mode:multiply">
<path d="M196.556 36.5096L195.289 38.3376C194.558 39.3918 193.113 39.6554 192.05 38.9242L189.338 37.0537C188.275 36.3225 188.011 34.8686 188.742 33.8058L189.763 32.3264C192.16 33.4997 194.431 34.9026 196.556 36.5096Z" fill="#E1E1E1"/>
</g>
<path d="M137.339 36.7475L139.651 34.4008C140.553 33.4826 142.032 33.4741 142.95 34.3838L145.144 36.5434L146.428 37.8102C147.346 38.7115 147.355 40.1909 146.453 41.1091L144.141 43.4558C143.231 44.374 141.76 44.3825 140.842 43.4813L139.26 41.9254L137.364 40.0464C136.446 39.1451 136.429 37.6657 137.339 36.7475V36.7475Z" fill="#373B47"/>
<path d="M167.657 35.5232L170.709 70.1786L144.709 48.7698C149.649 40.0804 161.382 36.3394 167.657 35.5232Z" fill="#88217F"/>
<path d="M194.741 60.197L164.932 71.6922Z" fill="white"/>
<path d="M195.208 61.4213C193.984 61.8918 192.76 62.3651 191.535 62.8412C186.19 64.8987 180.845 66.9591 175.5 69.0224C172.133 70.3204 168.766 71.6184 165.399 72.9164C163.826 73.5201 162.9 71.0714 164.473 70.4678C165.697 69.9973 166.921 69.524 168.146 69.0479C173.485 66.9903 178.827 64.9299 184.172 62.8667C187.539 61.5687 190.909 60.2707 194.282 58.9726C195.855 58.369 196.781 60.8176 195.208 61.4213V61.4213Z" fill="black"/>
<g style="mix-blend-mode:multiply">
<path d="M145.143 36.5435L146.427 37.8103C147.345 38.7115 147.354 40.1909 146.453 41.1092L144.14 43.4558C143.23 44.3741 141.759 44.3826 140.841 43.4813L139.26 41.9254C141.045 39.9529 143.009 38.1504 145.143 36.5435Z" fill="#E1E1E1"/>
</g>
<path d="M130.519 73.18L130.493 72.9334C129.6 62.28 132.891 51.8817 139.769 43.643C146.656 35.4127 156.315 30.3198 166.968 29.308C183.174 27.7776 198.639 36.0589 206.376 50.4108L206.495 50.6318L202.533 56.4559L202.227 55.7587C196.276 42.1635 182.332 33.9673 167.546 35.3702C148.697 37.1472 134.812 53.9307 136.589 72.7889C136.674 73.6391 136.785 74.4978 136.921 75.3311L137.057 76.1048L130.519 73.18Z" fill="#373B47"/>
<path d="M174.578 109.8C152.387 111.891 132.627 95.5498 130.527 73.3587C130.516 73.2114 130.505 73.0697 130.493 72.9336L130.442 72.2279L136.887 75.1102L136.921 75.3313C138.367 83.8591 142.949 91.4687 149.828 96.7571C156.732 102.08 165.319 104.562 174.008 103.738C192.858 101.961 206.742 85.177 204.965 66.3273C204.617 62.6543 203.698 59.1004 202.227 55.759L202.134 55.5464L206.045 49.7988L206.377 50.411C208.944 55.1723 210.509 60.3332 211.019 65.7492C213.119 87.9402 196.769 107.7 174.578 109.8V109.8Z" fill="black"/>
<path d="M201.684 53.2842L199.984 54.6446C194.075 43.0644 181.5 35.6419 167.786 36.9343C149.854 38.6347 136.633 54.6021 138.334 72.542C139.337 83.1698 145.34 92.1313 153.799 97.3262L152.048 98.7546C143.367 93.1771 137.245 83.816 136.2 72.746C134.397 53.5988 148.451 36.6197 167.582 34.8087C182.07 33.4398 195.316 41.1514 201.684 53.2842V53.2842Z" fill="black"/>
<path d="M205.366 66.361C207.151 85.4997 193.071 102.462 173.924 104.247C165.856 104.996 158.169 102.929 151.844 98.8484L153.604 97.42C159.428 101.008 166.408 102.802 173.729 102.122C191.669 100.455 204.907 84.4965 203.24 66.5566C202.849 62.3394 201.659 58.3773 199.848 54.8064L201.548 53.4375C203.597 57.3486 204.932 61.7017 205.366 66.361V66.361Z" fill="#373B47"/>
<g opacity="0.1">
<path d="M182.07 33.8226C182.011 34.2902 181.45 34.7238 180.974 34.5878C178.984 34.0181 176.943 33.61 174.886 33.3635C174.359 33.3039 174.053 32.7513 174.121 32.2752C174.189 31.748 174.724 31.4504 175.209 31.51C177.275 31.748 179.307 32.1561 181.305 32.7343C181.815 32.8788 182.138 33.2699 182.07 33.8226Z" fill="#E8E6FC"/>
<path d="M164.487 32.8107C164.538 33.3549 164.139 33.7375 163.637 33.8395C160.721 34.4177 157.873 35.3699 155.186 36.6368C150.535 38.8389 146.377 42.0528 143.053 45.9723C139.746 49.8664 137.246 54.4406 135.818 59.3465C135.673 59.8396 135.265 60.2137 134.721 60.1117C134.253 60.0352 133.811 59.508 133.956 59.0234C134.823 56.0561 136.013 53.1908 137.561 50.5126C140.273 45.8193 143.946 41.7127 148.333 38.5243C152.839 35.2594 158.009 33.0403 163.459 31.9605C163.96 31.8585 164.445 32.3431 164.487 32.8107V32.8107Z" fill="#E8E6FC"/>
</g>
<path d="M168.311 43.4815C167.929 43.5325 167.572 43.2094 167.538 42.8353C167.521 42.6879 167.507 42.5406 167.495 42.3932C167.393 41.3332 167.291 40.2733 167.189 39.2133C167.155 38.8137 167.453 38.4906 167.835 38.4311C168.218 38.3801 168.575 38.7032 168.609 39.0773C168.626 39.2247 168.64 39.3749 168.652 39.5279C168.754 40.5879 168.856 41.6478 168.958 42.7078C168.992 43.0989 168.694 43.4305 168.311 43.4815V43.4815Z" fill="black"/>
<path d="M150.508 53.5398C150.278 53.8459 149.794 53.8714 149.505 53.6333C149.391 53.537 149.275 53.4406 149.156 53.3443C148.34 52.6697 147.521 51.9924 146.699 51.3122C146.393 51.0571 146.376 50.615 146.605 50.3089C146.835 50.0028 147.32 49.9773 147.609 50.2154C147.728 50.3118 147.844 50.4081 147.957 50.5045C148.779 51.179 149.598 51.8563 150.415 52.5365C150.721 52.7916 150.746 53.2337 150.508 53.5398Z" fill="black"/>
<path d="M144.702 72.0155C144.762 72.3981 144.43 72.7637 144.064 72.7977C143.911 72.8091 143.761 72.8232 143.614 72.8402C142.554 72.9366 141.494 73.0358 140.434 73.1378C140.034 73.1718 139.711 72.8742 139.66 72.4916C139.601 72.1175 139.932 71.7519 140.298 71.7179C140.451 71.7066 140.601 71.6924 140.749 71.6754C141.809 71.5734 142.868 71.4742 143.928 71.3778C144.328 71.3353 144.651 71.6329 144.702 72.0155Z" fill="black"/>
<path d="M154.079 89.7335C154.385 89.963 154.41 90.4477 154.172 90.7367C154.076 90.8501 153.98 90.9663 153.883 91.0853C153.209 91.9072 152.531 92.7263 151.851 93.5425C151.596 93.8486 151.154 93.8741 150.848 93.636C150.542 93.4065 150.516 92.9218 150.754 92.6328C150.851 92.5194 150.947 92.4032 151.044 92.2842C151.724 91.4623 152.401 90.6432 153.076 89.827C153.331 89.5209 153.773 89.4954 154.079 89.7335Z" fill="black"/>
<path d="M173.244 95.6259C173.618 95.5749 173.983 95.898 174.017 96.2721C174.029 96.4195 174.043 96.5668 174.06 96.7142C174.162 97.7742 174.261 98.8341 174.357 99.8941C174.4 100.294 174.102 100.617 173.72 100.676C173.337 100.727 172.972 100.404 172.938 100.03C172.926 99.8827 172.912 99.7325 172.895 99.5795C172.799 98.5196 172.699 97.4596 172.597 96.3996C172.563 96.0085 172.853 95.6769 173.244 95.6259V95.6259Z" fill="black"/>
<path d="M190.954 86.2481C191.184 85.9421 191.668 85.9165 191.957 86.1546C192.076 86.251 192.193 86.3473 192.306 86.4437C193.128 87.1182 193.947 87.7956 194.763 88.4757C195.069 88.7308 195.095 89.1729 194.857 89.479C194.627 89.7851 194.142 89.8106 193.853 89.5725C193.74 89.4762 193.624 89.3798 193.505 89.2835C192.689 88.6089 191.87 87.9316 191.048 87.2514C190.742 86.9963 190.725 86.5542 190.954 86.2481Z" fill="black"/>
<path d="M196.847 67.0922C196.796 66.7096 197.119 66.344 197.493 66.31C197.641 66.2987 197.791 66.2845 197.944 66.2675C199.004 66.1712 200.061 66.072 201.115 65.9699C201.515 65.9359 201.846 66.2335 201.897 66.6161C201.949 66.9902 201.625 67.3558 201.251 67.3898C201.104 67.4012 200.954 67.4153 200.801 67.4323C199.741 67.5344 198.684 67.6336 197.629 67.7299C197.23 67.7724 196.907 67.4748 196.847 67.0922Z" fill="black"/>
<path d="M187.467 49.3728C187.161 49.1433 187.136 48.6586 187.374 48.3696C187.47 48.2562 187.566 48.14 187.663 48.021C188.343 47.1991 189.02 46.38 189.695 45.5638C189.95 45.2577 190.392 45.2322 190.698 45.4703C191.004 45.6998 191.03 46.1845 190.792 46.4736C190.695 46.5869 190.599 46.7031 190.502 46.8221C189.828 47.644 189.151 48.4631 188.47 49.2793C188.215 49.5854 187.773 49.6109 187.467 49.3728Z" fill="black"/>
<path d="M175.352 69.1243C175.59 71.6495 173.737 73.8941 171.212 74.1322C168.678 74.3702 166.433 72.5167 166.195 69.983C165.957 67.4579 167.819 65.2132 170.344 64.9752C172.87 64.7371 175.114 66.5906 175.352 69.1243V69.1243Z" fill="white"/>
<path d="M176.006 69.0563C176.202 71.522 174.663 73.9196 172.248 74.5913C170.131 75.1865 167.844 74.4298 166.534 72.6528C165.225 70.8673 165.217 68.4186 166.441 66.5906C167.657 64.7796 170.02 63.8954 172.129 64.4821C174.246 65.0687 175.768 66.8797 176.006 69.0563C176.091 69.898 174.79 70.0171 174.697 69.1838C174.493 67.2963 173.013 65.7999 171.117 65.6214C169.493 65.4683 167.912 66.3951 167.215 67.8575C166.517 69.3284 166.806 71.1479 167.954 72.3127C169.128 73.5115 170.956 73.8261 172.478 73.1119C173.974 72.4062 174.833 70.8078 174.697 69.1838C174.629 68.3421 175.938 68.2231 176.006 69.0563V69.0563Z" fill="black"/>
<path d="M187.441 21.3523C187.458 22.1601 186.82 22.8147 186.021 22.8318C185.213 22.8488 184.558 22.2111 184.541 21.4034C184.524 20.6041 185.162 19.941 185.97 19.9325C186.769 19.9155 187.432 20.5531 187.441 21.3523V21.3523Z" fill="black"/>
<path d="M33.5477 105.194C33.5648 106.197 32.7655 107.022 31.7623 107.039C30.759 107.056 29.9343 106.265 29.9173 105.262C29.9003 104.258 30.6995 103.434 31.7027 103.417C32.6975 103.4 33.5307 104.19 33.5477 105.194Z" fill="#54AF70"/>
<path d="M251.351 103.961C251.368 104.76 250.73 105.423 249.931 105.44C249.131 105.449 248.468 104.811 248.451 104.012C248.443 103.212 249.08 102.549 249.88 102.532C250.679 102.524 251.342 103.161 251.351 103.961V103.961Z" fill="#54AF70"/>
<path d="M81.0608 33.4087C81.0778 34.2079 80.4401 34.8711 79.6324 34.8796C78.8332 34.8966 78.17 34.2589 78.1615 33.4597C78.1445 32.6605 78.7821 31.9973 79.5813 31.9803C80.3891 31.9633 81.0437 32.6095 81.0608 33.4087V33.4087Z" fill="#54AF70"/>
<path d="M148.933 115.932C148.958 117.182 147.955 118.211 146.705 118.236C145.455 118.253 144.418 117.259 144.401 116.009C144.375 114.759 145.379 113.722 146.628 113.705C147.878 113.679 148.916 114.674 148.933 115.932Z" fill="#54AF70"/>
<path d="M220.812 115.201C220.837 116.451 219.834 117.488 218.584 117.505C217.334 117.53 216.297 116.527 216.28 115.277C216.254 114.027 217.249 112.99 218.507 112.973C219.757 112.948 220.786 113.951 220.812 115.201Z" fill="#88217F"/>
<path d="M254.908 28.4285C254.916 29.2277 254.279 29.8909 253.479 29.9079C252.68 29.9164 252.017 29.2787 252 28.4795C251.992 27.6803 252.629 27.0171 253.428 27.0001C254.228 26.9916 254.891 27.6293 254.908 28.4285Z" fill="#88217F"/>
<path d="M110.816 107.107C110.85 109.062 109.294 110.678 107.33 110.712C105.375 110.746 103.768 109.19 103.734 107.226C103.7 105.27 105.256 103.663 107.211 103.629C109.167 103.595 110.782 105.151 110.816 107.107V107.107Z" fill="#88217F"/>
<path d="M65.0819 111.528C65.1159 113.092 63.866 114.385 62.3016 114.41C60.7372 114.444 59.4448 113.194 59.4193 111.63C59.3938 110.066 60.6352 108.773 62.1996 108.748C63.764 108.722 65.0564 109.964 65.0819 111.528Z" fill="#88217F"/>
<path fill-rule="evenodd" clip-rule="evenodd" d="M279.571 108.05C278.687 108.067 277.956 107.362 277.948 106.478C277.931 105.593 278.636 104.871 279.512 104.854C280.396 104.837 281.127 105.542 281.144 106.427C281.161 107.302 280.456 108.033 279.571 108.05ZM279.52 105.151C278.806 105.16 278.228 105.755 278.245 106.469C278.254 107.192 278.849 107.761 279.563 107.753C280.286 107.744 280.855 107.149 280.847 106.427C280.838 105.712 280.243 105.134 279.52 105.151Z" fill="#54AF70"/>
<path fill-rule="evenodd" clip-rule="evenodd" d="M53.1389 37.7956C52.2547 37.8126 51.5235 37.1069 51.5149 36.2226C51.4979 35.3384 52.2036 34.6157 53.0794 34.5987C53.9636 34.5817 54.6948 35.2874 54.7118 36.1716C54.7288 37.0474 54.0231 37.7786 53.1389 37.7956ZM53.0879 34.8963C52.3652 34.9048 51.7955 35.4999 51.804 36.2226C51.821 36.9368 52.4162 37.515 53.1304 37.498C53.8531 37.4895 54.4227 36.8943 54.4142 36.1716C54.3972 35.4574 53.8021 34.8793 53.0879 34.8963Z" fill="black"/>
<path fill-rule="evenodd" clip-rule="evenodd" d="M112.866 33.6383C109.499 33.6978 106.71 31.0026 106.659 27.6442C106.6 24.2773 109.286 21.497 112.653 21.4375C116.012 21.378 118.8 24.0647 118.86 27.4316C118.911 30.79 116.224 33.5788 112.866 33.6383ZM112.67 22.5683C109.933 22.6193 107.739 24.8809 107.79 27.6272C107.832 30.3649 110.103 32.55 112.84 32.5075C115.578 32.4565 117.772 30.1864 117.721 27.4486C117.678 24.7109 115.408 22.5173 112.67 22.5683V22.5683Z" fill="#54AF70"/>
<path fill-rule="evenodd" clip-rule="evenodd" d="M215.937 30.203C214.585 30.2285 213.267 29.8033 212.17 28.9786C210.869 28.0009 210.028 26.5725 209.798 24.957C209.568 23.3501 209.985 21.7432 210.963 20.4423C211.941 19.1329 213.369 18.2912 214.984 18.0617C216.6 17.8321 218.207 18.2487 219.508 19.2265C220.808 20.2042 221.65 21.6326 221.88 23.2481C222.109 24.8635 221.693 26.4704 220.715 27.7713C219.737 29.0721 218.309 29.9139 216.693 30.1434C216.438 30.1831 216.186 30.203 215.937 30.203V30.203ZM215.767 19.1329C215.557 19.1386 215.35 19.1556 215.146 19.184C213.828 19.371 212.663 20.0597 211.873 21.114C211.073 22.1768 210.733 23.4861 210.92 24.804C211.303 27.5162 213.828 29.4122 216.54 29.0296C217.85 28.8426 219.014 28.1539 219.814 27.0911C220.613 26.0283 220.945 24.719 220.757 23.4096C220.579 22.0918 219.89 20.9269 218.827 20.1362C217.935 19.4645 216.863 19.1159 215.767 19.1329V19.1329Z" fill="#88217F"/>
<path fill-rule="evenodd" clip-rule="evenodd" d="M204.17 35.3388C203.481 35.3558 202.809 35.1347 202.248 34.7181C201.576 34.2165 201.143 33.4853 201.032 32.6521C200.786 30.9516 201.976 29.3702 203.685 29.1236C204.51 29.0046 205.335 29.2171 205.998 29.7188C206.669 30.2204 207.094 30.9516 207.214 31.7763C207.333 32.6096 207.12 33.4258 206.618 34.0975C206.117 34.7606 205.386 35.1943 204.561 35.3133C204.43 35.3303 204.3 35.3388 204.17 35.3388ZM204.076 29.6763C203.974 29.6763 203.872 29.6848 203.77 29.7018C203.09 29.7953 202.495 30.1439 202.087 30.688C201.679 31.2322 201.508 31.9039 201.602 32.5755C201.696 33.2472 202.053 33.8424 202.597 34.2505C203.132 34.6586 203.804 34.8287 204.476 34.7351C205.156 34.6416 205.751 34.293 206.159 33.7489C206.567 33.2047 206.737 32.533 206.644 31.8613C206.457 30.5775 205.343 29.6507 204.076 29.6763Z" fill="#88217F"/>
<path d="M217.949 85.7947L217.262 84.3401C217.678 84.1745 218.057 83.9868 218.399 83.777C218.748 83.5668 219.049 83.3391 219.301 83.0939C219.552 82.8486 219.743 82.5865 219.873 82.3075C220.003 82.0204 220.059 81.7171 220.043 81.3976C220.025 81.062 219.931 80.6984 219.758 80.3067C219.586 79.915 219.381 79.517 219.144 79.1126L220.675 78.277C220.832 78.5173 220.97 78.7786 221.088 79.0609C221.214 79.3347 221.319 79.5817 221.403 79.8017C221.486 80.0217 221.542 80.1711 221.57 80.2497C221.701 80.6275 221.866 80.8753 222.065 80.9933C222.271 81.1109 222.594 81.1584 223.033 81.1358C223.337 81.1202 223.557 81.1891 223.693 81.3423C223.836 81.4871 223.914 81.6754 223.926 81.9071C223.939 82.1547 223.865 82.3668 223.706 82.5432C223.547 82.7116 223.311 82.8038 222.999 82.8198C222.672 82.8366 222.382 82.8034 222.129 82.7203C221.877 82.6371 221.67 82.5076 221.508 82.3316C221.355 82.1552 221.252 81.9442 221.2 81.6986L221.656 81.9275C221.63 82.3534 221.51 82.7601 221.298 83.1475C221.094 83.5425 220.82 83.909 220.477 84.247C220.134 84.5851 219.745 84.8854 219.31 85.1481C218.875 85.4107 218.421 85.6263 217.949 85.7947ZM223.014 82.819L223.047 81.1351C223.527 81.1105 223.893 81.0676 224.146 81.0066C224.4 80.9455 224.571 80.8486 224.66 80.7158C224.757 80.5747 224.799 80.3803 224.786 80.1326C224.775 79.9089 224.729 79.6429 224.649 79.3346C224.577 79.0259 224.485 78.7062 224.372 78.3755C224.267 78.0445 224.155 77.7418 224.037 77.4675L225.667 76.9272C225.785 77.1935 225.901 77.504 226.015 77.8586C226.13 78.2132 226.229 78.5806 226.312 78.9608C226.395 79.333 226.446 79.6949 226.464 80.0464C226.492 80.5897 226.427 81.0376 226.269 81.3902C226.11 81.7348 225.876 82.0072 225.566 82.2073C225.264 82.4071 224.895 82.5542 224.459 82.6487C224.023 82.7352 223.541 82.792 223.014 82.819ZM225.917 75.9411C225.685 75.953 225.481 75.8834 225.305 75.7322C225.137 75.5726 225.047 75.381 225.035 75.1573C225.024 74.9256 225.093 74.7217 225.244 74.5457C225.404 74.3693 225.599 74.2752 225.831 74.2633C226.054 74.2518 226.25 74.3259 226.419 74.4854C226.587 74.645 226.677 74.8406 226.689 75.0723C226.701 75.296 226.631 75.4959 226.48 75.6719C226.328 75.8399 226.141 75.9296 225.917 75.9411ZM223.843 76.0356C223.611 76.0475 223.407 75.9778 223.231 75.8267C223.063 75.6671 222.973 75.4755 222.962 75.2518C222.95 75.0201 223.019 74.8162 223.171 74.6402C223.33 74.4638 223.525 74.3697 223.757 74.3578C223.98 74.3463 224.177 74.4203 224.345 74.5799C224.513 74.7395 224.604 74.9351 224.615 75.1668C224.627 75.3905 224.557 75.5904 224.406 75.7664C224.254 75.9344 224.067 76.0241 223.843 76.0356ZM227.712 82.037L228.221 80.4849C228.524 80.5975 228.812 80.6788 229.087 80.7288C229.362 80.7788 229.635 80.7968 229.907 80.7828C230.187 80.7685 230.417 80.7326 230.598 80.6752C230.787 80.6094 230.927 80.5222 231.017 80.4134C231.108 80.3046 231.15 80.1783 231.142 80.0345C231.135 79.8986 231.082 79.7132 230.981 79.478C230.889 79.2424 230.725 78.9384 230.49 78.566C230.254 78.1856 229.914 77.7184 229.469 77.1645L230.846 76.1445C231.258 76.6681 231.617 77.1824 231.923 77.6873C232.229 78.1843 232.469 78.6526 232.644 79.0922C232.826 79.5234 232.926 79.9068 232.943 80.2424C232.965 80.6578 232.871 81.0271 232.664 81.3502C232.464 81.6648 232.152 81.9211 231.73 82.1191C231.315 82.3166 230.797 82.4313 230.173 82.4634C229.942 82.4753 229.681 82.4686 229.391 82.4434C229.102 82.4183 228.807 82.3733 228.507 82.3086C228.216 82.2435 227.951 82.153 227.712 82.037ZM234.333 84.9413L233.9 83.2813C234.463 83.1803 234.954 83.067 235.372 82.9413C235.791 82.8237 236.139 82.6696 236.418 82.4791C236.696 82.2886 236.9 82.0378 237.028 81.7268C237.156 81.4078 237.207 81.0047 237.182 80.5173C237.173 80.3415 237.148 80.1666 237.107 79.9925C237.066 79.8104 237.009 79.645 236.937 79.4965C236.866 79.348 236.775 79.2285 236.667 79.1379C236.566 79.047 236.448 79.005 236.312 79.012C236.168 79.0194 236.043 79.0779 235.936 79.1875C235.829 79.2891 235.748 79.4174 235.692 79.5725C235.635 79.7196 235.611 79.8691 235.619 80.0209C235.624 80.1327 235.657 80.2271 235.717 80.3042C235.777 80.3732 235.864 80.4248 235.978 80.459C236.091 80.4852 236.232 80.494 236.399 80.4854C236.591 80.4756 236.786 80.4455 236.984 80.3953C237.189 80.3367 237.373 80.2632 237.537 80.1747L237.652 81.4785C237.468 81.6401 237.255 81.7872 237.014 81.9198C236.772 82.0444 236.475 82.1157 236.124 82.1337C235.836 82.1485 235.567 82.1303 235.316 82.0791C235.064 82.0199 234.839 81.9233 234.64 81.7894C234.449 81.655 234.296 81.4786 234.18 81.2603C234.064 81.0339 233.998 80.7609 233.982 80.4414C233.962 80.0499 234.006 79.6671 234.115 79.293C234.224 78.9189 234.383 78.5823 234.592 78.2832C234.809 77.9757 235.06 77.7305 235.347 77.5475C235.642 77.3562 235.957 77.2519 236.293 77.2346C236.692 77.2141 237.045 77.2961 237.351 77.4807C237.664 77.6648 237.93 77.9156 238.146 78.2329C238.362 78.5422 238.532 78.8819 238.655 79.2521C238.778 79.6223 238.849 79.9791 238.866 80.3227C238.913 81.2255 238.76 82.0023 238.409 82.6532C238.058 83.3041 237.536 83.8195 236.843 84.1996C236.15 84.5876 235.313 84.8349 234.333 84.9413ZM239.811 84.66L239.121 83.1574C239.795 82.8824 240.337 82.5902 240.746 82.2809C241.162 81.9711 241.462 81.6473 241.645 81.3094C241.836 80.9712 241.922 80.6263 241.904 80.2748C241.893 80.0511 241.849 79.821 241.773 79.5846C241.696 79.3402 241.591 79.0853 241.457 78.8198C241.331 78.5539 241.181 78.2773 241.006 77.9899L242.537 77.1542C242.844 77.6752 243.086 78.1754 243.263 78.655C243.448 79.1341 243.551 79.5854 243.573 80.0089C243.593 80.4003 243.56 80.7785 243.475 81.1434C243.398 81.5078 243.263 81.8512 243.071 82.1734C242.888 82.5033 242.644 82.8162 242.339 83.1123C242.033 83.4083 241.671 83.6833 241.251 83.9371C240.832 84.1989 240.352 84.4399 239.811 84.66ZM242.019 75.9552C241.771 75.9679 241.555 75.8949 241.371 75.7362C241.195 75.577 241.1 75.3736 241.087 75.1259C241.075 74.8782 241.148 74.6622 241.306 74.4778C241.473 74.293 241.68 74.1943 241.928 74.1816C242.168 74.1693 242.376 74.2467 242.553 74.4138C242.737 74.5806 242.836 74.7878 242.849 75.0354C242.862 75.2831 242.784 75.4954 242.617 75.6722C242.458 75.8486 242.259 75.9429 242.019 75.9552ZM247.25 81.1778C247.241 80.994 247.246 80.7775 247.265 80.5282C247.284 80.2789 247.33 79.9962 247.401 79.6801C247.473 79.356 247.586 78.9937 247.742 78.5932L249.243 79.0328C249.168 79.285 249.103 79.5166 249.05 79.7276C248.996 79.9306 248.958 80.1208 248.935 80.2982C248.912 80.4676 248.904 80.6362 248.913 80.804C248.927 81.0677 248.995 81.3005 249.117 81.5025C249.248 81.712 249.429 81.883 249.66 82.0153C249.892 82.1556 250.169 82.2575 250.493 82.321C250.825 82.384 251.202 82.4047 251.626 82.383C252.065 82.3604 252.456 82.3203 252.797 82.2627C253.147 82.2047 253.439 82.1296 253.675 82.0374C253.918 81.9448 254.101 81.8313 254.222 81.6969C254.344 81.5705 254.4 81.4274 254.392 81.2676C254.388 81.1957 254.357 81.1292 254.298 81.0682C254.247 81.0067 254.159 80.9431 254.036 80.8774C253.92 80.8112 253.764 80.7431 253.569 80.6731C253.381 80.6026 253.152 80.5262 252.884 80.4439L253.193 78.7338C253.543 78.86 253.874 78.9712 254.183 79.0674C254.5 79.1553 254.8 79.228 255.083 79.2855C255.366 79.3351 255.633 79.3735 255.882 79.4007C256.132 79.4199 256.364 79.424 256.58 79.413C256.883 79.3974 257.103 79.4662 257.239 79.6194C257.375 79.7646 257.449 79.9531 257.461 80.1848C257.473 80.4325 257.4 80.6445 257.241 80.8209C257.081 80.9893 256.85 81.0813 256.546 81.0969C256.482 81.1002 256.418 81.1035 256.354 81.1067C256.298 81.1096 256.239 81.1127 256.175 81.116C256.119 81.1188 256.059 81.1219 255.995 81.1252C256.015 81.2043 256.026 81.2718 256.029 81.3277C256.033 81.3916 256.036 81.4515 256.039 81.5075C256.052 81.7711 255.974 82.0435 255.804 82.3246C255.642 82.6052 255.38 82.8711 255.016 83.122C254.652 83.373 254.182 83.5814 253.606 83.7472C253.038 83.9205 252.355 84.0277 251.556 84.0688C250.693 84.1131 249.944 84.0394 249.31 83.8477C248.683 83.6636 248.191 83.3484 247.831 82.9023C247.48 82.4637 247.287 81.8889 247.25 81.1778ZM256.544 81.097L256.577 79.4131C256.841 79.3995 257.056 79.3685 257.222 79.3199C257.387 79.2634 257.518 79.1565 257.614 78.9994C257.717 78.8338 257.801 78.5932 257.865 78.2775C257.936 77.9535 258.01 77.5171 258.086 76.9685L259.659 77.1761C259.641 77.2972 259.62 77.4384 259.596 77.5998C259.573 77.7613 259.553 77.9265 259.538 78.0955C259.522 78.2565 259.517 78.4009 259.524 78.5288C259.536 78.7525 259.617 78.9286 259.767 79.057C259.918 79.1774 260.193 79.2274 260.592 79.2069C260.792 79.1966 260.963 79.1678 261.104 79.1205C261.254 79.0648 261.376 78.9583 261.473 78.8012C261.576 78.6357 261.66 78.3871 261.723 78.0554C261.793 77.7153 261.854 77.2596 261.905 76.6882L263.5 76.8587C263.477 77.0441 263.455 77.2415 263.434 77.4508C263.413 77.6602 263.394 77.8534 263.38 78.0304C263.365 78.2074 263.36 78.3518 263.366 78.4637C263.371 78.5675 263.404 78.6659 263.465 78.7589C263.533 78.8435 263.649 78.9097 263.812 78.9574C263.982 79.0047 264.219 79.0206 264.523 79.005C264.739 78.9939 264.921 78.9565 265.07 78.8928C265.227 78.8287 265.342 78.7306 265.415 78.5987C265.497 78.4664 265.532 78.2963 265.521 78.0886C265.506 77.793 265.418 77.409 265.258 76.9366C265.097 76.4642 264.912 75.9691 264.701 75.4512L266.365 74.8611C266.51 75.1981 266.641 75.5598 266.757 75.9464C266.881 76.3246 266.98 76.696 267.055 77.0606C267.137 77.4168 267.185 77.7308 267.199 78.0024C267.22 78.4099 267.175 78.7767 267.063 79.1028C266.952 79.421 266.785 79.6939 266.565 79.9215C266.344 80.1491 266.077 80.327 265.763 80.4553C265.449 80.5836 265.101 80.6576 264.717 80.6773C264.254 80.7011 263.872 80.6766 263.572 80.6039C263.271 80.5232 263.036 80.3791 262.865 80.1716C262.701 79.9557 262.586 79.6572 262.518 79.2762L262.926 79.2553C262.782 79.7353 262.612 80.0884 262.415 80.3148C262.218 80.5332 261.977 80.6778 261.693 80.7485C261.416 80.8188 261.066 80.8648 260.642 80.8865C260.379 80.9001 260.106 80.886 259.823 80.8445C259.548 80.7945 259.297 80.6632 259.07 80.4506C258.843 80.238 258.665 79.8986 258.537 79.4326L259.183 79.3754C259.039 79.8554 258.838 80.2142 258.577 80.4519C258.325 80.6891 258.029 80.8525 257.689 80.9421C257.349 81.0236 256.967 81.0753 256.544 81.097ZM268.262 83.2108L267.574 81.7561C267.991 81.5906 268.369 81.4029 268.711 81.1931C269.061 80.9829 269.362 80.7551 269.613 80.5099C269.865 80.2647 270.056 80.0025 270.186 79.7235C270.315 79.4365 270.372 79.1332 270.355 78.8136C270.338 78.4781 270.243 78.1144 270.071 77.7228C269.899 77.3311 269.694 76.9331 269.457 76.5287L270.988 75.6931C271.145 75.9333 271.282 76.1946 271.401 76.4769C271.527 76.7508 271.632 76.9978 271.715 77.2178C271.799 77.4378 271.854 77.5871 271.882 77.6658C272.014 78.0435 272.179 78.2914 272.377 78.4094C272.583 78.527 272.906 78.5745 273.346 78.5519C273.649 78.5363 273.869 78.6051 274.005 78.7583C274.149 78.9032 274.227 79.0914 274.238 79.3231C274.251 79.5708 274.178 79.7828 274.019 79.9592C273.859 80.1276 273.624 80.2198 273.312 80.2358C272.984 80.2527 272.694 80.2195 272.442 80.1363C272.189 80.0532 271.982 79.9236 271.821 79.7477C271.668 79.5713 271.565 79.3603 271.512 79.1147L271.969 79.3436C271.942 79.7695 271.823 80.1761 271.611 80.5635C271.407 80.9585 271.133 81.325 270.79 81.6631C270.447 82.0011 270.058 82.3015 269.623 82.5641C269.188 82.8268 268.734 83.0423 268.262 83.2108ZM273.326 80.2351L273.36 78.5512C273.648 78.5364 273.894 78.4957 274.099 78.4291C274.304 78.3625 274.474 78.2416 274.609 78.0665C274.744 77.8833 274.85 77.6215 274.929 77.281C275.016 76.9401 275.085 76.488 275.136 75.9246L276.719 76.1077C276.709 76.2283 276.693 76.3694 276.669 76.5308C276.653 76.6918 276.637 76.8568 276.622 77.0258C276.614 77.1864 276.614 77.3387 276.622 77.4825C276.629 77.6263 276.663 77.7527 276.725 77.8617C276.787 77.9706 276.88 78.062 277.004 78.1357C277.135 78.2011 277.302 78.2486 277.504 78.2783C277.713 78.3076 277.966 78.3146 278.262 78.2994C278.565 78.2838 278.785 78.3526 278.921 78.5059C279.057 78.6511 279.13 78.8396 279.142 79.0713C279.155 79.3189 279.082 79.531 278.923 79.7074C278.771 79.8754 278.54 79.9674 278.228 79.9834C277.868 80.0018 277.539 79.9907 277.241 79.9499C276.95 79.9088 276.694 79.8298 276.472 79.7131C276.257 79.5879 276.076 79.421 275.929 79.2122C275.79 78.9951 275.696 78.7276 275.648 78.4096L276.223 78.3801C276.099 78.771 275.931 79.088 275.719 79.3312C275.515 79.566 275.28 79.7463 275.014 79.8721C274.748 79.9979 274.468 80.0843 274.174 80.1315C273.889 80.1862 273.606 80.2207 273.326 80.2351ZM276.902 74.7525C276.67 74.7644 276.466 74.6948 276.29 74.5436C276.122 74.384 276.032 74.1924 276.021 73.9687C276.009 73.737 276.078 73.5331 276.229 73.3571C276.389 73.1808 276.584 73.0866 276.816 73.0747C277.039 73.0632 277.235 73.1373 277.404 73.2968C277.572 73.4564 277.662 73.652 277.674 73.8837C277.686 74.1074 277.616 74.3073 277.465 74.4833C277.313 74.6513 277.126 74.741 276.902 74.7525ZM274.828 74.847C274.596 74.8589 274.392 74.7893 274.216 74.6381C274.048 74.4785 273.958 74.2869 273.947 74.0632C273.935 73.8315 274.004 73.6276 274.156 73.4516C274.315 73.2752 274.51 73.1811 274.742 73.1692C274.966 73.1577 275.162 73.2318 275.33 73.3913C275.498 73.5509 275.589 73.7465 275.6 73.9782C275.612 74.2019 275.542 74.4018 275.391 74.5778C275.239 74.7458 275.052 74.8355 274.828 74.847ZM278.23 79.9833L278.264 78.2993C278.527 78.2858 278.742 78.2547 278.908 78.2062C279.073 78.1496 279.204 78.0428 279.3 77.8856C279.404 77.7201 279.487 77.4795 279.551 77.1638C279.623 76.8397 279.696 76.4033 279.772 75.8547L281.345 76.0623C281.327 76.1834 281.306 76.3247 281.283 76.4861C281.259 76.6475 281.239 76.8127 281.224 76.9817C281.208 77.1428 281.204 77.2872 281.21 77.415C281.222 77.6387 281.303 77.8148 281.454 77.9432C281.604 78.0637 281.879 78.1136 282.278 78.0931C282.478 78.0829 282.649 78.0541 282.791 78.0067C282.94 77.951 283.063 77.8446 283.159 77.6874C283.262 77.5219 283.346 77.2733 283.409 76.9416C283.48 76.6016 283.54 76.1458 283.591 75.5745L285.186 75.7449C285.163 75.9303 285.141 76.1277 285.12 76.3371C285.099 76.5464 285.081 76.7396 285.066 76.9166C285.051 77.0936 285.046 77.238 285.052 77.3499C285.057 77.4538 285.09 77.5522 285.151 77.6452C285.22 77.7298 285.335 77.796 285.498 77.8437C285.669 77.891 285.906 77.9068 286.209 77.8912C286.425 77.8802 286.607 77.8428 286.756 77.779C286.913 77.7149 287.028 77.6169 287.102 77.4849C287.183 77.3526 287.218 77.1826 287.208 76.9748C287.192 76.6792 287.105 76.2952 286.944 75.8228C286.784 75.3504 286.598 74.8553 286.387 74.3374L288.051 73.7473C288.197 74.0843 288.327 74.4461 288.443 74.8326C288.567 75.2108 288.666 75.5822 288.741 75.9468C288.823 76.3031 288.871 76.617 288.885 76.8887C288.906 77.2961 288.861 77.6629 288.75 77.9891C288.638 78.3072 288.472 78.5801 288.251 78.8077C288.03 79.0354 287.763 79.2133 287.449 79.3416C287.135 79.4698 286.787 79.5438 286.403 79.5635C285.94 79.5873 285.558 79.5628 285.258 79.4901C284.958 79.4095 284.722 79.2653 284.551 79.0578C284.388 78.8419 284.272 78.5435 284.205 78.1624L284.612 78.1415C284.468 78.6215 284.298 78.9747 284.102 79.2011C283.905 79.4195 283.664 79.564 283.379 79.6347C283.102 79.705 282.752 79.751 282.329 79.7728C282.065 79.7863 281.792 79.7723 281.509 79.7307C281.235 79.6808 280.983 79.5495 280.756 79.3368C280.529 79.1242 280.351 78.7849 280.223 78.3188L280.869 78.2616C280.726 78.7416 280.524 79.1004 280.264 79.3381C280.012 79.5754 279.715 79.7387 279.376 79.8283C279.035 79.9099 278.654 79.9615 278.23 79.9833ZM290.009 78.8376L290.518 77.2854C290.82 77.3981 291.109 77.4794 291.384 77.5294C291.659 77.5793 291.932 77.5973 292.204 77.5834C292.483 77.569 292.714 77.5332 292.895 77.4758C293.084 77.41 293.224 77.3227 293.314 77.2139C293.405 77.1052 293.446 76.9789 293.439 76.835C293.432 76.6992 293.378 76.5137 293.278 76.2786C293.186 76.043 293.022 75.739 292.787 75.3666C292.551 74.9862 292.211 74.519 291.766 73.9651L293.143 72.9451C293.554 73.4687 293.913 73.983 294.22 74.4879C294.526 74.9849 294.766 75.4532 294.941 75.8928C295.123 76.324 295.223 76.7074 295.24 77.0429C295.261 77.4584 295.168 77.8277 294.96 78.1507C294.76 78.4654 294.449 78.7217 294.027 78.9196C293.612 79.1172 293.093 79.2319 292.47 79.2639C292.239 79.2758 291.978 79.2692 291.688 79.244C291.399 79.2188 291.104 79.1739 290.804 79.1092C290.512 79.0441 290.247 78.9535 290.009 78.8376Z" fill="white"/>
<path d="M10.7319 76.8299L10.0311 75.3817C10.4457 75.2123 10.8228 75.0211 11.1625 74.8082C11.5103 74.5948 11.8089 74.3643 12.0584 74.1168C12.3079 73.8693 12.4963 73.6054 12.6236 73.3252C12.7504 73.037 12.8041 72.7332 12.7848 72.4138C12.7645 72.0784 12.6664 71.7157 12.4905 71.3256C12.3146 70.9355 12.1063 70.5394 11.8655 70.1372L13.3889 69.2876C13.5477 69.5264 13.6876 69.7864 13.8089 70.0676C13.9376 70.3403 14.0446 70.5863 14.13 70.8055C14.2154 71.0248 14.2725 71.1736 14.3013 71.252C14.4363 71.6285 14.6035 71.8749 14.8029 71.991C15.0103 72.1067 15.3336 72.1513 15.7728 72.1247C16.0762 72.1063 16.2967 72.1731 16.4341 72.3251C16.579 72.4686 16.6585 72.6561 16.6725 72.8877C16.6875 73.1352 16.6163 73.3479 16.4587 73.5258C16.3007 73.6956 16.066 73.79 15.7545 73.8088C15.4271 73.8287 15.1368 73.7982 14.8834 73.7173C14.6301 73.6365 14.422 73.5088 14.2591 73.3344C14.1043 73.1594 13.9994 72.9494 13.9445 72.7042L14.4029 72.9289C14.3806 73.3551 14.265 73.7628 14.0562 74.1521C13.8558 74.549 13.5856 74.918 13.2456 75.2591C12.9056 75.6003 12.5193 75.9042 12.0866 76.1709C11.6539 76.4375 11.2024 76.6572 10.7319 76.8299ZM12.6562 68.1057C12.4086 68.1207 12.1919 68.0496 12.0061 67.8926C11.8282 67.7351 11.7318 67.5325 11.7168 67.285C11.7019 67.0374 11.7729 66.8207 11.9299 66.6349C12.095 66.4486 12.3013 66.3479 12.5488 66.3329C12.7884 66.3184 12.9973 66.3939 13.1757 66.5595C13.362 66.7245 13.4626 66.9308 13.4776 67.1783C13.4926 67.4259 13.4173 67.6388 13.2518 67.8172C13.0943 67.995 12.8957 68.0912 12.6562 68.1057ZM15.7689 73.808L15.7871 72.1238C16.0746 72.1064 16.3204 72.0635 16.5247 71.995C16.7289 71.9265 16.8978 71.8041 17.0314 71.6277C17.1645 71.4433 17.2688 71.1805 17.3443 70.8393C17.4278 70.4977 17.4926 70.0449 17.5386 69.4811L19.1236 69.6496C19.1149 69.7704 19.0994 69.9116 19.0772 70.0732C19.0629 70.2344 19.0488 70.3995 19.035 70.5686C19.0287 70.7293 19.0299 70.8815 19.0386 71.0253C19.0473 71.169 19.083 71.2951 19.1457 71.4035C19.2084 71.5119 19.302 71.6024 19.4266 71.675C19.5587 71.7391 19.7258 71.7851 19.9279 71.813C20.1379 71.8403 20.3907 71.845 20.6861 71.8272C20.9896 71.8088 21.21 71.8756 21.3474 72.0276C21.4844 72.1715 21.5599 72.3593 21.5739 72.5909C21.5889 72.8384 21.5176 73.0511 21.3601 73.229C21.21 73.3984 20.9793 73.4925 20.6679 73.5113C20.3085 73.5331 19.9794 73.525 19.6806 73.487C19.3897 73.4485 19.1326 73.3719 18.9093 73.2572C18.6935 73.134 18.5111 72.9687 18.3623 72.7613C18.221 72.5455 18.1247 72.2788 18.0735 71.9613L18.6484 71.9265C18.5279 72.3185 18.3628 72.6371 18.1533 72.8822C17.9512 73.1188 17.7178 73.3013 17.4531 73.4295C17.1883 73.5577 16.9092 73.6468 16.6157 73.6966C16.3306 73.7539 16.0483 73.7911 15.7689 73.808ZM19.279 76.3845C19.0474 76.3986 18.8427 76.3268 18.6649 76.1693C18.4955 76.0192 18.404 75.8324 18.3905 75.6088C18.3765 75.3772 18.4442 75.1728 18.5938 74.9954C18.7513 74.8176 18.9459 74.7216 19.1775 74.7076C19.401 74.6941 19.5978 74.7663 19.7676 74.9243C19.9375 75.0824 20.0294 75.2772 20.0435 75.5087C20.057 75.7323 19.9888 75.9288 19.8387 76.0982C19.6892 76.2755 19.5026 76.371 19.279 76.3845ZM17.2068 76.51C16.9752 76.524 16.7705 76.4523 16.5927 76.2947C16.4233 76.1447 16.3318 75.9579 16.3183 75.7343C16.3043 75.5027 16.372 75.2983 16.5216 75.1209C16.6791 74.943 16.8737 74.8471 17.1053 74.8331C17.3288 74.8195 17.5256 74.8918 17.6954 75.0498C17.8653 75.2078 17.9572 75.4026 17.9713 75.6342C17.9848 75.8578 17.9165 76.0543 17.7665 76.2237C17.617 76.401 17.4304 76.4965 17.2068 76.51ZM20.3379 66.4383L19.6915 65.4917C20.0688 65.2364 20.458 64.9804 20.8593 64.7237C21.26 64.459 21.7077 64.1754 22.2023 63.873C22.7044 63.5621 23.2922 63.2099 23.9657 62.8165L24.5805 63.8372C23.8906 64.2236 23.2943 64.5682 22.7917 64.8712C22.2971 65.1736 21.8531 65.453 21.4599 65.7092C21.0742 65.957 20.7002 66.2 20.3379 66.4383ZM20.67 73.5112L20.6883 71.827L22.3652 71.7255C22.6447 71.7086 22.8553 71.6798 22.9971 71.6391C23.1469 71.598 23.2478 71.5438 23.2999 71.4765C23.3514 71.4013 23.3743 71.3157 23.3685 71.2199C23.3598 71.0762 23.2857 70.9124 23.1464 70.7284C23.015 70.5441 22.8432 70.3541 22.631 70.1586C22.4268 69.9625 22.2106 69.7673 21.9824 69.5727C21.7537 69.3701 21.534 69.1831 21.3233 69.0115C21.1205 68.8394 20.9511 68.6894 20.8151 68.5614C20.6866 68.4249 20.6205 68.3247 20.6166 68.2608C20.6031 68.0372 20.6044 67.8608 20.6206 67.7316C20.6364 67.5944 20.6618 67.4847 20.6969 67.4024C20.7399 67.3197 20.7877 67.2486 20.8402 67.1894C20.9678 67.0454 21.1622 66.8813 21.4236 66.6972C21.6844 66.5051 21.9927 66.3021 22.3484 66.0882C22.7117 65.8658 23.1183 65.6328 23.5684 65.3892C24.018 65.1375 24.4951 64.8762 24.9997 64.6052L25.7709 66.0252C25.2579 66.2887 24.7998 66.5328 24.3967 66.7576C24.001 66.9739 23.6446 67.1758 23.3273 67.3634C23.0176 67.5424 22.7393 67.7115 22.4924 67.8707C22.2536 68.0295 22.0382 68.1788 21.8463 68.3186L21.9124 67.425C22.2737 67.6997 22.6021 67.9603 22.8975 68.2069C23.1929 68.4535 23.4684 68.7013 23.7239 68.9503C23.9795 69.1993 24.2195 69.4573 24.444 69.7242C24.6766 69.9906 24.9026 70.2815 25.122 70.5968C25.3146 70.8656 25.5069 71.0624 25.6987 71.187C25.8986 71.3112 26.0878 71.3919 26.2664 71.4291C26.4525 71.458 26.6174 71.468 26.7611 71.4593C27.0646 71.4409 27.285 71.5077 27.4225 71.6597C27.5674 71.8032 27.6469 71.9907 27.6609 72.2223C27.6759 72.4699 27.6046 72.6826 27.4471 72.8604C27.2891 73.0303 27.0543 73.1246 26.7429 73.1435C26.4794 73.1594 26.1933 73.1327 25.8845 73.0632C25.5752 72.9858 25.2826 72.8512 25.0065 72.6596C24.7304 72.4679 24.5136 72.1965 24.3561 71.8454L25.0058 71.8541C24.9015 72.1169 24.7711 72.3452 24.6145 72.539C24.4654 72.7244 24.2825 72.8797 24.0656 73.005C23.8483 73.1224 23.5974 73.2137 23.3128 73.279C23.0283 73.3444 22.7063 73.3879 22.347 73.4097L20.67 73.5112ZM26.7526 73.1429L26.7709 71.4587C27.1222 71.4374 27.3963 71.3968 27.593 71.3368C27.7977 71.2763 27.9401 71.1795 28.0202 71.0464C28.0999 70.9054 28.1322 70.7111 28.1172 70.4635C28.1037 70.2399 28.0555 69.9744 27.9728 69.6668C27.898 69.3587 27.8026 69.0399 27.6864 68.7104C27.5703 68.3808 27.4559 68.0791 27.3431 67.8054L28.9685 67.2502C29.0808 67.5159 29.1957 67.8255 29.3133 68.1791C29.4309 68.5326 29.5332 68.8991 29.6203 69.2785C29.7149 69.6495 29.7728 70.0106 29.7941 70.362C29.8207 70.8012 29.7873 71.1759 29.6939 71.4861C29.6 71.7883 29.4592 72.0453 29.2717 72.257C29.0917 72.4603 28.8693 72.626 28.6045 72.7543C28.3473 72.874 28.0602 72.9635 27.7432 73.0228C27.4262 73.0821 27.096 73.1221 26.7526 73.1429ZM28.0699 66.3068C27.8223 66.3218 27.6056 66.2507 27.4198 66.0937C27.242 65.9361 27.1455 65.7336 27.1305 65.4861C27.1156 65.2385 27.1866 65.0218 27.3436 64.836C27.5087 64.6497 27.715 64.549 27.9625 64.534C28.2021 64.5195 28.411 64.595 28.5894 64.7606C28.7757 64.9256 28.8763 65.1319 28.8913 65.3794C28.9063 65.627 28.831 65.8399 28.6655 66.0183C28.508 66.1961 28.3094 66.2923 28.0699 66.3068ZM31.5089 72.7948L30.7264 64.0421L32.4034 63.9405L33.1858 72.6932L31.5089 72.7948ZM41.5052 72.442L41.7151 70.7462C42.2901 70.7114 42.8393 70.65 43.363 70.5622C43.8946 70.4739 44.3949 70.3314 44.8639 70.1347C45.3409 69.9375 45.781 69.6624 46.1844 69.3094C46.5878 68.9564 46.9445 68.494 47.2545 67.9222L48.6331 68.4518C48.5944 68.6065 48.5634 68.7566 48.5401 68.9023C48.5164 69.04 48.5072 69.1527 48.5125 69.2406C48.5237 69.4242 48.5772 69.5813 48.6733 69.7117C48.7773 69.8417 48.9433 69.9358 49.1713 69.9941C49.3992 70.0525 49.7088 70.0698 50.1001 70.0461C50.4036 70.0277 50.624 70.0945 50.7614 70.2465C50.8984 70.3905 50.9739 70.5783 50.9879 70.8098C51.0029 71.0574 50.9316 71.2701 50.7741 71.4479C50.624 71.6173 50.3933 71.7114 50.0819 71.7303C49.5309 71.7636 49.0472 71.7168 48.6307 71.5897C48.2223 71.4622 47.894 71.2697 47.646 71.0122C47.4055 70.7462 47.2544 70.4348 47.1927 70.0779L47.6748 70.0968C47.4081 70.4576 47.0666 70.7748 46.6504 71.0484C46.2422 71.3216 45.7714 71.5545 45.238 71.7471C44.7127 71.9392 44.1328 72.0905 43.4983 72.201C42.8723 72.3191 42.2079 72.3994 41.5052 72.442ZM41.4932 72.4427C40.6308 72.4949 39.896 72.4713 39.2889 72.3718C38.6903 72.2798 38.196 72.1254 37.8062 71.9086C37.4239 71.6832 37.139 71.412 36.9515 71.0947C36.7639 70.7775 36.6583 70.4232 36.6346 70.0319C36.6192 69.7764 36.6237 69.5197 36.6481 69.2617C36.6801 68.9953 36.7205 68.7364 36.7694 68.485C36.8263 68.2331 36.8766 68.0056 36.9204 67.8026L38.4387 68.0593C38.4155 68.205 38.389 68.3628 38.3592 68.533C38.3294 68.7031 38.3074 68.8687 38.2931 69.0299C38.2783 69.183 38.2748 69.3235 38.2826 69.4513C38.3005 69.7467 38.4202 70.004 38.6419 70.223C38.871 70.4335 39.233 70.5879 39.7278 70.6862C40.2222 70.7765 40.8806 70.7967 41.7031 70.7469L42.021 72.026L41.4932 72.4427ZM43.3897 66.8338C43.1581 66.8478 42.9537 66.7801 42.7763 66.6305C42.6064 66.4725 42.5147 66.2817 42.5012 66.0581C42.4872 65.8265 42.5549 65.622 42.7045 65.4447C42.862 65.2668 43.0566 65.1709 43.2882 65.1569C43.5117 65.1433 43.7085 65.2156 43.8783 65.3736C44.0482 65.5316 44.1401 65.7264 44.1542 65.958C44.1677 66.1816 44.0997 66.3821 43.9501 66.5594C43.8001 66.7288 43.6133 66.8203 43.3897 66.8338ZM41.3168 66.9473C41.0852 66.9613 40.8807 66.8936 40.7034 66.744C40.5335 66.586 40.4418 66.3952 40.4283 66.1716C40.4142 65.94 40.482 65.7355 40.6316 65.5582C40.7891 65.3803 40.9837 65.2844 41.2152 65.2704C41.4388 65.2568 41.6355 65.3291 41.8054 65.4871C41.9753 65.6451 42.0672 65.8399 42.0812 66.0715C42.0948 66.2951 42.0268 66.4956 41.8772 66.6729C41.7272 66.8423 41.5404 66.9338 41.3168 66.9473ZM50.0771 71.7306L50.0961 70.0584C50.408 70.0475 50.6952 70.0261 50.9578 69.9942C51.2203 69.9622 51.4544 69.924 51.6601 69.8795C51.8738 69.8345 52.0593 69.7872 52.2166 69.7376C52.3818 69.6875 52.5194 69.6431 52.6293 69.6044C52.8955 69.5001 53.1207 69.3823 53.3051 69.2509C53.4891 69.1116 53.6281 68.9589 53.7222 68.7929C53.8164 68.6269 53.8579 68.4521 53.8467 68.2684C53.838 68.1247 53.7974 67.9829 53.7248 67.843C53.6597 67.6946 53.5684 67.5759 53.4508 67.4869C53.3332 67.3978 53.1985 67.3579 53.0468 67.3671C52.9031 67.3758 52.774 67.4277 52.6595 67.5228C52.545 67.6179 52.4565 67.7435 52.3938 67.8995C52.3306 68.0476 52.3048 68.2175 52.3165 68.4091C52.3266 68.5768 52.3762 68.7341 52.4652 68.881C52.5538 69.0199 52.6741 69.1529 52.826 69.2799C52.978 69.407 53.1574 69.5244 53.3643 69.632L51.8082 70.3394C51.6224 70.1823 51.4438 70.0128 51.2725 69.8308C51.1091 69.6484 50.9683 69.4405 50.85 69.2072C50.7392 68.9655 50.6746 68.6929 50.6562 68.3894C50.634 68.0221 50.6855 67.6824 50.8109 67.3702C50.9363 67.0581 51.1122 66.787 51.3387 66.5568C51.5647 66.3188 51.8218 66.1309 52.1101 65.9932C52.3983 65.8555 52.6901 65.7777 52.9856 65.7599C53.4647 65.7308 53.8867 65.8175 54.2516 66.0198C54.6165 66.2221 54.9056 66.4972 55.119 66.8449C55.3404 67.1921 55.4639 67.5774 55.4896 68.0006C55.5133 68.3919 55.4627 68.7476 55.3378 69.0677C55.2124 69.3799 55.0332 69.6632 54.8002 69.9178C54.5746 70.1639 54.3195 70.3837 54.0346 70.5773C53.7578 70.7703 53.4753 70.9357 53.1871 71.0734C53.0472 71.146 52.8712 71.2167 52.6589 71.2857C52.4467 71.3547 52.2063 71.4213 51.9377 71.4857C51.6686 71.542 51.3791 71.5916 51.0691 71.6344C50.7591 71.6772 50.4285 71.7093 50.0771 71.7306ZM56.4015 71.3476C55.9384 71.3757 55.4818 71.3793 55.0317 71.3584C54.5816 71.3376 54.162 71.2909 53.7729 71.2182C53.3918 71.1451 53.0574 71.0492 52.7697 70.9304L53.5178 69.5867C53.7613 69.6361 54.0439 69.671 54.3657 69.6916C54.695 69.7037 55.0359 69.7071 55.3882 69.7018C55.7485 69.6961 56.0924 69.6832 56.4198 69.6634C56.7232 69.6451 56.9436 69.7118 57.0811 69.8638C57.226 70.0073 57.3055 70.1949 57.3195 70.4264C57.3345 70.674 57.2632 70.8867 57.1057 71.0645C56.9477 71.2344 56.713 71.3287 56.4015 71.3476ZM52.9301 64.6452C52.6825 64.6602 52.4658 64.5891 52.28 64.4321C52.1022 64.2745 52.0057 64.072 51.9908 63.8244C51.9758 63.5769 52.0468 63.3602 52.2039 63.1744C52.3689 62.9881 52.5752 62.8874 52.8227 62.8724C53.0623 62.8579 53.2712 62.9334 53.4496 63.0989C53.6359 63.264 53.7365 63.4703 53.7515 63.7178C53.7665 63.9654 53.6913 64.1783 53.5257 64.3566C53.3682 64.5345 53.1696 64.6307 52.9301 64.6452ZM56.085 64.2738L55.4386 63.3271C55.8158 63.0719 56.2051 62.8159 56.6063 62.5592C57.007 62.2945 57.4547 62.0109 57.9493 61.7084C58.4514 61.3975 59.0392 61.0453 59.7127 60.6519L60.3275 61.6726C59.6376 62.059 59.0413 62.4037 58.5387 62.7066C58.0441 63.0091 57.6002 63.2884 57.2069 63.5447C56.8212 63.7924 56.4472 64.0355 56.085 64.2738ZM56.4171 71.3467L56.4353 69.6625L58.1122 69.5609C58.3917 69.544 58.6024 69.5152 58.7442 69.4746C58.894 69.4335 58.9949 69.3793 59.0469 69.312C59.0984 69.2367 59.1213 69.1512 59.1155 69.0554C59.1068 68.9116 59.0328 68.7478 58.8934 68.5639C58.762 68.3795 58.5902 68.1895 58.378 67.994C58.1738 67.798 57.9576 67.6027 57.7294 67.4081C57.5007 67.2056 57.281 67.0185 57.0703 66.847C56.8675 66.6749 56.6981 66.5249 56.5622 66.3968C56.4337 66.2604 56.3675 66.1602 56.3636 66.0963C56.3501 65.8727 56.3514 65.6963 56.3676 65.5671C56.3834 65.4299 56.4088 65.3201 56.4439 65.2379C56.487 65.1551 56.5348 65.0841 56.5873 65.0248C56.7148 64.8808 56.9092 64.7168 57.1706 64.5327C57.4315 64.3405 57.7398 64.1375 58.0955 63.9236C58.4587 63.7013 58.8654 63.4683 59.3155 63.2246C59.7651 62.973 60.2421 62.7117 60.7467 62.4407L61.5179 63.8607C61.0049 64.1242 60.5468 64.3683 60.1437 64.5931C59.748 64.8094 59.3916 65.0113 59.0743 65.1988C58.7646 65.3779 58.4863 65.547 58.2395 65.7062C58.0006 65.8649 57.7853 66.0142 57.5934 66.1541L57.6595 65.2604C58.0207 65.5351 58.3491 65.7957 58.6445 66.0423C58.94 66.2889 59.2155 66.5367 59.471 66.7857C59.7265 67.0348 59.9665 67.2927 60.1911 67.5596C60.4236 67.8261 60.6496 68.1169 60.869 68.4323C61.0617 68.7011 61.2539 68.8978 61.4458 69.0225C61.6456 69.1466 61.8349 69.2273 62.0134 69.2646C62.1995 69.2934 62.3644 69.3035 62.5082 69.2948C62.8116 69.2764 63.0321 69.3432 63.1695 69.4952C63.3144 69.6387 63.3939 69.8262 63.4079 70.0578C63.4229 70.3053 63.3517 70.518 63.1941 70.6959C63.0361 70.8657 62.8014 70.9601 62.4899 70.9789C62.2264 70.9949 61.9403 70.9681 61.6315 70.8987C61.3223 70.8212 61.0296 70.6867 60.7535 70.495C60.4774 70.3033 60.2606 70.032 60.1031 69.6808L60.7528 69.6896C60.6485 69.9524 60.5181 70.1807 60.3615 70.3745C60.2124 70.5598 60.0295 70.7152 59.8127 70.8405C59.5954 70.9579 59.3444 71.0492 59.0599 71.1145C58.7753 71.1798 58.4533 71.2234 58.094 71.2451L56.4171 71.3467ZM62.4997 70.9784L62.5179 69.2942C62.7814 69.2782 62.9958 69.2452 63.1611 69.1951C63.3259 69.137 63.4556 69.029 63.5502 68.871C63.6523 68.7045 63.7339 68.4632 63.7949 68.1469C63.8634 67.8222 63.9331 67.3851 64.004 66.8359L65.5786 67.029C65.5619 67.1503 65.5424 67.2917 65.5201 67.4533C65.4979 67.615 65.4798 67.7804 65.466 67.9495C65.4517 68.1107 65.4485 68.2551 65.4562 68.3829C65.4697 68.6065 65.5525 68.7818 65.7044 68.9089C65.8559 69.0279 66.1313 69.0754 66.5306 69.0512C66.7302 69.0391 66.9007 69.0088 67.042 68.9601C67.1908 68.903 67.3125 68.7955 67.4072 68.6375C67.5093 68.471 67.5904 68.2216 67.6504 67.8894C67.7179 67.5487 67.7744 67.0924 67.82 66.5206L69.4163 66.6764C69.3955 66.862 69.3754 67.0596 69.356 67.2692C69.3366 67.4787 69.3203 67.6721 69.307 67.8492C69.2937 68.0263 69.2904 68.1708 69.2972 68.2826C69.3034 68.3864 69.3374 68.4845 69.3991 68.577C69.4683 68.6609 69.5845 68.726 69.7476 68.7722C69.9187 68.818 70.1559 68.8317 70.4594 68.8133C70.675 68.8002 70.8569 68.7612 71.0053 68.6961C71.1616 68.6305 71.2758 68.5314 71.3479 68.3988C71.428 68.2658 71.4618 68.0954 71.4492 67.8878C71.4313 67.5923 71.34 67.2091 71.1753 66.7382C71.0105 66.2673 70.8203 65.7739 70.6047 65.258L72.2632 64.6527C72.4117 64.9883 72.5458 65.3489 72.6653 65.7343C72.7923 66.1114 72.8949 66.4818 72.973 66.8458C73.0587 67.2013 73.1097 67.5147 73.1262 67.7862C73.1508 68.1935 73.1089 68.5607 73.0005 68.8879C72.8916 69.207 72.7279 69.4814 72.5094 69.711C72.2909 69.9407 72.0253 70.121 71.7126 70.2522C71.4 70.3833 71.052 70.4605 70.6687 70.4837C70.2056 70.5117 69.8236 70.4908 69.5228 70.4208C69.2216 70.3429 68.9845 70.201 68.8118 69.995C68.6465 69.7806 68.5283 69.4832 68.4572 69.1028L68.8645 69.0782C68.7253 69.5595 68.5584 69.9142 68.3639 70.1424C68.1688 70.3626 67.9292 70.5093 67.6452 70.5826C67.3691 70.6555 67.0194 70.7047 66.5962 70.7303C66.3326 70.7463 66.0595 70.7348 65.7766 70.6958C65.5012 70.6483 65.249 70.5193 65.0198 70.3088C64.7907 70.0983 64.6099 69.7606 64.4776 69.2957L65.1229 69.2326C64.9838 69.7139 64.7852 70.0746 64.5273 70.3146C64.2773 70.5541 63.9828 70.7202 63.6438 70.8129C63.3043 70.8976 62.9229 70.9527 62.4997 70.9784ZM68.3152 63.1846C68.1156 63.1967 67.9353 63.1315 67.7744 62.9889C67.6215 62.8459 67.5388 62.6706 67.5262 62.463C67.5136 62.2554 67.5748 62.0753 67.7099 61.9229C67.8529 61.77 68.0242 61.6875 68.2239 61.6754C68.4315 61.6628 68.6115 61.724 68.7639 61.8591C68.9164 61.9941 68.9989 62.1654 69.0115 62.373C69.024 62.5807 68.963 62.7647 68.8285 62.9251C68.6939 63.0855 68.5229 63.172 68.3152 63.1846ZM67.4527 64.8237C67.2531 64.8358 67.0728 64.7706 66.9119 64.6281C66.759 64.485 66.6762 64.3097 66.6637 64.1021C66.6511 63.8945 66.7123 63.7145 66.8474 63.562C66.9904 63.4091 67.1617 63.3266 67.3613 63.3145C67.569 63.3019 67.749 63.3632 67.9014 63.4982C68.0539 63.6332 68.1364 63.8045 68.149 64.0122C68.1615 64.2198 68.1005 64.4038 67.966 64.5642C67.8314 64.7247 67.6604 64.8112 67.4527 64.8237ZM69.3093 64.7113C69.1097 64.7234 68.9294 64.6582 68.7685 64.5156C68.6156 64.3726 68.5328 64.1973 68.5203 63.9897C68.5077 63.7821 68.5689 63.602 68.704 63.4496C68.847 63.2967 69.0183 63.2142 69.2179 63.2021C69.4256 63.1895 69.6056 63.2507 69.758 63.3858C69.9105 63.5208 69.993 63.6921 70.0056 63.8997C70.0181 64.1074 69.9571 64.2914 69.8226 64.4518C69.688 64.6122 69.517 64.6987 69.3093 64.7113ZM76.7421 69.7192C76.731 69.5356 76.7339 69.319 76.7508 69.0695C76.7678 68.82 76.8107 68.5369 76.8797 68.2202C76.9482 67.8954 77.0585 67.5321 77.2104 67.1302L78.7149 67.556C78.6421 67.8089 78.58 68.0411 78.5287 68.2526C78.4769 68.4561 78.4403 68.6466 78.419 68.8242C78.3973 68.9939 78.3914 69.1625 78.4016 69.3302C78.4161 69.5698 78.4815 69.7902 78.5979 69.9916C78.7143 70.1929 78.8809 70.3631 79.0977 70.5023C79.315 70.6494 79.578 70.7577 79.8868 70.8272C80.2035 70.8962 80.5655 70.9183 80.9728 70.8937C81.4359 70.8656 81.8405 70.797 82.1866 70.6879C82.5411 70.5863 82.834 70.4604 83.0653 70.3101C83.3052 70.1674 83.4846 70.0203 83.6037 69.8688C83.7227 69.7173 83.7786 69.5817 83.7714 69.4619C83.7656 69.3661 83.6926 69.2863 83.5525 69.2227C83.4204 69.1586 83.2444 69.0971 83.0244 69.0383C82.8119 68.971 82.583 68.8967 82.3377 68.8154C82.1003 68.7336 81.8695 68.6273 81.6451 68.4966C81.4288 68.3655 81.2465 68.2002 81.0982 68.0008C80.9578 67.8009 80.8787 67.5532 80.8608 67.2578C80.8425 66.9543 80.9022 66.6181 81.0402 66.2491C81.1777 65.8721 81.3842 65.511 81.6598 65.1657C81.935 64.8124 82.2699 64.5196 82.6646 64.2873C83.0668 64.0466 83.5154 63.9112 84.0105 63.8812C84.3619 63.86 84.6847 63.8965 84.9789 63.9909C85.2811 64.0848 85.5364 64.1976 85.7448 64.3292L85.2068 65.7684C85.0323 65.6667 84.8475 65.5938 84.6525 65.5495C84.457 65.4972 84.2714 65.4764 84.0957 65.487C83.8721 65.5006 83.6592 65.5575 83.4569 65.658C83.2626 65.7579 83.0899 65.8845 82.9389 66.038C82.7954 66.1829 82.6846 66.3379 82.6064 66.5029C82.5282 66.6679 82.4935 66.8223 82.5022 66.966C82.5109 67.1098 82.5865 67.2334 82.729 67.337C82.8791 67.4321 83.0688 67.5208 83.2982 67.6031C83.5271 67.6774 83.7682 67.755 84.0215 67.8358C84.2749 67.9166 84.517 68.0102 84.7478 68.1164C84.9787 68.2227 85.1671 68.3555 85.313 68.515C85.4668 68.674 85.551 68.8733 85.5656 69.1128C85.5863 69.4562 85.5001 69.8181 85.3067 70.1984C85.1218 70.5863 84.8314 70.9526 84.4355 71.2971C84.0396 71.6417 83.544 71.9281 82.9487 72.1565C82.3619 72.3924 81.6732 72.5343 80.8827 72.5822C80.3077 72.617 79.7766 72.581 79.2892 72.4743C78.8024 72.3756 78.3713 72.2053 77.996 71.9635C77.6292 71.7293 77.3341 71.4226 77.1108 71.0434C76.8959 70.6717 76.773 70.2303 76.7421 69.7192ZM90.0891 69.3078C89.3464 69.3527 88.7669 69.3117 88.3505 69.1846C87.942 69.0571 87.6482 68.8384 87.4692 68.5287C87.2897 68.211 87.1729 67.8053 87.119 67.3116L86.4642 60.6671L88.1411 60.5655L88.7473 66.4076C88.7855 66.7739 88.8422 67.047 88.9172 67.2268C88.9922 67.4066 89.1194 67.5231 89.299 67.5764C89.4865 67.6291 89.756 67.6449 90.1073 67.6236C90.4108 67.6052 90.6312 67.672 90.7686 67.824C90.9136 67.9675 90.9931 68.155 91.0071 68.3866C91.0221 68.6341 90.9508 68.8468 90.7933 69.0247C90.6352 69.1946 90.4005 69.2889 90.0891 69.3078ZM94.9826 69.0475C94.6233 69.0693 94.2493 69.0478 93.8607 68.9832C93.48 68.9181 93.1087 68.8083 92.7467 68.6539C92.3847 68.4995 92.056 68.299 91.7606 68.0524C91.4651 67.8059 91.2232 67.5159 91.0347 67.1827C90.8537 66.841 90.7499 66.4506 90.7233 66.0114C90.7016 65.6521 90.7573 65.3161 90.8907 65.0034C91.024 64.6908 91.2329 64.4337 91.5172 64.2322C91.8091 64.0221 92.1706 63.9041 92.6018 63.878C93.0091 63.8533 93.3665 63.9319 93.674 64.1136C93.989 64.2869 94.2398 64.5241 94.4264 64.8254C94.6125 65.1187 94.7157 65.433 94.736 65.7684C94.7684 66.3035 94.6651 66.7826 94.4263 67.2058C94.1869 67.621 93.8439 67.9784 93.3972 68.2779C92.9585 68.577 92.456 68.8158 91.8897 68.9944C91.323 69.1649 90.7282 69.2691 90.1054 69.3068L90.1236 67.6226C90.5788 67.595 90.9733 67.5591 91.3072 67.5149C91.6492 67.4701 91.9415 67.4003 92.1842 67.3055C92.4269 67.2106 92.6353 67.0778 92.8093 66.907C92.9832 66.7361 93.1124 66.552 93.1966 66.3545C93.2883 66.1486 93.3284 65.9498 93.3167 65.7582C93.309 65.6304 93.2818 65.5119 93.2351 65.4025C93.1964 65.2926 93.1349 65.2042 93.0507 65.1371C92.974 65.0616 92.8758 65.0275 92.756 65.0348C92.6282 65.0425 92.5228 65.089 92.4398 65.1741C92.3643 65.2508 92.3063 65.3505 92.2656 65.4732C92.2329 65.5954 92.2207 65.7244 92.2289 65.8601C92.2458 66.1396 92.3329 66.3868 92.4902 66.6017C92.6555 66.8161 92.8665 66.9917 93.1232 67.1284C93.3799 67.2651 93.6585 67.3645 93.9588 67.4264C94.267 67.4879 94.5769 67.5092 94.8883 67.4904C95.1359 67.4754 95.3091 67.4248 95.4081 67.3387C95.5071 67.2525 95.5525 67.1416 95.5442 67.0058C95.5384 66.91 95.5084 66.8117 95.4542 66.7107C95.4075 66.6014 95.3075 66.4712 95.1541 66.3202C95.0007 66.1692 94.7692 65.9868 94.4597 65.7731C94.1498 65.5515 93.7366 65.2799 93.2202 64.9586C92.7039 64.6372 92.0551 64.2477 91.2741 63.7901L92.1173 62.4286C93 62.9763 93.7384 63.4565 94.3324 63.8694C94.9345 64.2817 95.4213 64.645 95.793 64.9591C96.1646 65.2732 96.45 65.5524 96.6492 65.7969C96.8558 66.0328 96.9974 66.2526 97.0738 66.4564C97.1503 66.6601 97.1948 66.8658 97.2074 67.0734C97.2306 67.4567 97.1586 67.7897 96.9913 68.0723C96.8241 68.355 96.5694 68.5828 96.2272 68.7558C95.8926 68.9203 95.4777 69.0175 94.9826 69.0475ZM102.106 62.0762C102.09 61.8127 102.058 61.5502 102.01 61.2886C101.97 61.0265 101.923 60.7809 101.869 60.5518C101.815 60.3146 101.766 60.1092 101.724 59.9354L103.386 59.5943C103.428 59.7521 103.472 59.9618 103.52 60.2234C103.568 60.4849 103.613 60.7627 103.655 61.0567C103.696 61.3428 103.725 61.6175 103.741 61.8811C103.766 62.2963 103.754 62.6898 103.704 63.0614C103.655 63.4331 103.568 63.787 103.444 64.1231C103.32 64.4512 103.158 64.7695 102.961 65.0781L102.763 65.3786C102.57 65.6467 102.342 65.913 102.078 66.1774C101.821 66.4414 101.536 66.6991 101.223 66.9505L102.001 66.9034C102.273 66.8869 102.479 66.8584 102.621 66.8178C102.763 66.7771 102.856 66.7274 102.901 66.6686C102.953 66.6013 102.976 66.5278 102.972 66.4479C102.963 66.3042 102.826 66.1001 102.562 65.8356C102.297 65.5631 101.934 65.2565 101.472 64.9157C101.01 64.567 100.471 64.2029 99.8553 63.8235C99.2467 63.4355 98.5902 63.0505 97.8859 62.6684L98.6826 61.3338C99.6602 61.8597 100.487 62.3466 101.163 62.7945C101.848 63.242 102.41 63.6528 102.849 64.0269C103.296 64.4005 103.646 64.744 103.897 65.0574C104.149 65.3708 104.326 65.6566 104.43 65.9148C104.533 66.165 104.591 66.3939 104.604 66.6015C104.618 66.8331 104.595 67.0589 104.537 67.2788C104.477 67.4908 104.373 67.6855 104.223 67.8628C104.073 68.0322 103.873 68.1726 103.624 68.2838C103.374 68.3951 103.061 68.4622 102.686 68.4849L99.1646 68.6981L99.0674 67.0931C99.8542 66.4523 100.471 65.854 100.918 65.2979C101.374 64.7414 101.693 64.2011 101.878 63.6769C102.063 63.1528 102.139 62.6193 102.106 62.0762ZM109.144 68.154C108.401 68.1989 107.822 68.1579 107.405 68.0308C106.997 67.9033 106.703 67.6846 106.524 67.3749C106.345 67.0572 106.228 66.6515 106.174 66.1578L105.519 59.5133L107.196 59.4117L107.802 65.2538C107.84 65.6201 107.897 65.8932 107.972 66.073C108.047 66.2528 108.174 66.3693 108.354 66.4225C108.541 66.4753 108.811 66.4911 109.162 66.4698C109.466 66.4514 109.686 66.5182 109.824 66.6702C109.969 66.8137 110.048 67.0012 110.062 67.2328C110.077 67.4803 110.006 67.693 109.848 67.8709C109.69 68.0407 109.455 68.1351 109.144 68.154ZM109.16 68.153L109.179 66.4688L110.891 66.3651C111.059 66.3549 111.206 66.338 111.333 66.3143C111.459 66.2826 111.561 66.2404 111.638 66.1876C111.723 66.1344 111.783 66.0706 111.819 65.9963C111.854 65.9221 111.869 65.837 111.863 65.7412C111.858 65.6454 111.797 65.4968 111.68 65.2954C111.571 65.0856 111.344 64.8389 110.998 64.5553C110.813 64.4062 110.611 64.2502 110.393 64.087C110.182 63.9155 109.98 63.7554 109.787 63.6068C109.593 63.4502 109.432 63.3117 109.305 63.1912C109.177 63.0707 109.112 62.9825 109.108 62.9266C109.101 62.8068 109.101 62.6745 109.108 62.5298C109.116 62.3851 109.132 62.2519 109.156 62.1302C109.189 62.008 109.236 61.917 109.296 61.8573C109.424 61.7213 109.615 61.5615 109.868 61.3778C110.129 61.1857 110.441 60.9785 110.804 60.7561C111.167 60.5257 111.573 60.2848 112.023 60.0331C112.48 59.773 112.969 59.511 113.49 59.247L114.261 60.667C113.834 60.8852 113.43 61.098 113.05 61.3054C112.669 61.5048 112.312 61.7027 111.979 61.8991C111.654 62.0871 111.353 62.2737 111.076 62.4588C110.806 62.6354 110.568 62.8101 110.362 62.9829L110.464 62.0871C111.174 62.565 111.742 62.9995 112.166 63.3906C112.598 63.7812 112.924 64.1341 113.144 64.4494C113.363 64.7568 113.512 65.0363 113.591 65.2879C113.67 65.5316 113.715 65.7493 113.727 65.9409C113.739 66.1326 113.703 66.3431 113.621 66.5725C113.546 66.7934 113.395 67.0109 113.168 67.2251C112.948 67.4387 112.631 67.6223 112.215 67.7757C111.8 67.929 111.26 68.0258 110.598 68.0659L109.16 68.153ZM123.833 67.2645C123.266 67.2989 122.77 67.2567 122.346 67.1381C121.93 67.0111 121.6 66.7906 121.357 66.4768C121.113 66.1549 120.958 65.7155 120.892 65.1584L120.384 60.3443L122.073 60.242L122.533 64.47C122.569 64.7964 122.636 65.0448 122.735 65.2151C122.841 65.377 122.984 65.4846 123.163 65.5378C123.342 65.5831 123.572 65.5973 123.851 65.5804C124.154 65.562 124.375 65.6288 124.512 65.7807C124.649 65.9247 124.725 66.1125 124.739 66.3441C124.754 66.5916 124.683 66.8043 124.525 66.9822C124.375 67.1516 124.144 67.2457 123.833 67.2645ZM121.573 66.2833C121.046 66.4355 120.534 66.5226 120.038 66.5446C119.542 66.5586 119.094 66.4976 118.693 66.3615C118.291 66.2175 117.965 65.9968 117.715 65.6994C117.473 65.4015 117.337 65.013 117.308 64.5339C117.282 64.1107 117.351 63.7218 117.514 63.3673C117.684 63.0044 117.929 62.681 118.248 62.3972C118.576 62.1129 118.962 61.8651 119.406 61.6539C119.85 61.4426 120.336 61.2729 120.865 61.1447L121.136 62.8354C120.794 62.8722 120.485 62.939 120.211 63.0357C119.943 63.124 119.714 63.2341 119.521 63.366C119.337 63.4974 119.197 63.6421 119.103 63.8001C119.008 63.9501 118.965 64.109 118.975 64.2767C118.984 64.4124 119.038 64.5213 119.139 64.6033C119.24 64.6854 119.373 64.7495 119.536 64.7957C119.698 64.834 119.884 64.8508 120.092 64.8462C120.3 64.8416 120.511 64.8168 120.724 64.7718C120.946 64.7264 121.163 64.6612 121.374 64.5762L121.573 66.2833ZM123.829 67.2648L123.847 65.5806C124.198 65.5593 124.472 65.5187 124.669 65.4587C124.874 65.3982 125.016 65.3014 125.096 65.1683C125.176 65.0273 125.208 64.8329 125.193 64.5854C125.18 64.3618 125.132 64.0962 125.049 63.7887C124.974 63.4806 124.879 63.1618 124.763 62.8322C124.646 62.5026 124.532 62.201 124.419 61.9273L126.045 61.3721C126.157 61.6378 126.272 61.9474 126.389 62.3009C126.507 62.6545 126.609 63.021 126.696 63.4004C126.791 63.7713 126.849 64.1325 126.87 64.4839C126.897 64.9231 126.863 65.2978 126.77 65.608C126.676 65.9102 126.535 66.1672 126.348 66.3789C126.168 66.5822 125.945 66.7479 125.681 66.8761C125.423 66.9959 125.136 67.0854 124.819 67.1447C124.502 67.204 124.172 67.244 123.829 67.2648ZM125.469 69.9305C125.237 69.9445 125.033 69.8768 124.855 69.7272C124.686 69.5772 124.594 69.3864 124.58 69.1548C124.566 68.9232 124.634 68.7148 124.783 68.5294C124.94 68.3516 125.135 68.2556 125.367 68.2416C125.598 68.2276 125.799 68.2996 125.969 68.4576C126.147 68.6231 126.243 68.8217 126.257 69.0533C126.271 69.2848 126.199 69.4856 126.041 69.6554C125.891 69.8248 125.7 69.9165 125.469 69.9305Z" fill="white"/>
<defs>
<filter id="filter0_d_10265_555875" x="166.117" y="54" width="142.646" height="51.8804" filterUnits="userSpaceOnUse" color-interpolation-filters="sRGB">
<feFlood flood-opacity="0" result="BackgroundImageFix"/>
<feColorMatrix in="SourceAlpha" type="matrix" values="0 0 0 0 0 0 0 0 0 0 0 0 0 0 0 0 0 0 127 0" result="hardAlpha"/>
<feOffset/>
<feGaussianBlur stdDeviation="2"/>
<feComposite in2="hardAlpha" operator="out"/>
<feColorMatrix type="matrix" values="0 0 0 0 0 0 0 0 0 0 0 0 0 0 0 0 0 0 0.25 0"/>
<feBlend mode="normal" in2="BackgroundImageFix" result="effect1_dropShadow_10265_555875"/>
<feBlend mode="normal" in="SourceGraphic" in2="effect1_dropShadow_10265_555875" result="shape"/>
</filter>
</defs>
</svg>