<svg xmlns:xlink="http://www.w3.org/1999/xlink" xmlns="http://www.w3.org/2000/svg" width="461" height="83" viewBox="0 0 461 83" fill="none">
<path d="M260.164 17.2214C260.181 18.2672 259.356 19.126 258.31 19.143C257.273 19.16 256.414 18.3352 256.389 17.2895C256.372 16.2522 257.205 15.3934 258.242 15.3679C259.288 15.3509 260.147 16.1842 260.164 17.2214Z" fill="#54AF70"/>
<g style="mix-blend-mode:multiply">
<path d="M0.879061 51.3918L0.000976562 31.8127L202.452 24.5493L203.957 58.0326L21.7858 64.5661C10.653 64.9669 1.21357 59.0201 0.879061 51.3918Z" fill="#E5E5E5"/>
</g>
<path d="M5.87515 47.8496L4.99707 28.2706L207.448 21L208.953 54.4904L26.7819 61.024C15.6491 61.4247 6.22012 55.478 5.87515 47.8496Z" fill="#54AF70"/>
<g style="mix-blend-mode:multiply">
<path d="M280.051 28.5707L279.957 26.5548L325.727 24.5424L325.812 26.5582L280.051 28.5707Z" fill="#E5E5E5"/>
</g>
<g style="mix-blend-mode:multiply">
<path d="M139.2 63.5169L139.098 61.4933L195.247 58.5515L195.357 60.5666L139.2 63.5169Z" fill="#E5E5E5"/>
</g>
<g style="mix-blend-mode:multiply">
<path d="M85.4924 72.8779L85.3818 70.8543L138.989 68.0486L139.099 70.0636L85.4924 72.8779Z" fill="#E5E5E5"/>
</g>
<g style="mix-blend-mode:multiply">
<path d="M92.8085 21.6945L92.7396 19.6781L128.713 18.3905L128.791 20.4071L92.8085 21.6945Z" fill="#E5E5E5"/>
</g>
<g style="mix-blend-mode:multiply">
<path d="M357.863 78.6103L357.793 76.5878L423.864 74.2551L423.934 76.2777L357.863 78.6103Z" fill="#E5E5E5"/>
</g>
<path d="M279.13 27.1887L279.024 25.3616L326.29 23.3983L326.387 25.2253L279.13 27.1887Z" fill="#88217F"/>
<path d="M138.018 62.6155L137.916 60.6005L194.074 57.6587L194.176 59.6737L138.018 62.6155Z" fill="#88217F"/>
<path d="M84.3078 71.9761L84.1973 69.961L137.804 67.1553L137.915 69.1703L84.3078 71.9761Z" fill="#54AF70"/>
<path d="M91.6469 20.782L91.5695 18.7654L127.552 17.4695L127.621 19.4944L91.6469 20.782Z" fill="#54AF70"/>
<path d="M356.287 77.7051L356.215 75.691L422.286 73.3584L422.357 75.3725L356.287 77.7051Z" fill="#54AF70"/>
<g style="mix-blend-mode:multiply">
<path d="M437.759 66.4757L219.622 72.8901L214.691 38.9003L458.717 31.8081L460.932 53.0183C461.943 60.0375 451.492 66.1096 437.759 66.4757Z" fill="#E5E5E5"/>
</g>
<g filter="url(#filter0_d_10264_557388)">
<path d="M432.053 63.6582L213.931 70.0726L209.001 36.0829L453.24 29L455.227 50.2008C456.253 57.212 445.786 63.2922 432.053 63.6582Z" fill="#88217F"/>
</g>
<path d="M232.692 43.5098C233.8 55.2511 225.152 65.707 213.411 66.8144C208.626 67.2651 204.046 66.0966 200.234 63.7539C194.697 60.3539 190.769 54.4888 190.112 47.533C188.999 35.7917 197.652 25.3413 209.388 24.2284C218.364 23.3826 226.594 28.2405 230.461 35.8195C231.652 38.1566 232.431 40.7497 232.692 43.5098Z" fill="white"/>
<path d="M209.02 20.3164C207.746 20.4388 206.483 20.322 205.27 19.9714C201.998 19.0366 199.427 16.5492 198.375 13.3217L198.27 12.9989L200.078 12.8264L200.15 13.0268C201.002 15.3917 202.927 17.2948 205.309 18.124C206.45 18.519 207.64 18.6637 208.853 18.5524C210.061 18.4356 211.207 18.0739 212.253 17.4673C215.097 15.8258 216.738 12.6539 216.427 9.39307C216.282 7.81272 215.687 6.31027 214.713 5.05267L214.579 4.88017L215.731 3.48901L215.943 3.74499C217.228 5.31421 218.007 7.20618 218.196 9.22613C218.586 13.3606 216.355 17.4006 212.637 19.2758C211.508 19.8434 210.289 20.194 209.02 20.3164Z" fill="black"/>
<path d="M198.447 13.5335L198.374 13.322C198.146 12.6153 197.996 11.8808 197.924 11.1407C197.395 5.55379 201.513 0.573462 207.1 0.044823C210.477 -0.27236 213.783 1.10766 215.942 3.74529L216.087 3.9178L214.924 5.32564L214.712 5.05298C212.931 2.75479 210.149 1.54171 207.267 1.81437C202.654 2.24841 199.254 6.36066 199.693 10.9737C199.76 11.6749 199.91 12.3649 200.149 13.0271L200.272 13.361L198.447 13.5335Z" fill="#373B47"/>
<g style="mix-blend-mode:multiply">
<path d="M209.02 20.3166C207.746 20.4391 206.483 20.3222 205.27 19.9716L205.086 19.9216L204.902 17.9851L205.309 18.1242C206.449 18.5193 207.64 18.664 208.853 18.5527C210.061 18.4358 211.207 18.0741 212.253 17.4676L212.62 17.2561L212.804 19.1926L212.637 19.2761C211.508 19.8436 210.289 20.1942 209.02 20.3166Z" fill="#EEEEEE"/>
</g>
<path d="M229.264 22.4591L228.273 23.8947L227.444 25.0911C226.965 25.7811 226.019 25.9536 225.324 25.4751L223.549 24.2509C222.853 23.7723 222.681 22.8208 223.159 22.1252L223.827 21.1569L224.979 19.4987C225.457 18.8031 226.409 18.6306 227.099 19.1092L228.874 20.3334C229.57 20.8119 229.742 21.7635 229.264 22.4591Z" fill="#373B47"/>
<path d="M211.68 19.7884L206.305 20.3003L205.698 13.8565L211.068 13.3501L211.68 19.7884Z" fill="#373B47"/>
<path d="M211.375 16.5553L205.838 15.3033L205.699 13.8565L211.069 13.3501L211.375 16.5553Z" fill="black"/>
<path d="M213.255 11.2857L213.367 12.4264C213.444 13.2945 212.81 14.0624 211.942 14.1459L204.992 14.8025C204.124 14.8804 203.356 14.2461 203.272 13.378L203.167 12.2428C203.083 11.3747 203.717 10.6068 204.586 10.5233L211.541 9.8667C212.404 9.78323 213.172 10.4232 213.255 11.2857Z" fill="#373B47"/>
<path d="M213.206 10.9511C211.909 11.6411 210.184 12.1531 208.264 12.3311C206.344 12.5148 204.558 12.3367 203.15 11.8971C203.212 11.1904 203.863 10.5894 204.714 10.5115L211.408 9.87712C212.26 9.79922 213.016 10.2666 213.206 10.9511Z" fill="black"/>
<path d="M209.865 10.9627C209.848 10.8459 209.965 10.7346 210.099 10.7235C210.143 10.7198 210.189 10.716 210.238 10.7123C210.572 10.679 210.905 10.6474 211.239 10.6177C211.378 10.601 211.495 10.6901 211.512 10.8069C211.529 10.9238 211.412 11.0351 211.278 11.0462C211.23 11.0499 211.184 11.0536 211.139 11.0573C210.805 11.0907 210.471 11.1223 210.138 11.1519C209.998 11.1686 209.882 11.0796 209.865 10.9627Z" fill="#373B47"/>
<path d="M205.018 11.2021C205.185 11.1872 205.352 11.1724 205.519 11.1576C206.68 11.0463 207.841 10.9368 209.003 10.8292C209.325 10.7959 209.364 11.2243 209.042 11.2577C208.875 11.2726 208.708 11.2874 208.541 11.3022C207.38 11.4135 206.218 11.5248 205.057 11.6361C204.735 11.6639 204.696 11.2355 205.018 11.2021Z" fill="#373B47"/>
<path d="M194.668 49.3083C195.286 55.8467 198.33 61.5894 202.826 65.7183C195.659 62.6633 190.334 55.8745 189.549 47.5888C188.414 35.5358 197.289 24.8128 209.337 23.6776L209.409 23.6665C199.838 28.1015 193.622 38.2235 194.668 49.3083Z" fill="#E5E5E5"/>
<g style="mix-blend-mode:multiply">
<path d="M228.273 23.8953L227.444 25.0917C226.965 25.7817 226.019 25.9542 225.324 25.4756L223.549 24.2514C222.853 23.7728 222.681 22.8213 223.159 22.1257L223.827 21.1575C225.396 21.9254 226.882 22.8436 228.273 23.8953Z" fill="#E1E1E1"/>
</g>
<path d="M189.516 24.0506L191.029 22.5148C191.619 21.9138 192.587 21.9082 193.188 22.5037L194.624 23.9171L195.464 24.7462C196.065 25.336 196.071 26.3043 195.481 26.9053L193.967 28.4411C193.372 29.0421 192.409 29.0476 191.808 28.4578L190.773 27.4395L189.532 26.2097C188.931 25.6198 188.92 24.6516 189.516 24.0506Z" fill="#373B47"/>
<path d="M209.36 23.2493L211.357 45.9306L194.341 31.9189C197.574 26.2319 205.253 23.7834 209.36 23.2493Z" fill="#88217F"/>
<path d="M227.085 39.3977L207.575 46.9211L227.085 39.3977Z" fill="white"/>
<path d="M227.392 40.1997C226.59 40.5076 225.789 40.8173 224.988 41.129C221.489 42.4756 217.991 43.8241 214.493 45.1744C212.289 46.024 210.086 46.8735 207.882 47.723C206.853 48.1181 206.246 46.5155 207.276 46.1204C208.077 45.8125 208.878 45.5027 209.679 45.1911C213.174 43.8445 216.67 42.496 220.169 41.1456C222.372 40.2961 224.578 39.4466 226.785 38.5971C227.815 38.202 228.421 39.8046 227.392 40.1997Z" fill="black"/>
<g style="mix-blend-mode:multiply">
<path d="M194.625 23.917L195.465 24.7461C196.066 25.336 196.072 26.3042 195.482 26.9052L193.968 28.441C193.373 29.042 192.41 29.0476 191.809 28.4577L190.774 27.4394C191.943 26.1484 193.228 24.9687 194.625 23.917Z" fill="#E1E1E1"/>
</g>
<path d="M185.052 47.895L185.035 47.7336C184.451 40.7612 186.605 33.9557 191.106 28.5635C195.614 23.177 201.935 19.8438 208.908 19.1816C219.514 18.18 229.636 23.5999 234.7 32.993L234.778 33.1377L232.184 36.9494L231.984 36.4931C228.089 27.5953 218.963 22.231 209.286 23.1492C196.949 24.3122 187.862 35.2967 189.025 47.639C189.081 48.1955 189.153 48.7575 189.242 49.3029L189.331 49.8092L185.052 47.895Z" fill="#373B47"/>
<path d="M213.888 71.8618C199.364 73.2307 186.432 62.5355 185.058 48.0118C185.05 47.9154 185.043 47.8226 185.035 47.7336L185.002 47.2717L189.22 49.1582L189.242 49.3028C190.188 54.8841 193.188 59.8645 197.689 63.3257C202.208 66.8091 207.828 68.434 213.515 67.8942C225.852 66.7312 234.939 55.7467 233.776 43.4099C233.548 41.006 232.947 38.68 231.984 36.4931L231.923 36.354L234.483 32.5923L234.7 32.9929C236.38 36.1091 237.404 39.4868 237.738 43.0315C239.112 57.5552 228.412 70.4873 213.888 71.8618Z" fill="black"/>
<path d="M231.631 34.8737L230.518 35.7641C226.65 28.1851 218.42 23.3272 209.444 24.173C197.709 25.2859 189.056 35.7363 190.169 47.4776C190.825 54.4334 194.754 60.2985 200.291 63.6985L199.144 64.6333C193.463 60.9829 189.456 54.8563 188.772 47.6112C187.592 35.0796 196.79 23.9671 209.311 22.7818C218.793 21.8859 227.463 26.933 231.631 34.8737Z" fill="black"/>
<path d="M234.039 43.4323C235.208 55.9583 225.993 67.0597 213.461 68.2283C208.18 68.718 203.15 67.3658 199.01 64.6947L200.162 63.7599C203.973 66.1082 208.542 67.2823 213.333 66.8371C225.074 65.7465 233.739 55.3017 232.648 43.5603C232.392 40.8003 231.613 38.2072 230.428 35.87L231.541 34.9741C232.882 37.5338 233.755 40.3829 234.039 43.4323Z" fill="#373B47"/>
<g opacity="0.1">
<path d="M218.791 22.1359C218.752 22.442 218.385 22.7258 218.073 22.6367C216.771 22.2639 215.436 21.9968 214.089 21.8354C213.744 21.7965 213.544 21.4348 213.588 21.1232C213.633 20.7782 213.983 20.5834 214.3 20.6224C215.653 20.7782 216.983 21.0453 218.29 21.4237C218.624 21.5183 218.836 21.7742 218.791 22.1359Z" fill="#E8E6FC"/>
<path d="M207.283 21.4737C207.316 21.8298 207.055 22.0802 206.727 22.147C204.818 22.5254 202.954 23.1486 201.195 23.9777C198.151 25.419 195.43 27.5224 193.255 30.0877C191.09 32.6363 189.454 35.63 188.519 38.8408C188.425 39.1636 188.157 39.4084 187.801 39.3416C187.495 39.2916 187.206 38.9465 187.3 38.6294C187.868 36.6873 188.647 34.812 189.66 33.0592C191.435 29.9875 193.839 27.2998 196.71 25.2131C199.659 23.0763 203.043 21.6239 206.61 20.9172C206.938 20.8504 207.255 21.1676 207.283 21.4737Z" fill="#E8E6FC"/>
</g>
<path d="M209.787 28.458C209.537 28.4914 209.303 28.28 209.281 28.0351C209.27 27.9387 209.26 27.8422 209.253 27.7458C209.186 27.052 209.119 26.3583 209.053 25.6646C209.03 25.4031 209.225 25.1916 209.475 25.1527C209.726 25.1193 209.96 25.3307 209.982 25.5756C209.993 25.672 210.002 25.7703 210.01 25.8705C210.076 26.5642 210.143 27.2579 210.21 27.9517C210.232 28.2076 210.037 28.4247 209.787 28.458Z" fill="black"/>
<path d="M198.137 35.0411C197.987 35.2414 197.669 35.2581 197.48 35.1023C197.406 35.0392 197.33 34.9761 197.252 34.9131C196.718 34.4716 196.182 34.0283 195.644 33.5831C195.444 33.4162 195.432 33.1268 195.583 32.9265C195.733 32.7262 196.05 32.7095 196.239 32.8653C196.317 32.9284 196.393 32.9914 196.468 33.0545C197.005 33.4959 197.541 33.9393 198.076 34.3844C198.276 34.5514 198.293 34.8407 198.137 35.0411Z" fill="black"/>
<path d="M194.336 47.1329C194.375 47.3833 194.158 47.6226 193.918 47.6448C193.818 47.6523 193.72 47.6615 193.623 47.6727C192.93 47.7357 192.236 47.8006 191.542 47.8674C191.281 47.8897 191.069 47.6949 191.036 47.4445C190.997 47.1997 191.214 46.9604 191.453 46.9381C191.553 46.9307 191.652 46.9214 191.748 46.9103C192.442 46.8435 193.136 46.7786 193.829 46.7155C194.091 46.6877 194.302 46.8825 194.336 47.1329Z" fill="black"/>
<path d="M200.473 58.7291C200.673 58.8793 200.69 59.1965 200.534 59.3857C200.471 59.4599 200.408 59.5359 200.345 59.6138C199.903 60.1517 199.46 60.6878 199.015 61.222C198.848 61.4223 198.558 61.439 198.358 61.2832C198.158 61.133 198.141 60.8158 198.297 60.6266C198.36 60.5524 198.423 60.4763 198.486 60.3984C198.931 59.8605 199.375 59.3245 199.816 58.7903C199.983 58.5899 200.272 58.5732 200.473 58.7291Z" fill="black"/>
<path d="M213.014 62.5858C213.258 62.5524 213.498 62.7638 213.52 63.0087C213.527 63.1051 213.537 63.2016 213.548 63.298C213.615 63.9917 213.679 64.6855 213.743 65.3792C213.77 65.6407 213.576 65.8522 213.325 65.8911C213.075 65.9245 212.835 65.7131 212.813 65.4682C212.806 65.3718 212.797 65.2735 212.785 65.1733C212.722 64.4796 212.657 63.7859 212.591 63.0921C212.568 62.8362 212.758 62.6191 213.014 62.5858Z" fill="black"/>
<path d="M224.605 56.4482C224.755 56.2479 225.073 56.2312 225.262 56.387C225.34 56.4501 225.416 56.5131 225.49 56.5762C226.028 57.0177 226.564 57.461 227.098 57.9062C227.298 58.0731 227.315 58.3625 227.159 58.5628C227.009 58.7631 226.692 58.7798 226.503 58.624C226.429 58.5609 226.352 58.4979 226.275 58.4348C225.74 57.9933 225.204 57.55 224.666 57.1049C224.466 56.9379 224.455 56.6486 224.605 56.4482Z" fill="black"/>
<path d="M228.463 43.9108C228.43 43.6604 228.642 43.4211 228.886 43.3989C228.983 43.3915 229.081 43.3822 229.181 43.3711C229.875 43.308 230.567 43.2431 231.257 43.1763C231.518 43.154 231.735 43.3488 231.769 43.5992C231.802 43.844 231.591 44.0833 231.346 44.1056C231.249 44.113 231.151 44.1223 231.051 44.1334C230.357 44.2002 229.665 44.2651 228.975 44.3282C228.714 44.356 228.502 44.1612 228.463 43.9108Z" fill="black"/>
<path d="M222.323 32.3137C222.123 32.1635 222.106 31.8463 222.262 31.6571C222.325 31.5829 222.388 31.5069 222.451 31.429C222.896 30.891 223.339 30.355 223.781 29.8208C223.948 29.6205 224.237 29.6038 224.438 29.7596C224.638 29.9098 224.655 30.227 224.499 30.4162C224.436 30.4904 224.373 30.5664 224.31 30.6443C223.868 31.1823 223.425 31.7183 222.98 32.2525C222.813 32.4528 222.523 32.4695 222.323 32.3137Z" fill="black"/>
<path d="M214.397 45.2405C214.553 46.8932 213.34 48.3622 211.687 48.518C210.029 48.6739 208.56 47.4608 208.404 45.8025C208.248 44.1498 209.467 42.6808 211.12 42.525C212.772 42.3691 214.241 43.5822 214.397 45.2405Z" fill="white"/>
<path d="M214.823 45.1963C214.951 46.8101 213.944 48.3793 212.364 48.8189C210.978 49.2084 209.481 48.7132 208.624 47.5502C207.767 46.3816 207.762 44.779 208.563 43.5826C209.359 42.3973 210.906 41.8186 212.286 42.2026C213.671 42.5865 214.668 43.7718 214.823 45.1963C214.879 45.7472 214.028 45.8251 213.966 45.2798C213.833 44.0445 212.865 43.0651 211.624 42.9482C210.561 42.8481 209.526 43.4546 209.07 44.4117C208.613 45.3744 208.802 46.5652 209.554 47.3276C210.322 48.1122 211.518 48.3181 212.514 47.8507C213.493 47.3888 214.055 46.3426 213.966 45.2798C213.922 44.7289 214.779 44.651 214.823 45.1963Z" fill="black"/>
<path d="M410.901 8.35235C410.918 9.16007 410.28 9.81475 409.481 9.83175C408.673 9.84876 408.018 9.21108 408.001 8.40336C407.984 7.60415 408.622 6.94096 409.43 6.93246C410.229 6.91546 410.892 7.55313 410.901 8.35235Z" fill="#54AF70"/>
<path d="M72.4315 76.1937C72.4485 77.197 71.6493 78.0218 70.6461 78.0388C69.6428 78.0558 68.8181 77.265 68.801 76.2618C68.784 75.2585 69.5833 74.4338 70.5865 74.4168C71.5813 74.3998 72.4145 75.1905 72.4315 76.1937Z" fill="#54AF70"/>
<path d="M289.9 79.4285C289.917 80.2277 289.28 80.8909 288.48 80.9079C287.681 80.9164 287.018 80.2787 287.001 79.4795C286.993 78.6803 287.63 78.0171 288.429 78.0001C289.229 77.9916 289.892 78.6292 289.9 79.4285Z" fill="#54AF70"/>
<path d="M100.547 11.9722C100.564 12.7714 99.9264 13.4346 99.1187 13.4431C98.3195 13.4601 97.6563 12.8224 97.6478 12.0232C97.6308 11.224 98.2685 10.5608 99.0677 10.5438C99.8754 10.5268 100.53 11.173 100.547 11.9722Z" fill="#54AF70"/>
<path d="M184.533 77.2281C184.559 78.4779 183.555 79.5067 182.306 79.5322C181.056 79.5492 180.018 78.5544 180.001 77.3046C179.976 76.0548 180.979 75.0175 182.229 75.0005C183.479 74.975 184.516 75.9697 184.533 77.2281Z" fill="#54AF70"/>
<path d="M351.532 80.2281C351.558 81.4779 350.554 82.5152 349.305 82.5322C348.055 82.5577 347.017 81.5545 347 80.3046C346.975 79.0548 347.97 78.0175 349.228 78.0005C350.478 77.975 351.507 78.9782 351.532 80.2281Z" fill="#88217F"/>
<path d="M266.909 12.4285C266.917 13.2277 266.28 13.8909 265.48 13.9079C264.681 13.9164 264.018 13.2787 264.001 12.4795C263.993 11.6803 264.63 11.0171 265.429 11.0001C266.229 10.9916 266.892 11.6293 266.909 12.4285Z" fill="#88217F"/>
<path d="M351.909 13.4285C351.917 14.2277 351.28 14.8909 350.48 14.9079C349.681 14.9164 349.018 14.2787 349.001 13.4795C348.993 12.6803 349.63 12.0171 350.429 12.0001C351.229 11.9916 351.892 12.6293 351.909 13.4285Z" fill="#88217F"/>
<path d="M149.7 78.1066C149.734 80.0622 148.178 81.6776 146.214 81.7116C144.259 81.7456 142.652 80.1897 142.618 78.2257C142.584 76.2701 144.14 74.6632 146.095 74.6292C148.051 74.5952 149.666 76.1511 149.7 78.1066Z" fill="#88217F"/>
<path d="M68.6629 70.7806C68.6969 72.3451 67.4471 73.6374 65.8827 73.6629C64.3182 73.6969 63.0259 72.4471 63.0004 70.8827C62.9749 69.3182 64.2162 68.0259 65.7806 68.0004C67.3451 67.9749 68.6374 69.2162 68.6629 70.7806Z" fill="#88217F"/>
<path fill-rule="evenodd" clip-rule="evenodd" d="M232.625 82.1972C231.741 82.2142 231.01 81.5085 231.001 80.6243C230.984 79.74 231.69 79.0173 232.566 79.0003C233.45 78.9833 234.181 79.689 234.198 80.5732C234.215 81.449 233.509 82.1802 232.625 82.1972ZM232.574 79.2979C231.86 79.3064 231.282 79.9015 231.299 80.6157C231.307 81.3384 231.903 81.9081 232.617 81.8996C233.339 81.8911 233.909 81.2959 233.901 80.5732C233.892 79.859 233.297 79.2809 232.574 79.2979Z" fill="#54AF70"/>
<path fill-rule="evenodd" clip-rule="evenodd" d="M72.6252 16.3593C71.741 16.3763 71.0098 15.6706 71.0013 14.7864C70.9843 13.9021 71.69 13.1794 72.5657 13.1624C73.4499 13.1454 74.1811 13.8511 74.1982 14.7353C74.2152 15.6111 73.5095 16.3423 72.6252 16.3593ZM72.5742 13.46C71.8515 13.4685 71.2819 14.0637 71.2904 14.7864C71.3074 15.5005 71.9025 16.0787 72.6167 16.0617C73.3394 16.0532 73.9091 15.458 73.9006 14.7353C73.8836 14.0211 73.2884 13.443 72.5742 13.46Z" fill="#88217F"/>
<path fill-rule="evenodd" clip-rule="evenodd" d="M132.352 12.2018C128.985 12.2613 126.197 9.56607 126.146 6.20766C126.086 2.84074 128.773 0.0604862 132.14 0.000970013C135.498 -0.0585462 138.287 2.62819 138.346 5.9951C138.397 9.35352 135.711 12.1423 132.352 12.2018ZM132.157 1.13178C129.419 1.18279 127.225 3.44441 127.276 6.19065C127.319 8.9284 129.589 11.1135 132.327 11.071C135.064 11.02 137.258 8.74985 137.207 6.0121C137.165 3.27436 134.894 1.08076 132.157 1.13178Z" fill="#54AF70"/>
<path fill-rule="evenodd" clip-rule="evenodd" d="M439.397 17.203C438.045 17.2285 436.727 16.8033 435.63 15.9786C434.329 15.0009 433.488 13.5725 433.258 11.957C433.028 10.3501 433.445 8.74315 434.423 7.4423C435.401 6.13294 436.829 5.29121 438.444 5.06165C440.06 4.83209 441.667 5.2487 442.968 6.22647C444.268 7.20424 445.11 8.63262 445.34 10.2481C445.569 11.8635 445.153 13.4704 444.175 14.7713C443.197 16.0721 441.769 16.9139 440.153 17.1434C439.898 17.1831 439.646 17.203 439.397 17.203ZM439.227 6.13294C439.017 6.13861 438.81 6.15562 438.606 6.18396C437.288 6.37101 436.123 7.0597 435.332 8.11398C434.533 9.17677 434.193 10.4861 434.38 11.804C434.763 14.5162 437.288 16.4122 440 16.0296C441.31 15.8426 442.474 15.1539 443.274 14.0911C444.073 13.0283 444.404 11.719 444.217 10.4096C444.039 9.09175 443.35 7.92693 442.287 7.13622C441.395 6.46454 440.323 6.11594 439.227 6.13294Z" fill="#88217F"/>
<path fill-rule="evenodd" clip-rule="evenodd" d="M427.63 22.3388C426.941 22.3558 426.269 22.1347 425.708 21.7181C425.036 21.2165 424.603 20.4853 424.492 19.6521C424.246 17.9516 425.436 16.3702 427.145 16.1236C427.97 16.0046 428.794 16.2171 429.458 16.7188C430.129 17.2204 430.554 17.9516 430.673 18.7763C430.793 19.6096 430.58 20.4258 430.078 21.0975C429.577 21.7606 428.845 22.1943 428.021 22.3133C427.89 22.3303 427.76 22.3388 427.63 22.3388ZM427.536 16.6763C427.434 16.6763 427.332 16.6848 427.23 16.7018C426.55 16.7953 425.955 17.1439 425.547 17.688C425.138 18.2322 424.968 18.9039 425.062 19.5755C425.155 20.2472 425.513 20.8424 426.057 21.2505C426.592 21.6586 427.264 21.8287 427.936 21.7351C428.616 21.6416 429.211 21.293 429.619 20.7489C430.027 20.2047 430.197 19.533 430.104 18.8613C429.917 17.5775 428.803 16.6507 427.536 16.6763Z" fill="#88217F"/>
<path d="M253.832 57.8006L253.057 56.0908C253.545 55.9055 253.991 55.6937 254.394 55.4554C254.805 55.2167 255.16 54.9567 255.459 54.6754C255.757 54.394 255.984 54.0919 256.141 53.7688C256.298 53.4364 256.369 53.0837 256.356 52.7106C256.342 52.3188 256.239 51.8929 256.045 51.4327C255.851 50.9726 255.62 50.5045 255.351 50.0283L257.153 49.0823C257.331 49.3655 257.486 49.6729 257.62 50.0044C257.762 50.3263 257.879 50.6163 257.972 50.8745C258.066 51.1327 258.128 51.308 258.159 51.4003C258.305 51.8434 258.493 52.1356 258.722 52.277C258.961 52.418 259.336 52.4795 259.849 52.4614C260.204 52.4489 260.459 52.5333 260.615 52.7146C260.78 52.8862 260.867 53.1073 260.876 53.3778C260.887 53.667 260.797 53.9129 260.608 54.1157C260.419 54.3092 260.142 54.4123 259.779 54.4251C259.396 54.4386 259.058 54.3945 258.765 54.2927C258.472 54.191 258.233 54.036 258.048 53.8277C257.873 53.6191 257.757 53.371 257.7 53.0835L258.228 53.3591C258.19 53.8554 258.043 54.3275 257.788 54.7754C257.542 55.2324 257.216 55.6548 256.81 56.0427C256.403 56.4306 255.944 56.7736 255.431 57.0719C254.919 57.3701 254.385 57.613 253.832 57.8006ZM259.795 54.4245L259.866 52.4608C260.202 52.449 260.49 52.4061 260.73 52.3323C260.97 52.2585 261.171 52.1206 261.332 51.9189C261.493 51.7077 261.622 51.4043 261.72 51.0086C261.828 50.6126 261.917 50.0865 261.987 49.4303L263.83 49.6735C263.817 49.814 263.795 49.9783 263.764 50.1661C263.742 50.3537 263.721 50.5459 263.7 50.7427C263.688 50.9299 263.685 51.1075 263.691 51.2754C263.697 51.4433 263.735 51.5914 263.805 51.7197C263.874 51.8479 263.981 51.9563 264.124 52.0446C264.276 52.1233 264.47 52.1818 264.705 52.2203C264.949 52.2584 265.244 52.2713 265.589 52.2592C265.943 52.2467 266.198 52.3311 266.354 52.5124C266.51 52.6843 266.592 52.9056 266.602 53.1761C266.612 53.4652 266.522 53.7112 266.333 53.914C266.153 54.1071 265.882 54.2101 265.518 54.2229C265.098 54.2377 264.714 54.2185 264.367 54.1654C264.029 54.1119 263.731 54.015 263.474 53.8746C263.226 53.7246 263.018 53.5265 262.851 53.2802C262.692 53.0243 262.588 52.7104 262.538 52.3387L263.209 52.315C263.057 52.7686 262.855 53.1353 262.603 53.415C262.361 53.6851 262.083 53.891 261.771 54.0327C261.458 54.1745 261.13 54.2701 260.786 54.3196C260.452 54.378 260.122 54.413 259.795 54.4245ZM264.069 48.0961C263.799 48.1056 263.562 48.0206 263.36 47.8409C263.166 47.6516 263.065 47.4264 263.056 47.1652C263.046 46.8947 263.131 46.6582 263.311 46.4558C263.5 46.253 263.73 46.1468 264 46.1373C264.261 46.1281 264.489 46.2182 264.682 46.4075C264.875 46.5968 264.977 46.8267 264.986 47.0972C264.996 47.3583 264.91 47.5902 264.731 47.7926C264.551 47.9857 264.33 48.0869 264.069 48.0961ZM261.648 48.1674C261.378 48.1769 261.141 48.0919 260.939 47.9122C260.745 47.7229 260.644 47.4977 260.635 47.2365C260.625 46.966 260.71 46.7295 260.89 46.5271C261.079 46.3243 261.309 46.2181 261.579 46.2086C261.84 46.1994 262.068 46.2895 262.261 46.4788C262.454 46.6681 262.556 46.898 262.565 47.1685C262.575 47.4296 262.489 47.6615 262.31 47.8639C262.13 48.057 261.909 48.1582 261.648 48.1674ZM265.52 54.2228L265.591 52.2591C265.899 52.2482 266.15 52.216 266.344 52.1625C266.538 52.0996 266.693 51.9774 266.808 51.796C266.932 51.6048 267.034 51.3257 267.114 50.9586C267.204 50.5819 267.298 50.0743 267.397 49.4357L269.228 49.7074C269.197 49.914 269.155 50.1723 269.101 50.4824C269.056 50.7922 269.037 51.059 269.045 51.2828C269.051 51.4601 269.089 51.6128 269.159 51.7411C269.238 51.8597 269.363 51.9534 269.533 52.0221C269.713 52.0812 269.956 52.1053 270.264 52.0944C270.507 52.0859 270.711 52.0553 270.877 52.0028C271.053 51.9405 271.198 51.8187 271.313 51.6372C271.437 51.446 271.539 51.1576 271.619 50.7719C271.707 50.3765 271.787 49.8461 271.857 49.1805L273.714 49.4093C273.684 49.6251 273.655 49.855 273.626 50.0988C273.597 50.3426 273.573 50.5676 273.552 50.7738C273.531 50.98 273.523 51.1484 273.528 51.279C273.532 51.4002 273.569 51.5157 273.638 51.6253C273.716 51.7253 273.85 51.8046 274.038 51.8634C274.237 51.9217 274.508 51.9449 274.853 51.9327C275.273 51.9179 275.578 51.8184 275.767 51.6343C275.966 51.4405 276.059 51.1571 276.046 50.784C276.038 50.5695 276.025 50.3411 276.008 50.0989C275.989 49.8474 275.961 49.5682 275.922 49.2614C275.892 48.9449 275.842 48.5871 275.772 48.188L277.572 47.9845C277.666 48.7844 277.763 49.4347 277.865 49.9354C277.967 50.4361 278.092 50.8239 278.242 51.0988C278.401 51.3641 278.603 51.5437 278.849 51.6378C279.105 51.7315 279.433 51.7713 279.834 51.7572C280.189 51.7447 280.444 51.8291 280.6 52.0104C280.765 52.182 280.852 52.4031 280.861 52.6736C280.871 52.9627 280.782 53.2087 280.593 53.4115C280.413 53.6046 280.137 53.7078 279.763 53.7209C279.512 53.7298 279.25 53.7157 278.977 53.6785C278.706 53.6508 278.442 53.5807 278.186 53.4683C277.929 53.3466 277.699 53.1679 277.494 52.9323C277.29 52.6967 277.125 52.3803 276.998 51.9832L277.253 52.0583C277.139 52.5292 276.975 52.8946 276.76 53.1543C276.545 53.4141 276.276 53.601 275.953 53.7151C275.63 53.8199 275.24 53.8803 274.783 53.8964C274.363 53.9112 273.988 53.8684 273.657 53.768C273.327 53.6675 273.059 53.4948 272.855 53.2499C272.659 52.9953 272.549 52.649 272.524 52.2109L272.999 52.1941C272.831 52.7231 272.63 53.1177 272.397 53.3781C272.163 53.6385 271.875 53.8121 271.533 53.8989C271.19 53.9856 270.758 54.0382 270.235 54.0566C269.918 54.0678 269.605 54.0462 269.294 53.9917C268.984 53.928 268.703 53.7744 268.452 53.5311C268.2 53.2785 268.008 52.8743 267.877 52.3186L268.631 52.264C268.455 52.8212 268.213 53.236 267.905 53.5084C267.606 53.7804 267.258 53.9654 266.859 54.0635C266.461 54.1523 266.015 54.2054 265.52 54.2228ZM272.393 45.3092C272.159 45.3175 271.951 45.2361 271.768 45.0651C271.593 44.8938 271.502 44.6869 271.494 44.4444C271.485 44.2019 271.562 43.9937 271.724 43.8199C271.895 43.6457 272.097 43.5546 272.33 43.5463C272.573 43.5378 272.781 43.6145 272.955 43.7765C273.129 43.9385 273.22 44.1407 273.229 44.3832C273.237 44.6258 273.161 44.8386 272.999 45.0217C272.837 45.2049 272.635 45.3007 272.393 45.3092ZM271.338 47.1955C271.105 47.2038 270.897 47.1224 270.713 46.9514C270.539 46.7801 270.448 46.5732 270.439 46.3307C270.431 46.0881 270.508 45.88 270.67 45.7062C270.841 45.532 271.043 45.4409 271.276 45.4326C271.519 45.4241 271.727 45.5008 271.901 45.6628C272.075 45.8248 272.166 46.027 272.174 46.2695C272.183 46.512 272.106 46.7249 271.945 46.908C271.783 47.0912 271.581 47.187 271.338 47.1955ZM273.507 47.1191C273.274 47.1273 273.066 47.046 272.882 46.875C272.708 46.7037 272.617 46.4968 272.608 46.2542C272.599 46.0117 272.676 45.8036 272.838 45.6298C273.009 45.4556 273.212 45.3644 273.445 45.3562C273.687 45.3477 273.896 45.4244 274.069 45.5864C274.243 45.7483 274.334 45.9506 274.343 46.1931C274.351 46.4356 274.275 46.6485 274.113 46.8316C273.952 47.0147 273.75 47.1106 273.507 47.1191ZM279.771 53.7206L279.842 51.7569C280.178 51.7451 280.466 51.7022 280.706 51.6284C280.946 51.5546 281.147 51.4167 281.308 51.215C281.469 51.0038 281.598 50.7004 281.696 50.3047C281.804 49.9087 281.892 49.3826 281.963 48.7264L283.806 48.9696C283.793 49.1101 283.77 49.2744 283.74 49.4622C283.718 49.6498 283.697 49.842 283.676 50.0388C283.664 50.226 283.661 50.4036 283.667 50.5715C283.673 50.7394 283.711 50.8875 283.78 51.0158C283.85 51.144 283.957 51.2524 284.1 51.3407C284.252 51.4194 284.446 51.4779 284.681 51.5164C284.925 51.5545 285.219 51.5674 285.565 51.5553C285.919 51.5428 286.174 51.6272 286.33 51.8085C286.485 51.9804 286.568 52.2017 286.577 52.4722C286.588 52.7613 286.498 53.0073 286.309 53.2101C286.129 53.4032 285.857 53.5062 285.494 53.519C285.074 53.5338 284.69 53.5146 284.343 53.4615C284.005 53.408 283.707 53.3111 283.45 53.1707C283.202 53.0207 282.994 52.8226 282.827 52.5763C282.668 52.3204 282.564 52.0065 282.513 51.6348L283.185 51.6111C283.033 52.0647 282.831 52.4314 282.579 52.7111C282.337 52.9812 282.059 53.1871 281.747 53.3288C281.434 53.4706 281.106 53.5662 280.762 53.6157C280.428 53.6741 280.098 53.7091 279.771 53.7206ZM283.789 56.8291C283.519 56.8386 283.282 56.7489 283.079 56.5599C282.886 56.3799 282.785 56.1593 282.776 55.8982C282.766 55.6277 282.851 55.3912 283.031 55.1887C283.22 54.986 283.45 54.8798 283.72 54.8703C283.981 54.8611 284.209 54.9511 284.402 55.1404C284.595 55.3297 284.697 55.5596 284.707 55.8301C284.716 56.0913 284.63 56.3185 284.45 56.5116C284.271 56.714 284.05 56.8199 283.789 56.8291ZM281.369 56.9143C281.098 56.9239 280.861 56.8342 280.659 56.6452C280.466 56.4652 280.364 56.2446 280.355 55.9835C280.346 55.713 280.431 55.4765 280.61 55.274C280.799 55.0713 281.029 54.9651 281.3 54.9556C281.561 54.9464 281.788 55.0364 281.982 55.2257C282.175 55.415 282.276 55.6449 282.286 55.9154C282.295 56.1766 282.21 56.4037 282.03 56.5969C281.85 56.7993 281.63 56.9051 281.369 56.9143ZM285.496 53.5189L285.567 51.5552C285.977 51.5407 286.298 51.5014 286.529 51.4372C286.77 51.3727 286.939 51.264 287.036 51.1112C287.133 50.949 287.177 50.7233 287.167 50.4342C287.157 50.173 287.109 49.8618 287.022 49.5007C286.943 49.1392 286.842 48.7646 286.716 48.3767C286.59 47.9889 286.465 47.6338 286.342 47.3113L288.254 46.7115C288.377 47.0247 288.502 47.3892 288.629 47.805C288.756 48.2208 288.864 48.6513 288.955 49.0964C289.054 49.5318 289.111 49.9547 289.125 50.3651C289.143 50.8781 289.093 51.3142 288.975 51.6732C288.857 52.0229 288.685 52.3185 288.46 52.5599C288.244 52.7917 287.98 52.9784 287.667 53.1202C287.364 53.2523 287.026 53.3482 286.655 53.408C286.283 53.4678 285.897 53.5048 285.496 53.5189ZM287.33 56.6763C287.06 56.6858 286.823 56.6007 286.621 56.4211C286.428 56.2411 286.327 56.0159 286.317 55.7454C286.308 55.4749 286.392 55.2337 286.572 55.0219C286.761 54.8192 286.99 54.713 287.261 54.7035C287.531 54.6939 287.763 54.7838 287.957 54.9731C288.16 55.1714 288.266 55.4058 288.276 55.6763C288.285 55.9468 288.195 56.1788 288.006 56.3723C287.826 56.5654 287.601 56.6667 287.33 56.6763ZM298.883 53.2713L299.178 51.2997C299.756 51.2793 300.306 51.2413 300.827 51.1856C301.348 51.1299 301.826 51.0663 302.263 50.9949C302.709 50.9231 303.094 50.8489 303.418 50.7721C303.751 50.6949 304.006 50.6253 304.181 50.5631C304.494 50.4493 304.76 50.3138 304.979 50.1567C305.198 49.9996 305.364 49.8256 305.479 49.6348C305.594 49.444 305.648 49.2553 305.641 49.0687C305.636 48.9381 305.609 48.8084 305.557 48.6794C305.506 48.5505 305.437 48.4315 305.349 48.3225C305.27 48.2132 305.174 48.1279 305.059 48.0666C304.954 47.9956 304.846 47.962 304.734 47.966C304.584 47.9712 304.437 48.0325 304.292 48.1497C304.156 48.2665 304.045 48.4199 303.958 48.6097C303.88 48.7899 303.845 48.9919 303.853 49.2158C303.859 49.3743 303.911 49.5406 304.011 49.7145C304.11 49.8885 304.247 50.0564 304.421 50.2184C304.604 50.3707 304.809 50.5036 305.037 50.6169L303.202 51.3961C302.989 51.2074 302.786 51.0138 302.593 50.8151C302.408 50.6069 302.25 50.3743 302.12 50.1174C301.999 49.8601 301.932 49.5683 301.921 49.2418C301.906 48.8128 301.976 48.4134 302.131 48.0437C302.295 47.6643 302.512 47.3298 302.782 47.0401C303.061 46.7501 303.366 46.5246 303.697 46.3635C304.036 46.1928 304.374 46.1015 304.71 46.0897C305.251 46.0706 305.731 46.1984 306.152 46.4731C306.572 46.7385 306.907 47.0909 307.156 47.5304C307.414 47.9696 307.552 48.4364 307.569 48.9307C307.585 49.3691 307.515 49.7638 307.359 50.1149C307.203 50.4659 306.985 50.7771 306.705 51.0485C306.435 51.3102 306.13 51.545 305.792 51.7531C305.463 51.9608 305.128 52.1407 304.788 52.2928C304.549 52.4039 304.217 52.5137 303.791 52.6221C303.375 52.7301 302.892 52.8265 302.344 52.9112C301.806 53.0049 301.239 53.0809 300.643 53.1392C300.048 53.2069 299.461 53.2509 298.883 53.2713ZM308.529 52.7073C307.988 52.7263 307.455 52.7171 306.931 52.6795C306.407 52.642 305.919 52.5751 305.467 52.479C305.025 52.3825 304.638 52.2607 304.305 52.1136L305.218 50.5686C305.5 50.6333 305.829 50.6824 306.203 50.7159C306.587 50.7398 306.985 50.7538 307.396 50.758C307.816 50.7618 308.217 50.757 308.6 50.7436C308.954 50.7311 309.209 50.8155 309.365 50.9968C309.53 51.1684 309.617 51.3895 309.627 51.66C309.637 51.9491 309.548 52.1951 309.359 52.3979C309.169 52.5913 308.893 52.6945 308.529 52.7073ZM298.883 53.2713C297.876 53.3068 297.019 53.2576 296.314 53.1237C295.619 52.9988 295.047 52.8041 294.598 52.5397C294.159 52.2657 293.835 51.9409 293.626 51.5654C293.416 51.1899 293.303 50.7736 293.287 50.3165C293.277 50.0181 293.29 49.7187 293.326 49.4186C293.371 49.1088 293.426 48.8081 293.49 48.5163C293.564 48.2242 293.629 47.9604 293.686 47.7249L295.45 48.069C295.418 48.2382 295.383 48.4216 295.343 48.6191C295.303 48.8166 295.273 49.0091 295.251 49.1967C295.229 49.3749 295.221 49.5386 295.226 49.6879C295.239 50.033 295.371 50.3365 295.623 50.5985C295.884 50.8508 296.301 51.0415 296.876 51.1707C297.45 51.2906 298.217 51.3336 299.178 51.2997L299.511 52.8009L298.883 53.2713ZM304.678 44.788C304.389 44.7982 304.138 44.7089 303.926 44.5203C303.723 44.3313 303.617 44.0923 303.606 43.8031C303.596 43.5139 303.685 43.2633 303.874 43.0512C304.072 42.8388 304.316 42.7275 304.605 42.7173C304.885 42.7074 305.126 42.8016 305.329 42.9999C305.542 43.1979 305.653 43.4415 305.663 43.7306C305.673 44.0198 305.579 44.2659 305.381 44.469C305.192 44.6718 304.958 44.7781 304.678 44.788ZM308.546 52.7067L308.617 50.7429C308.953 50.7311 309.241 50.6883 309.481 50.6144C309.721 50.5406 309.922 50.4028 310.083 50.201C310.244 49.9899 310.373 49.6865 310.471 49.2908C310.579 48.8947 310.667 48.3686 310.738 47.7124L312.581 47.9556C312.568 48.0962 312.546 48.2604 312.515 48.4483C312.493 48.6358 312.472 48.828 312.451 49.0249C312.439 49.2121 312.436 49.3896 312.442 49.5575C312.448 49.7254 312.486 49.8735 312.556 50.0018C312.625 50.1301 312.732 50.2384 312.875 50.3267C313.027 50.4054 313.221 50.464 313.456 50.5024C313.7 50.5405 313.994 50.5535 314.34 50.5413C314.694 50.5288 314.949 50.6132 315.105 50.7945C315.26 50.9665 315.343 51.1877 315.353 51.4582C315.363 51.7474 315.273 51.9933 315.084 52.1961C314.904 52.3892 314.633 52.4922 314.269 52.505C313.849 52.5198 313.465 52.5006 313.118 52.4475C312.78 52.394 312.482 52.2971 312.225 52.1568C311.977 52.0067 311.769 51.8086 311.602 51.5623C311.443 51.3064 311.339 50.9926 311.289 50.6208L311.96 50.5971C311.808 51.0508 311.606 51.4174 311.354 51.6971C311.112 51.9672 310.834 52.1731 310.522 52.3149C310.209 52.4566 309.881 52.5522 309.537 52.6017C309.203 52.6602 308.873 52.6952 308.546 52.7067ZM312.564 55.8151C312.294 55.8246 312.057 55.7349 311.854 55.5459C311.661 55.366 311.56 55.1454 311.551 54.8842C311.541 54.6137 311.626 54.3772 311.806 54.1748C311.995 53.972 312.225 53.8658 312.495 53.8563C312.756 53.8471 312.984 53.9372 313.177 54.1265C313.371 54.3158 313.472 54.5457 313.482 54.8162C313.491 55.0773 313.405 55.3045 313.225 55.4976C313.046 55.7001 312.825 55.8059 312.564 55.8151ZM310.144 55.9004C309.873 55.9099 309.637 55.8202 309.434 55.6312C309.241 55.4512 309.14 55.2307 309.13 54.9695C309.121 54.699 309.206 54.4625 309.386 54.2601C309.574 54.0573 309.804 53.9511 310.075 53.9416C310.336 53.9324 310.563 54.0225 310.757 54.2118C310.95 54.4011 311.052 54.631 311.061 54.9015C311.07 55.1626 310.985 55.3898 310.805 55.5829C310.625 55.7854 310.405 55.8912 310.144 55.9004ZM314.271 52.5049L314.343 50.5552C314.707 50.5517 315.042 50.5352 315.35 50.5057C315.657 50.4762 315.931 50.4385 316.172 50.3927C316.423 50.3465 316.64 50.2968 316.825 50.2436C317.019 50.19 317.181 50.1423 317.31 50.1004C317.624 49.9866 317.89 49.8558 318.109 49.708C318.328 49.5509 318.494 49.3769 318.609 49.1861C318.724 48.9953 318.777 48.7926 318.77 48.5781C318.764 48.4102 318.721 48.2436 318.64 48.0783C318.569 47.9034 318.465 47.7623 318.331 47.655C318.196 47.5476 318.041 47.4971 317.863 47.5033C317.695 47.5092 317.543 47.566 317.407 47.6735C317.271 47.781 317.164 47.9249 317.086 48.1051C317.008 48.2759 316.973 48.4733 316.981 48.6971C316.988 48.893 317.041 49.0779 317.14 49.2519C317.24 49.4165 317.376 49.5751 317.549 49.7278C317.723 49.8804 317.929 50.0226 318.167 50.1543L316.331 50.9334C316.119 50.7448 315.916 50.5418 315.721 50.3245C315.536 50.1069 315.378 49.8603 315.247 49.5848C315.125 49.2995 315.058 48.9797 315.045 48.6253C315.03 48.1962 315.1 47.8015 315.256 47.4411C315.411 47.0808 315.624 46.7697 315.895 46.508C316.166 46.237 316.471 46.0254 316.811 45.8734C317.151 45.7213 317.494 45.6392 317.839 45.627C318.399 45.6073 318.889 45.7208 319.308 45.9675C319.728 46.2142 320.057 46.5435 320.296 46.9553C320.544 47.3669 320.676 47.8198 320.694 48.3142C320.71 48.7712 320.64 49.1846 320.485 49.5543C320.33 49.9146 320.112 50.2398 319.833 50.5298C319.563 50.8102 319.259 51.0591 318.921 51.2764C318.592 51.4935 318.258 51.678 317.918 51.8301C317.752 51.9106 317.545 51.988 317.296 52.0622C317.046 52.1363 316.764 52.207 316.448 52.2741C316.133 52.3319 315.794 52.3812 315.431 52.422C315.068 52.4628 314.682 52.4905 314.271 52.5049ZM321.659 52.2446C321.118 52.2637 320.585 52.2544 320.061 52.2169C319.536 52.1793 319.048 52.1125 318.597 52.0163C318.154 51.9198 317.767 51.798 317.435 51.651L318.347 50.1059C318.63 50.1707 318.958 50.2198 319.333 50.2533C319.717 50.2771 320.114 50.2911 320.525 50.2953C320.946 50.2992 321.347 50.2944 321.73 50.2809C322.084 50.2684 322.339 50.3528 322.495 50.5341C322.66 50.7057 322.747 50.9268 322.756 51.1973C322.767 51.4865 322.677 51.7324 322.488 51.9352C322.299 52.1287 322.022 52.2318 321.659 52.2446ZM317.807 44.3253C317.518 44.3355 317.268 44.2463 317.055 44.0576C316.853 43.8687 316.746 43.6296 316.736 43.3404C316.726 43.0513 316.815 42.8007 317.004 42.5886C317.202 42.3761 317.445 42.2648 317.734 42.2546C318.014 42.2448 318.256 42.339 318.459 42.5373C318.671 42.7353 318.783 42.9788 318.793 43.268C318.803 43.5571 318.709 43.8033 318.511 44.0064C318.322 44.2091 318.087 44.3155 317.807 44.3253ZM330.827 51.9215C330.398 51.9367 329.996 51.9181 329.62 51.866C329.254 51.8135 328.915 51.7134 328.601 51.5657C328.287 51.4087 328.004 51.1898 327.752 50.9092C327.508 50.6283 327.299 50.2714 327.125 49.8386L328.2 48.9182C328.378 49.2108 328.592 49.4367 328.84 49.5961C329.088 49.7461 329.381 49.8478 329.719 49.9013C330.057 49.9548 330.45 49.9736 330.898 49.9578C331.252 49.9453 331.508 50.0297 331.663 50.211C331.819 50.383 331.901 50.6042 331.911 50.8747C331.921 51.1639 331.832 51.4098 331.643 51.6126C331.463 51.8058 331.191 51.9087 330.827 51.9215ZM321.677 52.244L321.748 50.2803C322.251 50.2625 322.749 50.2169 323.242 50.1436C323.734 50.0702 324.212 49.9693 324.674 49.8409C325.136 49.7126 325.574 49.5524 325.988 49.3604C326.411 49.168 326.804 48.9394 327.169 48.6744C326.883 48.5163 326.575 48.3824 326.244 48.2727C325.913 48.1629 325.56 48.0866 325.185 48.0438C324.819 47.9914 324.431 47.9723 324.02 47.9868C323.871 47.9921 323.713 48.0023 323.545 48.0176C323.387 48.0325 323.224 48.0569 323.057 48.0908C322.89 48.1154 322.723 48.1493 322.557 48.1925L322.209 46.2855C322.477 46.2014 322.76 46.14 323.057 46.1015C323.364 46.0534 323.634 46.0252 323.867 46.017C324.371 45.9992 324.834 46.0389 325.258 46.1361C325.691 46.2329 326.088 46.359 326.448 46.5144C326.818 46.6695 327.159 46.8255 327.473 46.9826C327.796 47.1393 328.1 47.2687 328.383 47.3708C328.676 47.4725 328.958 47.5186 329.229 47.5091L329.746 47.4909L330.036 49.3438C329.635 49.3766 329.26 49.4692 328.911 49.6216C328.57 49.7643 328.231 49.9444 327.893 50.1618C327.564 50.3695 327.208 50.5875 326.824 50.8158C326.449 51.0438 326.022 51.2597 325.544 51.4633C325.065 51.667 324.511 51.8406 323.881 51.9842C323.251 52.1278 322.516 52.2144 321.677 52.244ZM323.816 44.5759C323.527 44.5861 323.276 44.4968 323.064 44.3082C322.861 44.1192 322.755 43.8802 322.745 43.591C322.735 43.3018 322.824 43.0512 323.012 42.8391C323.21 42.6267 323.454 42.5154 323.743 42.5052C324.023 42.4953 324.264 42.5895 324.468 42.7878C324.68 42.9858 324.791 43.2294 324.801 43.5185C324.812 43.8077 324.718 44.0538 324.519 44.2569C324.33 44.4597 324.096 44.566 323.816 44.5759ZM330.831 51.9214L330.902 49.9577C331.462 49.938 331.89 49.8949 332.186 49.8284C332.483 49.7619 332.685 49.6521 332.791 49.4989C332.907 49.336 332.96 49.11 332.949 48.8209C332.94 48.5597 332.892 48.2486 332.804 47.8874C332.726 47.5259 332.624 47.1513 332.499 46.7635C332.382 46.3753 332.258 46.0202 332.125 45.698L334.037 45.0983C334.169 45.4111 334.299 45.7755 334.426 46.1913C334.552 46.6071 334.661 47.0375 334.751 47.4826C334.841 47.9184 334.894 48.3414 334.908 48.7519C334.931 49.3861 334.846 49.9074 334.655 50.3157C334.464 50.7147 334.185 51.0281 333.82 51.2557C333.463 51.4831 333.03 51.6478 332.52 51.7498C332.01 51.8425 331.447 51.8997 330.831 51.9214ZM334.347 43.9526C334.076 43.9622 333.84 43.8771 333.637 43.6975C333.444 43.5082 333.343 43.2829 333.333 43.0218C333.324 42.7513 333.409 42.5148 333.589 42.3123C333.778 42.1096 334.007 42.0034 334.278 41.9939C334.539 41.9847 334.766 42.0747 334.96 42.264C335.153 42.4533 335.255 42.6832 335.264 42.9537C335.273 43.2149 335.188 43.4467 335.009 43.6492C334.829 43.8423 334.608 43.9434 334.347 43.9526ZM331.926 44.024C331.655 44.0335 331.419 43.9484 331.216 43.7688C331.023 43.5795 330.922 43.3542 330.912 43.0931C330.903 42.8226 330.988 42.5861 331.168 42.3836C331.357 42.1809 331.586 42.0747 331.857 42.0652C332.118 42.056 332.345 42.146 332.539 42.3353C332.732 42.5246 332.834 42.7545 332.843 43.025C332.852 43.2862 332.767 43.518 332.588 43.7205C332.408 43.9136 332.187 44.0147 331.926 44.024ZM339.774 54.7582L339.299 52.8138C339.958 52.7065 340.533 52.5835 341.023 52.4448C341.514 52.3155 341.923 52.1423 342.252 51.9252C342.58 51.7082 342.822 51.4195 342.978 51.0591C343.133 50.6894 343.2 50.2201 343.18 49.6511C343.173 49.4459 343.147 49.2414 343.102 49.0375C343.058 48.8243 342.995 48.6303 342.914 48.4558C342.833 48.2812 342.73 48.14 342.605 48.0324C342.489 47.9244 342.352 47.8732 342.193 47.8788C342.025 47.8847 341.878 47.9506 341.752 48.0764C341.625 48.193 341.528 48.3412 341.459 48.521C341.39 48.6915 341.359 48.8654 341.365 49.0426C341.37 49.1732 341.407 49.284 341.475 49.375C341.544 49.4566 341.644 49.5185 341.776 49.5605C341.908 49.5932 342.072 49.6061 342.268 49.5992C342.492 49.5913 342.719 49.56 342.951 49.5051C343.191 49.4406 343.408 49.3582 343.6 49.2581L343.71 50.7811C343.493 50.9663 343.242 51.1339 342.957 51.284C342.673 51.4247 342.325 51.5024 341.915 51.5168C341.579 51.5287 341.265 51.5024 340.974 51.4379C340.681 51.3642 340.421 51.2473 340.191 51.0873C339.97 50.9269 339.795 50.7183 339.664 50.4614C339.534 50.1952 339.462 49.8755 339.448 49.5024C339.432 49.0454 339.491 48.5997 339.626 48.1654C339.76 47.731 339.951 47.3414 340.201 46.9964C340.459 46.6417 340.757 46.3604 341.096 46.1524C341.443 45.9347 341.812 45.8189 342.204 45.8051C342.67 45.7887 343.08 45.891 343.434 46.112C343.796 46.3327 344.101 46.6301 344.348 47.0044C344.594 47.3692 344.785 47.7687 344.922 48.2029C345.059 48.637 345.134 49.0546 345.148 49.4557C345.186 50.5097 344.993 51.413 344.571 52.1657C344.15 52.9183 343.531 53.5098 342.715 53.9402C341.899 54.3798 340.919 54.6525 339.774 54.7582ZM349.175 54.441L348.4 52.7312C348.889 52.5459 349.334 52.3341 349.737 52.0957C350.149 51.8571 350.504 51.5971 350.802 51.3157C351.1 51.0344 351.328 50.7322 351.484 50.4091C351.641 50.0768 351.712 49.724 351.699 49.3509C351.685 48.9592 351.582 48.5332 351.388 48.0731C351.194 47.613 350.963 47.1448 350.694 46.6687L352.496 45.7226C352.674 46.0059 352.83 46.3132 352.963 46.6448C353.105 46.9666 353.222 47.2567 353.316 47.5149C353.409 47.7731 353.471 47.9483 353.502 48.0406C353.649 48.4837 353.836 48.776 354.065 48.9173C354.304 49.0584 354.68 49.1198 355.193 49.1017C355.547 49.0893 355.802 49.1737 355.958 49.355C356.123 49.5266 356.21 49.7477 356.22 50.0182C356.23 50.3073 356.14 50.5533 355.951 50.7561C355.762 50.9495 355.486 51.0526 355.122 51.0655C354.739 51.0789 354.402 51.0348 354.108 50.9331C353.815 50.8313 353.576 50.6763 353.392 50.468C353.216 50.2594 353.1 50.0113 353.043 49.7238L353.571 49.9994C353.533 50.4957 353.386 50.9679 353.131 51.4158C352.885 51.8727 352.559 52.2951 352.153 52.683C351.746 53.0709 351.287 53.414 350.774 53.7122C350.262 54.0104 349.729 54.2534 349.175 54.441ZM355.138 51.0649L355.209 49.1012C355.769 49.0814 356.197 49.0383 356.494 48.9719C356.79 48.9054 356.992 48.7955 357.098 48.6424C357.214 48.4795 357.267 48.2535 357.257 47.9644C357.247 47.7032 357.199 47.392 357.112 47.0309C357.034 46.6694 356.932 46.2948 356.806 45.907C356.689 45.5188 356.565 45.1636 356.432 44.8415L358.344 44.2417C358.477 44.5546 358.606 44.9189 358.733 45.3347C358.86 45.7505 358.968 46.181 359.059 46.6261C359.149 47.0618 359.201 47.4849 359.215 47.8953C359.238 48.5296 359.153 49.0509 358.962 49.4592C358.771 49.8582 358.492 50.1715 358.127 50.3992C357.771 50.6266 357.338 50.7913 356.827 50.8933C356.317 50.986 355.754 51.0432 355.138 51.0649ZM358.654 43.0961C358.384 43.1057 358.147 43.0206 357.945 42.841C357.751 42.6516 357.65 42.4264 357.641 42.1652C357.631 41.8947 357.716 41.6583 357.896 41.4558C358.085 41.253 358.314 41.1469 358.585 41.1373C358.846 41.1281 359.073 41.2182 359.267 41.4075C359.46 41.5968 359.562 41.8267 359.571 42.0972C359.581 42.3584 359.495 42.5902 359.316 42.7926C359.136 42.9858 358.915 43.0869 358.654 43.0961ZM356.233 43.1674C355.963 43.177 355.726 43.0919 355.524 42.9123C355.33 42.7229 355.229 42.4977 355.22 42.2365C355.21 41.966 355.295 41.7296 355.475 41.5271C355.664 41.3243 355.894 41.2182 356.164 41.2086C356.425 41.1994 356.652 41.2895 356.846 41.4788C357.039 41.6681 357.141 41.898 357.15 42.1685C357.16 42.4297 357.074 42.6615 356.895 42.8639C356.715 43.0571 356.494 43.1582 356.233 43.1674ZM360.634 50.2408L361.257 48.4398C361.607 48.5769 361.943 48.6771 362.262 48.7406C362.582 48.804 362.9 48.8301 363.218 48.819C363.544 48.8075 363.814 48.7699 364.026 48.7064C364.248 48.6332 364.412 48.5341 364.52 48.4088C364.628 48.2836 364.679 48.1371 364.673 47.9692C364.667 47.8106 364.608 47.5932 364.496 47.317C364.392 47.0405 364.207 46.6828 363.939 46.244C363.671 45.7958 363.283 45.2444 362.774 44.59L364.4 43.426C364.871 44.0445 365.279 44.6511 365.627 45.2459C365.975 45.8314 366.246 46.3821 366.442 46.8982C366.647 47.4047 366.756 47.8538 366.77 48.2455C366.787 48.7306 366.671 49.1596 366.423 49.5325C366.183 49.8959 365.815 50.189 365.319 50.412C364.832 50.6346 364.225 50.7587 363.497 50.7843C363.227 50.7939 362.923 50.7812 362.585 50.7464C362.248 50.7116 361.905 50.6537 361.556 50.5726C361.217 50.4911 360.91 50.3805 360.634 50.2408ZM368.303 53.7529L367.828 51.8085C368.487 51.7012 369.062 51.5782 369.552 51.4395C370.043 51.3102 370.452 51.137 370.781 50.9199C371.109 50.7029 371.351 50.4142 371.507 50.0538C371.662 49.6841 371.729 49.2148 371.709 48.6458C371.702 48.4406 371.676 48.2361 371.632 48.0322C371.587 47.819 371.524 47.6251 371.443 47.4505C371.362 47.2759 371.259 47.1347 371.134 47.0271C371.018 46.9191 370.881 46.8679 370.722 46.8735C370.554 46.8794 370.407 46.9453 370.281 47.0711C370.154 47.1877 370.057 47.3359 369.988 47.5157C369.92 47.6862 369.888 47.8601 369.895 48.0373C369.899 48.1679 369.936 48.2787 370.004 48.3697C370.073 48.4513 370.173 48.5132 370.305 48.5552C370.437 48.5879 370.601 48.6008 370.797 48.5939C371.021 48.586 371.248 48.5547 371.48 48.4998C371.72 48.4353 371.937 48.353 372.13 48.2528L372.239 49.7759C372.022 49.961 371.771 50.1286 371.487 50.2787C371.202 50.4194 370.855 50.4971 370.444 50.5115C370.108 50.5234 369.795 50.4971 369.503 50.4326C369.211 50.3589 368.95 50.242 368.72 50.082C368.499 49.9216 368.324 49.713 368.194 49.4561C368.063 49.1899 367.991 48.8702 367.978 48.4971C367.962 48.0401 368.021 47.5944 368.155 47.1601C368.289 46.7257 368.481 46.3361 368.73 45.9911C368.988 45.6364 369.286 45.3551 369.625 45.1471C369.972 44.9294 370.341 44.8136 370.733 44.7998C371.2 44.7834 371.609 44.8857 371.963 45.1067C372.325 45.3274 372.63 45.6249 372.877 45.9991C373.123 46.364 373.315 46.7635 373.451 47.1976C373.588 47.6317 373.663 48.0493 373.678 48.4504C373.715 49.5044 373.522 50.4077 373.101 51.1604C372.679 51.913 372.06 52.5045 371.244 52.9349C370.428 53.3745 369.448 53.6472 368.303 53.7529ZM374.698 53.5276L373.921 51.7619C374.713 51.4538 375.351 51.1231 375.833 50.7699C376.325 50.4164 376.681 50.0443 376.901 49.6536C377.13 49.2627 377.237 48.862 377.222 48.4515C377.213 48.1904 377.166 47.9212 377.082 47.644C376.997 47.3575 376.879 47.0581 376.728 46.7459C376.586 46.4334 376.416 46.1078 376.217 45.7693L378.019 44.8232C378.368 45.4367 378.641 46.0248 378.838 46.5875C379.044 47.1499 379.156 47.6783 379.174 48.1727C379.19 48.6297 379.145 49.0702 379.038 49.4943C378.941 49.9179 378.778 50.3159 378.548 50.6883C378.328 51.0696 378.037 51.43 377.676 51.7697C377.314 52.1093 376.886 52.4232 376.392 52.7114C375.898 53.009 375.333 53.2811 374.698 53.5276ZM377.437 43.4149C377.148 43.4251 376.897 43.3358 376.685 43.1472C376.483 42.9582 376.376 42.7191 376.366 42.43C376.356 42.1408 376.445 41.8902 376.634 41.6781C376.832 41.4656 377.075 41.3543 377.364 41.3441C377.644 41.3343 377.886 41.4285 378.089 41.6268C378.301 41.8248 378.412 42.0684 378.423 42.3575C378.433 42.6467 378.339 42.8928 378.14 43.0959C377.951 43.2987 377.717 43.405 377.437 43.4149ZM383.441 49.6053C383.434 49.3907 383.443 49.1382 383.471 48.8478C383.498 48.5573 383.556 48.2284 383.646 47.861C383.735 47.4843 383.875 47.0638 384.064 46.5995L385.806 47.1405C385.714 47.4332 385.634 47.7022 385.568 47.9473C385.502 48.1832 385.454 48.4043 385.423 48.6108C385.393 48.808 385.381 49.0046 385.388 49.2005C385.399 49.5083 385.474 49.7811 385.613 50.019C385.762 50.266 385.97 50.4688 386.237 50.6274C386.504 50.7955 386.826 50.9195 387.203 50.9997C387.588 51.0795 388.028 51.1107 388.523 51.0932C389.036 51.0752 389.492 51.0357 389.892 50.975C390.3 50.9139 390.643 50.8317 390.919 50.7286C391.205 50.6251 391.42 50.4962 391.564 50.3417C391.709 50.1965 391.777 50.0306 391.771 49.8441C391.768 49.7601 391.732 49.682 391.665 49.6097C391.606 49.537 391.505 49.4612 391.362 49.3822C391.229 49.3028 391.048 49.2205 390.821 49.1351C390.603 49.0494 390.339 48.956 390.027 48.8549L390.419 46.8658C390.826 47.0196 391.209 47.1555 391.568 47.2736C391.936 47.3821 392.285 47.4725 392.614 47.545C392.943 47.6081 393.253 47.6578 393.544 47.6943C393.835 47.7214 394.106 47.7305 394.358 47.7217C394.712 47.7092 394.967 47.7936 395.123 47.9749C395.279 48.1468 395.361 48.3681 395.371 48.6386C395.381 48.9277 395.291 49.1737 395.102 49.3765C394.913 49.5699 394.641 49.6729 394.287 49.6854C394.212 49.688 394.138 49.6906 394.063 49.6933C393.998 49.6956 393.928 49.698 393.853 49.7007C393.788 49.703 393.718 49.7054 393.643 49.7081C393.665 49.8007 393.677 49.8796 393.68 49.9449C393.682 50.0195 393.685 50.0895 393.687 50.1548C393.698 50.4626 393.602 50.7789 393.398 51.1036C393.204 51.4279 392.893 51.7331 392.464 52.019C392.035 52.305 391.483 52.5392 390.808 52.7218C390.142 52.9134 389.343 53.0256 388.41 53.0584C387.403 53.0939 386.531 52.9939 385.794 52.7584C385.067 52.5318 384.498 52.155 384.087 51.6278C383.686 51.1096 383.471 50.4354 383.441 49.6053ZM394.284 49.6855L394.355 47.7218C394.663 47.7109 394.914 47.6787 395.108 47.6252C395.302 47.5623 395.456 47.4401 395.571 47.2586C395.695 47.0675 395.798 46.7884 395.878 46.4213C395.968 46.0446 396.062 45.537 396.161 44.8984L397.991 45.1701C397.968 45.311 397.941 45.4754 397.911 45.6633C397.88 45.8511 397.854 46.0435 397.833 46.2404C397.812 46.4279 397.803 46.5963 397.809 46.7455C397.818 47.0067 397.909 47.2136 398.083 47.3663C398.256 47.5096 398.576 47.573 399.042 47.5566C399.275 47.5484 399.475 47.518 399.641 47.4654C399.816 47.4032 399.962 47.2814 400.077 47.0999C400.201 46.9087 400.303 46.6203 400.382 46.2346C400.471 45.8392 400.551 45.3088 400.62 44.6432L402.478 44.872C402.448 45.0878 402.419 45.3176 402.39 45.5615C402.361 45.8053 402.336 46.0303 402.316 46.2365C402.295 46.4427 402.287 46.6111 402.291 46.7417C402.296 46.8629 402.332 46.9784 402.402 47.088C402.48 47.188 402.613 47.2673 402.802 47.326C403 47.3844 403.277 47.4074 403.631 47.3949C403.883 47.386 404.096 47.3458 404.271 47.2743C404.456 47.2024 404.592 47.0902 404.68 46.9377C404.777 46.7848 404.822 46.5871 404.813 46.3446C404.801 45.9995 404.706 45.5499 404.527 44.9958C404.349 44.4418 404.142 43.8607 403.906 43.2527L405.858 42.5955C406.021 42.9913 406.167 43.4158 406.295 43.8689C406.432 44.3124 406.54 44.7475 406.621 45.1742C406.71 45.5913 406.761 45.9585 406.772 46.2756C406.789 46.7513 406.729 47.1783 406.593 47.5567C406.456 47.9257 406.257 48.2409 405.996 48.5023C405.734 48.7637 405.419 48.9662 405.05 49.11C404.682 49.2537 404.274 49.3335 403.826 49.3492C403.285 49.3683 402.84 49.3326 402.492 49.2422C402.142 49.1424 401.87 48.9699 401.675 48.7246C401.488 48.4697 401.359 48.1193 401.288 47.6736L401.763 47.6568C401.587 48.2141 401.382 48.6229 401.148 48.8833C400.914 49.1343 400.63 49.2984 400.297 49.3755C399.973 49.4523 399.563 49.4994 399.069 49.5169C398.761 49.5277 398.443 49.5062 398.114 49.4525C397.794 49.389 397.504 49.2311 397.243 48.9788C396.982 48.7265 396.781 48.3274 396.64 47.7813L397.395 47.7267C397.219 48.2839 396.976 48.6987 396.668 48.9711C396.37 49.2431 396.021 49.4281 395.623 49.5262C395.225 49.615 394.778 49.6681 394.284 49.6855ZM407.914 52.3712L407.139 50.6614C407.628 50.4761 408.073 50.2643 408.476 50.0259C408.887 49.7873 409.243 49.5273 409.541 49.2459C409.839 48.9646 410.067 48.6624 410.223 48.3393C410.38 48.007 410.451 47.6542 410.438 47.2811C410.424 46.8894 410.321 46.4634 410.127 46.0033C409.933 45.5431 409.702 45.075 409.433 44.5988L411.235 43.6528C411.413 43.936 411.569 44.2434 411.702 44.5749C411.844 44.8968 411.961 45.1868 412.055 45.4451C412.148 45.7033 412.21 45.8785 412.241 45.9708C412.388 46.4139 412.575 46.7062 412.804 46.8475C413.043 46.9885 413.419 47.05 413.932 47.0319C414.286 47.0194 414.541 47.1038 414.697 47.2851C414.862 47.4568 414.949 47.6778 414.958 47.9483C414.969 48.2375 414.879 48.4835 414.69 48.6862C414.501 48.8797 414.224 48.9828 413.861 48.9957C413.478 49.0091 413.14 48.965 412.847 48.8633C412.554 48.7615 412.315 48.6065 412.131 48.3982C411.955 48.1896 411.839 47.9415 411.782 47.654L412.31 47.9296C412.272 48.4259 412.125 48.8981 411.87 49.346C411.624 49.8029 411.298 50.2253 410.892 50.6132C410.485 51.0011 410.026 51.3442 409.513 51.6424C409.001 51.9406 408.468 52.1835 407.914 52.3712ZM413.877 48.9951L413.948 47.0313C414.284 47.0195 414.572 46.9767 414.812 46.9028C415.053 46.829 415.253 46.6912 415.414 46.4894C415.575 46.2783 415.704 45.9749 415.802 45.5792C415.91 45.1831 415.999 44.657 416.069 44.0008L417.913 44.244C417.899 44.3846 417.877 44.5488 417.846 44.7367C417.824 44.9242 417.803 45.1164 417.782 45.3133C417.77 45.5005 417.767 45.678 417.773 45.8459C417.779 46.0138 417.817 46.1619 417.887 46.2902C417.957 46.4185 418.063 46.5268 418.206 46.6151C418.358 46.6938 418.552 46.7524 418.787 46.7908C419.031 46.8289 419.326 46.8419 419.671 46.8297C420.025 46.8172 420.28 46.9016 420.436 47.0829C420.592 47.2549 420.674 47.4761 420.684 47.7466C420.694 48.0358 420.604 48.2817 420.415 48.4845C420.235 48.6776 419.964 48.7806 419.6 48.7934C419.18 48.8082 418.797 48.789 418.449 48.7359C418.111 48.6824 417.813 48.5855 417.556 48.4452C417.308 48.2951 417.1 48.097 416.933 47.8507C416.775 47.5948 416.67 47.281 416.62 46.9092L417.291 46.8855C417.139 47.3392 416.937 47.7058 416.686 47.9855C416.443 48.2556 416.165 48.4615 415.853 48.6033C415.54 48.745 415.212 48.8406 414.868 48.8901C414.534 48.9486 414.204 48.9836 413.877 48.9951ZM418.151 42.6666C417.881 42.6762 417.644 42.5911 417.442 42.4115C417.248 42.2222 417.147 41.9969 417.138 41.7357C417.128 41.4652 417.213 41.2288 417.393 41.0263C417.582 40.8235 417.812 40.7174 418.082 40.7078C418.343 40.6986 418.571 40.7887 418.764 40.978C418.958 41.1673 419.059 41.3972 419.069 41.6677C419.078 41.9289 418.993 42.1607 418.813 42.3631C418.633 42.5563 418.412 42.6574 418.151 42.6666ZM415.73 42.7379C415.46 42.7475 415.223 42.6624 415.021 42.4828C414.827 42.2935 414.726 42.0682 414.717 41.807C414.707 41.5365 414.792 41.3001 414.972 41.0976C415.161 40.8948 415.391 40.7887 415.661 40.7791C415.922 40.7699 416.15 40.86 416.343 41.0493C416.537 41.2386 416.638 41.4685 416.648 41.739C416.657 42.0002 416.572 42.232 416.392 42.4344C416.212 42.6276 415.991 42.7287 415.73 42.7379ZM419.602 48.7933L419.673 46.8296C419.981 46.8188 420.232 46.7866 420.426 46.733C420.62 46.6702 420.775 46.548 420.89 46.3665C421.014 46.1753 421.116 45.8962 421.196 45.5292C421.286 45.1525 421.38 44.6448 421.479 44.0063L423.31 44.278C423.287 44.4189 423.26 44.5833 423.229 44.7711C423.198 44.959 423.172 45.1514 423.151 45.3482C423.13 45.5358 423.122 45.7041 423.127 45.8534C423.136 46.1146 423.228 46.3215 423.401 46.4741C423.574 46.6174 423.894 46.6809 424.36 46.6645C424.594 46.6562 424.793 46.6258 424.959 46.5733C425.135 46.5111 425.28 46.3892 425.395 46.2077C425.519 46.0166 425.621 45.7281 425.701 45.3424C425.789 44.9471 425.869 44.4166 425.939 43.7511L427.796 43.9798C427.766 44.1956 427.737 44.4255 427.708 44.6693C427.679 44.9131 427.655 45.1382 427.634 45.3444C427.613 45.5505 427.605 45.7189 427.61 45.8495C427.614 45.9708 427.651 46.0862 427.72 46.1959C427.798 46.2958 427.932 46.3752 428.121 46.4339C428.319 46.4923 428.595 46.5152 428.949 46.5027C429.201 46.4939 429.415 46.4537 429.59 46.3821C429.774 46.3103 429.91 46.1981 429.998 46.0455C430.095 45.8927 430.14 45.695 430.131 45.4525C430.119 45.1074 430.024 44.6578 429.846 44.1037C429.667 43.5496 429.46 42.9686 429.224 42.3605L431.176 41.7034C431.339 42.0992 431.485 42.5237 431.613 42.9768C431.75 43.4202 431.859 43.8553 431.939 44.2821C432.029 44.6992 432.079 45.0663 432.09 45.3835C432.107 45.8592 432.047 46.2862 431.911 46.6645C431.775 47.0336 431.576 47.3488 431.314 47.6102C431.052 47.8715 430.737 48.0741 430.369 48.2178C430 48.3616 429.592 48.4413 429.144 48.4571C428.603 48.4762 428.159 48.4405 427.81 48.35C427.461 48.2503 427.189 48.0777 426.993 47.8325C426.807 47.5775 426.678 47.2272 426.606 46.7814L427.082 46.7647C426.905 47.3219 426.7 47.7307 426.466 47.9911C426.232 48.2422 425.949 48.4063 425.615 48.4834C425.291 48.5602 424.882 48.6073 424.387 48.6247C424.08 48.6356 423.761 48.6141 423.433 48.5603C423.113 48.4969 422.822 48.339 422.561 48.0867C422.3 47.8344 422.099 47.4352 421.959 46.8892L422.713 46.8346C422.537 47.3918 422.295 47.8066 421.987 48.0789C421.688 48.3509 421.34 48.536 420.942 48.6341C420.543 48.7228 420.097 48.7759 419.602 48.7933ZM433.364 47.678L433.987 45.8769C434.338 46.014 434.673 46.1143 434.993 46.1777C435.312 46.2412 435.631 46.2673 435.948 46.2561C436.274 46.2446 436.544 46.2071 436.756 46.1436C436.978 46.0704 437.143 45.9712 437.25 45.846C437.358 45.7208 437.409 45.5743 437.403 45.4064C437.397 45.2478 437.338 45.0304 437.226 44.7542C437.123 44.4777 436.937 44.12 436.67 43.6811C436.402 43.2329 436.013 42.6816 435.505 42.0271L437.131 40.8631C437.601 41.4816 438.01 42.0883 438.358 42.6831C438.705 43.2685 438.977 43.8193 439.172 44.3354C439.377 44.8418 439.486 45.2909 439.5 45.6827C439.517 46.1677 439.401 46.5967 439.153 46.9697C438.914 47.333 438.546 47.6262 438.049 47.8491C437.562 48.0717 436.955 48.1959 436.227 48.2215C435.957 48.231 435.653 48.2184 435.315 48.1836C434.978 48.1488 434.635 48.0908 434.287 48.0097C433.948 47.9283 433.64 47.8177 433.364 47.678Z" fill="white"/>
<path d="M28.857 51.6178L28.0751 49.9113C28.5627 49.7239 29.0073 49.5102 29.4088 49.2702C29.8197 49.0298 30.1736 48.7683 30.4707 48.4857C30.7678 48.2031 30.994 47.8999 31.1494 47.5762C31.3043 47.2431 31.3745 46.8901 31.3597 46.5171C31.3443 46.1254 31.2388 45.6999 31.0431 45.2406C30.8475 44.7813 30.6143 44.3141 30.3433 43.8391L32.1411 42.8854C32.3204 43.1679 32.4773 43.4746 32.6118 43.8056C32.7552 44.1268 32.8741 44.4164 32.9683 44.6742C33.0625 44.932 33.1255 45.107 33.1572 45.1991C33.3054 45.6416 33.4944 45.9331 33.7241 46.0735C33.9631 46.2135 34.3391 46.2733 34.8521 46.2531C35.2064 46.2391 35.4619 46.3224 35.6185 46.5031C35.784 46.674 35.8722 46.8947 35.8828 47.1651C35.8942 47.4543 35.8059 47.7006 35.6178 47.9042C35.4293 48.0984 35.1532 48.2027 34.7895 48.2171C34.4071 48.2322 34.0692 48.1895 33.7756 48.089C33.4821 47.9885 33.2425 47.8345 33.0569 47.627C32.8805 47.4191 32.7633 47.1715 32.7053 46.8843L33.2345 47.1576C33.198 47.6541 33.0532 48.1268 32.8001 48.5759C32.5566 49.0338 32.2324 49.4576 31.8275 49.8472C31.4225 50.2368 30.9644 50.5818 30.4532 50.8822C29.942 51.1826 29.4099 51.4278 28.857 51.6178ZM31.3154 41.4889C31.0263 41.5003 30.7753 41.4121 30.5624 41.2244C30.3588 41.0363 30.2513 40.7977 30.2399 40.5086C30.2284 40.2195 30.3166 39.9684 30.5044 39.7555C30.7014 39.5423 30.9445 39.4299 31.2336 39.4185C31.5134 39.4075 31.7553 39.5007 31.9592 39.6981C32.1725 39.8952 32.2848 40.1383 32.2963 40.4274C32.3077 40.7165 32.2147 40.963 32.0172 41.167C31.8291 41.3705 31.5952 41.4779 31.3154 41.4889ZM34.8062 48.2164L34.8688 46.2524C35.2045 46.2392 35.4923 46.1951 35.7322 46.1203C35.9721 46.0454 36.1722 45.9068 36.3323 45.7043C36.4921 45.4925 36.6202 45.1885 36.7166 44.7924C36.8224 44.3959 36.909 43.8694 36.9765 43.2129L38.8212 43.4483C38.8081 43.589 38.7866 43.7533 38.7566 43.9413C38.736 44.1289 38.7156 44.3212 38.6953 44.5181C38.6841 44.7054 38.6817 44.883 38.6883 45.0508C38.695 45.2187 38.7335 45.3666 38.8039 45.4946C38.8744 45.6226 38.9814 45.7305 39.125 45.8182C39.2775 45.8963 39.4713 45.954 39.7062 45.9914C39.9506 46.0285 40.2453 46.0402 40.5903 46.0266C40.9447 46.0126 41.2002 46.0959 41.3568 46.2765C41.513 46.4478 41.5964 46.6687 41.6071 46.9392C41.6185 47.2283 41.5302 47.4746 41.3421 47.6782C41.1629 47.8721 40.8915 47.9762 40.5277 47.9906C40.1081 48.0071 39.7244 47.9896 39.3768 47.9379C39.0385 47.8859 38.7404 47.7902 38.4828 47.651C38.234 47.502 38.0254 47.3047 37.8569 47.0592C37.6974 46.804 37.5916 46.4906 37.5396 46.119L38.2111 46.0925C38.0609 46.5468 37.8605 46.9143 37.6101 47.195C37.3686 47.4661 37.0919 47.6732 36.7799 47.8163C36.468 47.9594 36.1403 48.0564 35.7967 48.1073C35.4628 48.1672 35.1326 48.2036 34.8062 48.2164ZM38.8373 51.3078C38.5668 51.3185 38.3298 51.2298 38.1262 51.0417C37.9323 50.8625 37.8302 50.6424 37.8199 50.3812C37.8093 50.1108 37.8933 49.874 38.0721 49.6707C38.2602 49.4672 38.4895 49.36 38.76 49.3494C39.0211 49.339 39.2488 49.4281 39.443 49.6166C39.6373 49.8051 39.7398 50.0346 39.7504 50.305C39.7607 50.5662 39.6763 50.7937 39.4972 50.9876C39.3184 51.1908 39.0984 51.2975 38.8373 51.3078ZM36.4172 51.4034C36.1467 51.414 35.9097 51.3253 35.7061 51.1372C35.5122 50.9581 35.4101 50.7379 35.3998 50.4768C35.3891 50.2063 35.4732 49.9695 35.652 49.7663C35.8401 49.5627 36.0694 49.4556 36.3399 49.4449C36.601 49.4346 36.8287 49.5237 37.0229 49.7122C37.2172 49.9006 37.3196 50.1301 37.3303 50.4006C37.3406 50.6617 37.2562 50.8892 37.077 51.0831C36.8983 51.2863 36.6783 51.3931 36.4172 51.4034ZM40.3163 39.7325L39.5856 38.6124C40.0319 38.3239 40.4922 38.0349 40.9665 37.7453C41.4404 37.4464 41.9695 37.1266 42.5539 36.7859C43.1472 36.4356 43.8414 36.0392 44.6366 35.5968L45.3287 36.8025C44.5145 37.2363 43.8105 37.6237 43.2169 37.9647C42.6325 38.3053 42.1079 38.6203 41.6429 38.9095C41.1869 39.189 40.7447 39.4634 40.3163 39.7325ZM40.5303 47.9905L40.5928 46.0265L42.5513 45.9492C42.8777 45.9363 43.1241 45.9079 43.2905 45.8639C43.4662 45.8196 43.5853 45.7589 43.6476 45.6817C43.7096 45.5952 43.7384 45.496 43.7339 45.3841C43.7273 45.2162 43.645 45.0233 43.4869 44.8054C43.3382 44.5871 43.1425 44.3613 42.8997 44.128C42.6663 43.8944 42.419 43.6613 42.1576 43.4287C41.8958 43.1869 41.6442 42.9633 41.4025 42.758C41.1702 42.5523 40.9764 42.3732 40.8209 42.2205C40.6744 42.0582 40.5996 41.9397 40.5967 41.8651C40.5864 41.6039 40.5923 41.3982 40.6144 41.2479C40.6361 41.0883 40.6684 40.9609 40.7114 40.8658C40.7636 40.7703 40.8211 40.6886 40.8838 40.6208C41.0361 40.456 41.2669 40.2694 41.5763 40.061C41.8853 39.8433 42.2498 39.6141 42.67 39.3734C43.0991 39.1229 43.5792 38.8611 44.1101 38.5879C44.6408 38.3055 45.2036 38.0124 45.7988 37.7086L46.6635 39.3838C46.0587 39.6786 45.5184 39.9521 45.0426 40.2044C44.5758 40.447 44.1551 40.6738 43.7805 40.8847C43.4148 41.086 43.0861 41.2764 42.7943 41.4561C42.5118 41.6354 42.2569 41.8042 42.0296 41.9626L42.1287 40.9219C42.5433 41.2511 42.9199 41.5632 43.2585 41.8581C43.597 42.153 43.9123 42.4487 44.2042 42.7455C44.4962 43.0422 44.7698 43.349 45.0252 43.6658C45.2899 43.9823 45.5463 44.3271 45.7946 44.7002C46.0126 45.0186 46.232 45.2528 46.4528 45.4028C46.6829 45.5525 46.9016 45.6513 47.109 45.6992C47.3253 45.7373 47.5174 45.7531 47.6853 45.7465C48.0397 45.7325 48.2952 45.8158 48.4518 45.9964C48.6173 46.1674 48.7054 46.3881 48.7161 46.6585C48.7275 46.9476 48.6391 47.194 48.451 47.3976C48.2625 47.5918 47.9864 47.6961 47.6227 47.7105C47.315 47.7226 46.9819 47.6844 46.6234 47.5958C46.2646 47.4979 45.9266 47.3338 45.6092 47.1034C45.2919 46.8731 45.0457 46.5512 44.8706 46.1378L45.6282 46.164C45.5001 46.4679 45.3423 46.731 45.1549 46.9532C44.9765 47.1658 44.7593 47.3425 44.5033 47.4833C44.247 47.6149 43.9521 47.7153 43.6185 47.7845C43.285 47.8537 42.9084 47.8966 42.4887 47.9132L40.5303 47.9905ZM47.6341 47.71L47.6967 45.746C48.107 45.7298 48.4277 45.6892 48.6586 45.624C48.8989 45.5585 49.0674 45.4491 49.1641 45.2958C49.2604 45.1332 49.3028 44.9074 49.2914 44.6182C49.2811 44.3571 49.2315 44.0462 49.1425 43.6854C49.0629 43.3243 48.9594 42.95 48.832 42.5628C48.7046 42.1755 48.5785 41.8209 48.4537 41.4989L50.3632 40.8911C50.4877 41.2037 50.6141 41.5677 50.7426 41.983C50.8711 42.3982 50.9815 42.8282 51.0737 43.2729C51.175 43.7079 51.2337 44.1306 51.2499 44.5409C51.2702 45.0539 51.222 45.4901 51.1054 45.8497C50.9885 46.1999 50.818 46.4962 50.5941 46.7385C50.3791 46.9712 50.1156 47.159 49.8037 47.3021C49.5007 47.4355 49.1636 47.5329 48.7924 47.5942C48.4212 47.6556 48.0351 47.6942 47.6341 47.71ZM49.3382 39.7686C49.0491 39.78 48.7981 39.6919 48.5851 39.5041C48.3816 39.316 48.2741 39.0774 48.2627 38.7883C48.2512 38.4992 48.3394 38.2482 48.5272 38.0353C48.7242 37.822 48.9673 37.7097 49.2564 37.6982C49.5362 37.6872 49.7781 37.7804 49.982 37.9778C50.1953 38.1749 50.3076 38.418 50.3191 38.7071C50.3305 38.9962 50.2375 39.2427 50.04 39.4467C49.8519 39.6503 49.6179 39.7576 49.3382 39.7686ZM53.1904 47.4206L52.4923 37.1922L54.4508 37.1149L55.1488 47.3433L53.1904 47.4206ZM64.8588 47.2542L65.1452 45.2814C65.8167 45.2549 66.4589 45.1968 67.0719 45.1073C67.6941 45.0173 68.2812 44.8634 68.833 44.6454C69.3942 44.4271 69.9143 44.117 70.3935 43.7151C70.8727 43.3133 71.3001 42.7827 71.6757 42.1233L73.2707 42.7749C73.2217 42.9543 73.1819 43.1287 73.1512 43.298C73.1202 43.4581 73.1067 43.5894 73.1107 43.6919C73.1192 43.9064 73.1779 44.0909 73.2867 44.2454C73.4049 44.3996 73.5962 44.5134 73.8606 44.5871C74.1251 44.6607 74.4858 44.6885 74.9428 44.6704C75.2971 44.6564 75.5526 44.7398 75.7092 44.9204C75.8654 45.0917 75.9489 45.3126 75.9595 45.583C75.971 45.8721 75.8826 46.1185 75.6945 46.3221C75.5153 46.516 75.2439 46.6201 74.8802 46.6344C74.2367 46.6598 73.6736 46.5933 73.191 46.4349C72.7177 46.2761 72.3396 46.0435 72.0566 45.7371C71.7826 45.421 71.614 45.054 71.5508 44.6362L72.1125 44.6701C71.7926 45.0844 71.3866 45.446 70.8944 45.755C70.4115 46.0636 69.8567 46.3237 69.2299 46.5352C68.6124 46.7464 67.9323 46.9087 67.1895 47.0221C66.4564 47.1445 65.6795 47.2218 64.8588 47.2542ZM64.8448 47.2548C63.8376 47.2945 62.9812 47.249 62.2754 47.118C61.5794 46.996 61.0067 46.8038 60.5574 46.5413C60.1169 46.2692 59.7913 45.9458 59.5803 45.5711C59.3694 45.1965 59.2549 44.7807 59.2368 44.3237C59.2251 44.0253 59.2366 43.7259 59.2714 43.4256C59.3153 43.1157 59.3688 42.8147 59.432 42.5226C59.5045 42.2302 59.5688 41.9661 59.6249 41.7304L61.3895 42.067C61.3588 42.2364 61.324 42.4199 61.2851 42.6176C61.2462 42.8153 61.2165 43.0079 61.1959 43.1956C61.1749 43.3739 61.1673 43.5376 61.1732 43.6868C61.1869 44.0319 61.3202 44.3349 61.5734 44.5958C61.8355 44.8469 62.254 45.0359 62.8287 45.1627C63.4032 45.2801 64.1706 45.3199 65.1312 45.2819L65.4707 46.7817L64.8448 47.2548ZM67.1944 40.759C66.924 40.7697 66.6871 40.6857 66.4839 40.5069C66.2897 40.3184 66.1874 40.0936 66.1771 39.8324C66.1664 39.562 66.2505 39.3252 66.4293 39.1219C66.6174 38.9184 66.8467 38.8112 67.1171 38.8006C67.3782 38.7903 67.6059 38.8793 67.8002 39.0678C67.9944 39.2563 68.0969 39.4858 68.1076 39.7562C68.1179 40.0174 68.0337 40.2495 67.8549 40.4527C67.6757 40.6466 67.4556 40.7487 67.1944 40.759ZM64.7738 40.8406C64.5033 40.8513 64.2665 40.7672 64.0633 40.5884C63.869 40.3999 63.7667 40.1751 63.7564 39.914C63.7457 39.6435 63.8298 39.4067 64.0086 39.2035C64.1967 38.9999 64.426 38.8928 64.6964 38.8821C64.9576 38.8718 65.1853 38.9609 65.3795 39.1494C65.5738 39.3379 65.6762 39.5673 65.6869 39.8378C65.6972 40.0989 65.613 40.3311 65.4342 40.5343C65.255 40.7282 65.0349 40.8303 64.7738 40.8406ZM74.8746 46.6347L74.9377 44.6846C75.3018 44.6796 75.6374 44.6617 75.9444 44.6309C76.2514 44.6001 76.5254 44.5613 76.7664 44.5144C77.0168 44.4671 77.2343 44.4165 77.419 44.3625C77.613 44.3082 77.7745 44.2597 77.9036 44.2173C78.2166 44.1022 78.4823 43.9703 78.7006 43.8215C78.9185 43.6635 79.0845 43.4888 79.1983 43.2975C79.3122 43.1062 79.3649 42.9033 79.3564 42.6888C79.3498 42.5209 79.3059 42.3545 79.2246 42.1896C79.1524 42.015 79.0487 41.8743 78.9138 41.7675C78.7788 41.6608 78.6227 41.6109 78.4455 41.6179C78.2776 41.6245 78.1258 41.6819 77.9899 41.79C77.8541 41.8981 77.7477 42.0424 77.6708 42.2229C77.5934 42.3941 77.5592 42.5916 77.568 42.8154C77.5758 43.0113 77.6298 43.196 77.73 43.3695C77.8299 43.5337 77.9669 43.6917 78.141 43.8436C78.3152 43.9955 78.5216 44.1369 78.7603 44.2675L76.9279 45.0544C76.715 44.8667 76.5108 44.6646 76.3155 44.4481C76.1294 44.2313 75.9703 43.9854 75.838 43.7104C75.7147 43.4257 75.646 43.1061 75.632 42.7518C75.6151 42.3228 75.6836 41.9277 75.8374 41.5667C75.9913 41.2057 76.2032 40.8938 76.473 40.6309C76.7425 40.3588 77.047 40.1459 77.3865 39.9924C77.7261 39.8389 78.0684 39.7553 78.4135 39.7417C78.973 39.7196 79.4631 39.831 79.8838 40.076C80.3044 40.3209 80.635 40.6488 80.8754 41.0596C81.1251 41.4701 81.2597 41.9225 81.2792 42.4167C81.2972 42.8737 81.2295 43.2874 81.076 43.6577C80.9221 44.0187 80.7061 44.3448 80.4281 44.636C80.159 44.9175 79.8559 45.1677 79.519 45.3865C79.1913 45.6049 78.8578 45.7909 78.5182 45.9444C78.3533 46.0256 78.1462 46.1039 77.897 46.1791C77.6478 46.2543 77.3657 46.3262 77.0508 46.3946C76.7356 46.4538 76.3967 46.5045 76.034 46.5469C75.6714 46.5892 75.2849 46.6185 74.8746 46.6347ZM82.2608 46.3431C81.7199 46.3644 81.1872 46.3574 80.6628 46.3221C80.1383 46.2868 79.65 46.222 79.198 46.1277C78.7552 46.0331 78.3675 45.913 78.0348 45.7673L78.9405 44.2184C79.2232 44.282 79.552 44.3297 79.9269 44.3616C80.3107 44.3838 80.7082 44.3961 81.1193 44.3986C81.5397 44.4007 81.9411 44.3942 82.3234 44.3791C82.6778 44.3651 82.9333 44.4484 83.0899 44.629C83.2554 44.8 83.3435 45.0207 83.3542 45.2911C83.3656 45.5802 83.2773 45.8266 83.0891 46.0302C82.9007 46.2244 82.6246 46.3287 82.2608 46.3431ZM78.3761 38.4402C78.087 38.4516 77.836 38.3634 77.6231 38.1757C77.4195 37.9875 77.312 37.7489 77.3006 37.4598C77.2892 37.1707 77.3773 36.9197 77.5651 36.7068C77.7622 36.4935 78.0052 36.3812 78.2944 36.3698C78.5741 36.3587 78.816 36.4519 79.0199 36.6494C79.2332 36.8464 79.3456 37.0895 79.357 37.3786C79.3684 37.6677 79.2754 37.9143 79.0779 38.1182C78.8898 38.3218 78.6559 38.4291 78.3761 38.4402ZM82.0651 38.0844L81.3343 36.9643C81.7806 36.6758 82.2409 36.3868 82.7152 36.0972C83.1891 35.7982 83.7182 35.4785 84.3026 35.1378C84.8959 34.7875 85.5901 34.3911 86.3853 33.9487L87.0774 35.1544C86.2632 35.5882 85.5593 35.9756 84.9656 36.3166C84.3812 36.6572 83.8566 36.9722 83.3916 37.2614C82.9357 37.5409 82.4935 37.8153 82.0651 38.0844ZM82.279 46.3424L82.3416 44.3784L84.3 44.301C84.6265 44.2882 84.8729 44.2597 85.0393 44.2158C85.215 44.1715 85.334 44.1108 85.3963 44.0336C85.4583 43.9471 85.4871 43.8479 85.4827 43.736C85.476 43.5681 85.3937 43.3752 85.2356 43.1572C85.0869 42.9389 84.8912 42.7132 84.6485 42.4799C84.4151 42.2462 84.1677 42.0131 83.9063 41.7806C83.6446 41.5387 83.3929 41.3152 83.1513 41.1099C82.919 40.9042 82.7251 40.725 82.5696 40.5724C82.4231 40.4101 82.3484 40.2916 82.3454 40.217C82.3351 39.9558 82.341 39.7501 82.3631 39.5998C82.3848 39.4401 82.4171 39.3128 82.4601 39.2177C82.5124 39.1222 82.5699 39.0405 82.6326 38.9727C82.7848 38.8079 83.0157 38.6213 83.325 38.4129C83.634 38.1952 83.9986 37.966 84.4187 37.7252C84.8479 37.4748 85.3279 37.213 85.8589 36.9398C86.3895 36.6573 86.9524 36.3642 87.5475 36.0605L88.4123 37.7357C87.8074 38.0305 87.2671 38.304 86.7914 38.5563C86.3246 38.7989 85.9039 39.0257 85.5292 39.2366C85.1635 39.4379 84.8348 39.6283 84.543 39.808C84.2605 39.9872 84.0056 40.1561 83.7784 40.3145L83.8774 39.2738C84.292 39.603 84.6687 39.9151 85.0072 40.21C85.3458 40.5048 85.661 40.8006 85.953 41.0973C86.2449 41.3941 86.5185 41.7008 86.7739 42.0177C87.0386 42.3342 87.2951 42.679 87.5433 43.0521C87.7614 43.3704 87.9808 43.6046 88.2015 43.7547C88.4316 43.9044 88.6503 44.0032 88.8577 44.0511C89.0741 44.0892 89.2662 44.105 89.434 44.0984C89.7884 44.0844 90.0439 44.1677 90.2005 44.3483C90.366 44.5193 90.4541 44.74 90.4648 45.0104C90.4762 45.2995 90.3879 45.5459 90.1998 45.7494C90.0113 45.9437 89.7352 46.048 89.3715 46.0624C89.0637 46.0745 88.7306 46.0363 88.3722 45.9477C88.0134 45.8498 87.6753 45.6856 87.358 45.4553C87.0406 45.225 86.7944 44.9031 86.6193 44.4897L87.3769 44.5158C87.2488 44.8198 87.0911 45.0829 86.9037 45.3051C86.7253 45.5177 86.5081 45.6944 86.2521 45.8352C85.9957 45.9668 85.7008 46.0672 85.3673 46.1364C85.0337 46.2056 84.6571 46.2485 84.2375 46.265L82.279 46.3424ZM89.3828 46.0619L89.4454 44.0979C89.7532 44.0858 90.0041 44.0525 90.1981 43.9981C90.3917 43.9345 90.5456 43.8116 90.6599 43.6296C90.7831 43.438 90.8841 43.1584 90.963 42.791C91.0509 42.4139 91.1429 41.9059 91.2391 41.267L93.071 41.5309C93.0485 41.6719 93.0223 41.8364 92.9924 42.0244C92.9624 42.2124 92.9373 42.4049 92.9171 42.6018C92.8965 42.7894 92.8891 42.9579 92.895 43.1071C92.9053 43.3682 92.9975 43.5747 93.1717 43.7266C93.3454 43.8692 93.6655 43.9313 94.1318 43.9129C94.3649 43.9037 94.5645 43.8725 94.7305 43.8192C94.9055 43.7563 95.0501 43.6338 95.1644 43.4518C95.2876 43.2601 95.3883 42.9713 95.4664 42.5852C95.5535 42.1895 95.6307 41.6587 95.6978 40.9929L97.556 41.2137C97.5271 41.4297 97.4988 41.6597 97.4711 41.9036C97.4434 42.1476 97.4196 42.3727 97.3997 42.579C97.3798 42.7852 97.3724 42.9537 97.3776 43.0842C97.3824 43.2055 97.4196 43.3208 97.4893 43.4301C97.568 43.5297 97.7019 43.6085 97.891 43.6664C98.0894 43.724 98.3658 43.7458 98.7202 43.7318C98.972 43.7218 99.1852 43.6807 99.3598 43.6084C99.5438 43.5358 99.6794 43.423 99.7668 43.2701C99.8635 43.1169 99.907 42.919 99.8975 42.6765C99.8839 42.3315 99.7867 41.8823 99.6061 41.329C99.4255 40.7757 99.2157 40.1955 98.9769 39.5884L100.926 38.923C101.091 39.3181 101.239 39.742 101.369 40.1945C101.508 40.6374 101.618 41.0721 101.7 41.4985C101.792 41.9152 101.843 42.2821 101.856 42.5992C101.875 43.0748 101.817 43.5021 101.682 43.881C101.548 44.2507 101.35 44.5667 101.089 44.8292C100.829 45.0917 100.515 45.2955 100.147 45.4408C99.7788 45.5861 99.3711 45.6676 98.9234 45.6853C98.3825 45.7066 97.9375 45.6728 97.5884 45.5839C97.2389 45.4856 96.9659 45.3142 96.7694 45.0698C96.5819 44.8156 96.4514 44.4658 96.3777 44.0204L96.8534 44.0016C96.6792 44.5596 96.4759 44.9693 96.2434 45.2306C96.0105 45.4827 95.7274 45.648 95.3943 45.7265C95.0704 45.8047 94.6614 45.8535 94.1671 45.873C93.8593 45.8852 93.541 45.8651 93.212 45.8127C92.8919 45.7506 92.6009 45.5939 92.3388 45.3428C92.0767 45.0916 91.8741 44.6932 91.7312 44.1478L92.4855 44.09C92.3113 44.648 92.0709 45.0638 91.7641 45.3374C91.4667 45.6107 91.1191 45.7972 90.7214 45.897C90.3233 45.9874 89.8771 46.0424 89.3828 46.0619ZM96.3573 37.1138C96.1241 37.123 95.9155 37.0425 95.7313 36.8723C95.5564 36.7018 95.4642 36.4952 95.4546 36.2528C95.4451 36.0103 95.5209 35.8018 95.6821 35.6273C95.8527 35.4524 96.0546 35.3604 96.2877 35.3512C96.5302 35.3416 96.7387 35.4175 96.9132 35.5787C97.0877 35.74 97.1797 35.9418 97.1893 36.1843C97.1988 36.4268 97.1232 36.6399 96.9623 36.8237C96.8014 37.0076 96.5998 37.1043 96.3573 37.1138ZM95.3111 39.0046C95.0779 39.0138 94.8692 38.9333 94.685 38.7631C94.5102 38.5925 94.418 38.386 94.4084 38.1435C94.3988 37.901 94.4747 37.6925 94.6359 37.518C94.8065 37.3432 95.0083 37.2512 95.2415 37.2419C95.484 37.2324 95.6924 37.3082 95.8669 37.4695C96.0414 37.6307 96.1335 37.8326 96.143 38.075C96.1526 38.3175 96.077 38.5307 95.9161 38.7145C95.7552 38.8983 95.5535 38.995 95.3111 39.0046ZM97.4794 38.919C97.2462 38.9282 97.0375 38.8477 96.8534 38.6775C96.6785 38.5069 96.5863 38.3004 96.5767 38.0579C96.5671 37.8154 96.643 37.6069 96.8042 37.4325C96.9748 37.2576 97.1766 37.1656 97.4098 37.1563C97.6523 37.1468 97.8608 37.2226 98.0352 37.3839C98.2097 37.5451 98.3018 37.747 98.3114 37.9894C98.3209 38.2319 98.2453 38.4451 98.0844 38.6289C97.9235 38.8127 97.7218 38.9094 97.4794 38.919ZM106.026 44.9425C106.018 44.728 106.026 44.4755 106.052 44.1849C106.078 43.8943 106.135 43.5651 106.223 43.1974C106.311 42.8203 106.449 42.3992 106.636 41.9341L108.38 42.4677C108.289 42.7609 108.211 43.0302 108.146 43.2756C108.081 43.5117 108.033 43.7331 108.004 43.9397C107.975 44.137 107.964 44.3336 107.971 44.5295C107.982 44.8093 108.053 45.068 108.184 45.3057C108.315 45.5434 108.505 45.746 108.755 45.9137C109.004 46.0906 109.309 46.2234 109.667 46.312C110.035 46.4002 110.456 46.4349 110.932 46.4161C111.473 46.3948 111.947 46.3247 112.353 46.2059C112.769 46.0961 113.114 45.9564 113.387 45.7868C113.67 45.6262 113.883 45.459 114.026 45.2852C114.169 45.1115 114.237 44.9546 114.232 44.8148C114.227 44.7028 114.144 44.608 113.982 44.5304C113.83 44.4523 113.626 44.3763 113.371 44.3023C113.124 44.2186 112.859 44.1263 112.575 44.0255C112.3 43.9242 112.034 43.7947 111.775 43.6367C111.526 43.4784 111.317 43.2812 111.149 43.045C110.991 42.8084 110.904 42.5175 110.891 42.1725C110.877 41.8181 110.955 41.4274 111.125 41.0003C111.294 40.564 111.544 40.1478 111.874 39.7518C112.204 39.3465 112.601 39.0132 113.067 38.752C113.542 38.481 114.069 38.3341 114.647 38.3113C115.058 38.2951 115.433 38.3456 115.774 38.463C116.124 38.5799 116.419 38.7177 116.659 38.8764L115.996 40.5418C115.795 40.419 115.582 40.3293 115.355 40.2729C115.128 40.2071 114.912 40.1783 114.707 40.1864C114.446 40.1967 114.196 40.2579 113.958 40.3701C113.729 40.4819 113.524 40.6254 113.344 40.8006C113.174 40.9662 113.04 41.1442 112.945 41.3348C112.85 41.5254 112.806 41.7046 112.812 41.8724C112.819 42.0403 112.904 42.1864 113.068 42.3107C113.24 42.4253 113.46 42.5334 113.725 42.635C113.99 42.7273 114.27 42.8237 114.563 42.9242C114.857 43.0247 115.137 43.1397 115.403 43.2693C115.67 43.3989 115.887 43.5585 116.053 43.7481C116.228 43.9373 116.322 44.1718 116.333 44.4516C116.349 44.8526 116.239 45.2726 116.004 45.7115C115.779 46.1594 115.431 46.5795 114.961 46.9717C114.491 47.3638 113.906 47.6858 113.206 47.9376C112.516 48.1984 111.709 48.347 110.786 48.3835C110.114 48.41 109.495 48.355 108.93 48.2185C108.364 48.0914 107.866 47.8823 107.434 47.5911C107.012 47.3088 106.675 46.9438 106.424 46.496C106.182 46.0572 106.05 45.5394 106.026 44.9425ZM121.604 44.7899C120.737 44.8241 120.062 44.7621 119.579 44.6036C119.106 44.4448 118.769 44.1826 118.568 43.8169C118.366 43.4419 118.24 42.9659 118.189 42.3888L117.588 34.6224L119.547 34.5451L120.11 41.3742C120.146 41.8024 120.205 42.1223 120.288 42.3339C120.372 42.5455 120.517 42.6845 120.725 42.751C120.943 42.8171 121.257 42.8421 121.667 42.8259C122.021 42.8119 122.277 42.8952 122.433 43.0759C122.599 43.2468 122.687 43.4675 122.698 43.738C122.709 44.0271 122.621 44.2734 122.433 44.477C122.244 44.6712 121.968 44.7755 121.604 44.7899ZM127.319 44.6064C126.899 44.6229 126.463 44.5888 126.012 44.5038C125.569 44.4186 125.139 44.2814 124.72 44.0924C124.302 43.9035 123.923 43.6616 123.585 43.3667C123.246 43.0718 122.971 42.7277 122.759 42.3344C122.557 41.9314 122.445 41.4735 122.425 40.9606C122.408 40.5409 122.482 40.1504 122.645 39.789C122.808 39.4276 123.058 39.1328 123.395 38.9047C123.74 38.6669 124.165 38.538 124.668 38.5182C125.144 38.4994 125.559 38.5998 125.913 38.8193C126.276 39.0291 126.563 39.312 126.773 39.668C126.983 40.0147 127.096 40.3839 127.111 40.7756C127.136 41.4004 127.004 41.9567 126.715 42.4445C126.425 42.9229 126.017 43.3314 125.488 43.6698C124.969 44.0079 124.377 44.2741 123.712 44.4685C123.047 44.6536 122.351 44.7604 121.623 44.7892L121.686 42.8252C122.218 42.8042 122.679 42.772 123.069 42.7285C123.469 42.6847 123.812 42.6105 124.097 42.5058C124.383 42.4011 124.629 42.2513 124.836 42.0563C125.043 41.8613 125.198 41.6497 125.301 41.4214C125.413 41.1835 125.465 40.9526 125.456 40.7288C125.45 40.5796 125.421 40.4406 125.37 40.3119C125.327 40.1828 125.258 40.0781 125.161 39.9979C125.073 39.9079 124.96 39.8657 124.82 39.8712C124.671 39.8771 124.547 39.9287 124.448 40.026C124.358 40.1137 124.288 40.2285 124.237 40.3706C124.196 40.5123 124.179 40.6625 124.185 40.821C124.198 41.1474 124.293 41.4379 124.471 41.6924C124.659 41.9465 124.901 42.1565 125.197 42.3223C125.493 42.4881 125.815 42.6108 126.164 42.6904C126.522 42.7697 126.883 42.8021 127.247 42.7878C127.536 42.7764 127.739 42.7216 127.857 42.6236C127.974 42.5255 128.03 42.3972 128.024 42.2387C128.019 42.1268 127.987 42.0113 127.926 41.8923C127.874 41.7636 127.761 41.6093 127.585 41.4294C127.41 41.2495 127.145 41.0311 126.789 40.7743C126.433 40.5081 125.958 40.1813 125.363 39.7937C124.769 39.4062 124.022 38.936 123.122 38.3831L124.139 36.8157C125.155 37.4762 126.004 38.0544 126.687 38.5505C127.379 39.0463 127.938 39.4819 128.364 39.8574C128.79 40.2329 129.116 40.5656 129.342 40.8556C129.577 41.1359 129.737 41.3958 129.821 41.6353C129.906 41.8749 129.952 42.1159 129.962 42.3583C129.98 42.806 129.887 43.1926 129.685 43.5181C129.484 43.8437 129.181 44.1032 128.777 44.2966C128.383 44.4803 127.897 44.5835 127.319 44.6064ZM135.798 36.6497C135.786 36.3419 135.755 36.0349 135.706 35.7286C135.666 35.422 135.617 35.1343 135.559 34.8657C135.502 34.5878 135.45 34.3469 135.405 34.1432L137.352 33.7861C137.397 33.9712 137.444 34.2169 137.493 34.5231C137.543 34.8294 137.588 35.1546 137.63 35.4985C137.671 35.8332 137.698 36.1543 137.71 36.4621C137.729 36.9471 137.705 37.4057 137.638 37.838C137.571 38.2703 137.461 38.681 137.309 39.07C137.156 39.4496 136.96 39.817 136.722 40.172L136.483 40.5177C136.252 40.8257 135.98 41.1307 135.665 41.4327C135.359 41.7343 135.02 42.0279 134.649 42.3134L135.558 42.2775C135.875 42.265 136.117 42.2368 136.283 42.1929C136.449 42.1489 136.559 42.0932 136.613 42.0257C136.675 41.9485 136.704 41.8633 136.701 41.7701C136.694 41.6022 136.54 41.3608 136.238 41.0458C135.935 40.7214 135.519 40.3549 134.989 39.9461C134.459 39.5281 133.839 39.0902 133.13 38.6325C132.43 38.1651 131.674 37.6999 130.861 37.2369L131.823 35.6997C132.951 36.3371 133.903 36.9253 134.681 37.4644C135.469 38.0031 136.114 38.496 136.617 38.9432C137.13 39.3899 137.529 39.7992 137.815 40.1709C138.1 40.5426 138.3 40.8803 138.415 41.184C138.529 41.4784 138.591 41.7468 138.601 41.9893C138.612 42.2597 138.58 42.5225 138.506 42.7776C138.432 43.0234 138.305 43.2479 138.126 43.4511C137.947 43.645 137.71 43.8038 137.416 43.9275C137.122 44.0512 136.756 44.1217 136.318 44.139L132.205 44.3014L132.131 42.4268C133.064 41.6988 133.799 41.0159 134.334 40.3783C134.879 39.7404 135.265 39.118 135.493 38.5112C135.721 37.9043 135.823 37.2839 135.798 36.6497ZM143.858 43.9114C142.991 43.9456 142.316 43.8835 141.834 43.7251C141.36 43.5663 141.023 43.3041 140.822 42.9384C140.62 42.5634 140.494 42.0873 140.443 41.5102L139.842 33.7439L141.801 33.6666L142.365 40.4956C142.4 40.9239 142.459 41.2438 142.543 41.4554C142.626 41.6669 142.771 41.806 142.979 41.8725C143.197 41.9386 143.511 41.9636 143.921 41.9474C144.275 41.9334 144.531 42.0167 144.688 42.1973C144.853 42.3683 144.941 42.589 144.952 42.8594C144.963 43.1485 144.875 43.3949 144.687 43.5985C144.498 43.7927 144.222 43.897 143.858 43.9114ZM143.877 43.9106L143.94 41.9466L145.941 41.8677C146.136 41.8599 146.309 41.8438 146.457 41.8192C146.605 41.7854 146.725 41.7386 146.816 41.679C146.916 41.619 146.988 41.5461 147.031 41.4603C147.075 41.3745 147.094 41.2757 147.09 41.1638C147.085 41.0519 147.018 40.8771 146.887 40.6394C146.765 40.392 146.506 40.0986 146.109 39.7594C145.897 39.5809 145.665 39.3939 145.415 39.1983C145.173 38.993 144.941 38.8013 144.72 38.6233C144.497 38.4359 144.313 38.2704 144.168 38.1267C144.022 37.983 143.948 37.8785 143.945 37.8132C143.94 37.6733 143.943 37.5191 143.955 37.3505C143.967 37.1819 143.989 37.0269 144.02 36.8855C144.062 36.7438 144.118 36.6388 144.19 36.5706C144.343 36.4151 144.569 36.2334 144.869 36.0254C145.178 35.8077 145.547 35.5736 145.976 35.3231C146.405 35.0634 146.885 34.7922 147.415 34.5098C147.955 34.2176 148.532 33.9239 149.146 33.6288L150.011 35.304C149.507 35.5481 149.03 35.7864 148.582 36.0189C148.133 36.2421 147.712 36.4642 147.319 36.6852C146.935 36.8966 146.579 37.1068 146.251 37.3159C145.932 37.5153 145.65 37.7132 145.406 37.9097L145.547 36.8673C146.364 37.4422 147.015 37.9629 147.5 38.4295C147.995 38.8956 148.366 39.3153 148.615 39.6885C148.863 40.0523 149.03 40.382 149.116 40.6775C149.202 40.9636 149.249 41.2186 149.258 41.4425C149.267 41.6663 149.221 41.911 149.119 42.1765C149.027 42.4324 148.845 42.6824 148.574 42.9266C148.313 43.1704 147.938 43.3767 147.45 43.5454C146.961 43.7142 146.33 43.8138 145.556 43.8444L143.877 43.9106ZM161.013 43.2342C160.351 43.2603 159.774 43.199 159.283 43.0503C158.8 42.8919 158.421 42.6266 158.145 42.2546C157.868 41.8732 157.698 41.3568 157.635 40.7054L157.161 35.0778L159.133 34.9999L159.566 39.9427C159.6 40.3243 159.672 40.6157 159.783 40.8168C159.903 41.0082 160.067 41.1372 160.275 41.2037C160.482 41.2609 160.75 41.283 161.076 41.2702C161.43 41.2562 161.686 41.3395 161.842 41.5201C161.999 41.6914 162.082 41.9123 162.093 42.1828C162.104 42.4719 162.016 42.7182 161.828 42.9218C161.649 43.1157 161.377 43.2198 161.013 43.2342ZM158.402 42.0342C157.783 42.1988 157.184 42.2878 156.605 42.3013C156.026 42.3055 155.505 42.2233 155.04 42.0549C154.576 41.877 154.201 41.6116 153.916 41.2586C153.64 40.9052 153.492 40.4487 153.47 39.8891C153.45 39.3948 153.54 38.943 153.738 38.5335C153.946 38.1143 154.24 37.7431 154.619 37.4199C155.008 37.0963 155.464 36.8167 155.987 36.5812C156.51 36.3458 157.082 36.1597 157.702 36.0231L157.977 38.0019C157.576 38.0364 157.215 38.1067 156.892 38.2128C156.578 38.3093 156.308 38.432 156.08 38.5811C155.862 38.7299 155.695 38.8952 155.581 39.0772C155.467 39.2499 155.413 39.4341 155.421 39.63C155.427 39.7885 155.488 39.9169 155.604 40.015C155.72 40.1132 155.873 40.1912 156.062 40.2492C156.251 40.2977 156.466 40.3219 156.709 40.3217C156.952 40.3214 157.199 40.2977 157.449 40.2504C157.709 40.2028 157.963 40.1321 158.211 40.0382L158.402 42.0342ZM161.009 43.2343L161.071 41.2703C161.482 41.2541 161.802 41.2135 162.033 41.1483C162.273 41.0828 162.442 40.9734 162.539 40.8201C162.635 40.6575 162.677 40.4317 162.666 40.1426C162.656 39.8814 162.606 39.5705 162.517 39.2097C162.437 38.8486 162.334 38.4744 162.207 38.0871C162.079 37.6998 161.953 37.3452 161.828 37.0232L163.738 36.4154C163.862 36.728 163.989 37.092 164.117 37.5073C164.246 37.9225 164.356 38.3525 164.448 38.7972C164.55 39.2322 164.608 39.6549 164.624 40.0652C164.645 40.5782 164.597 41.0144 164.48 41.374C164.363 41.7242 164.193 42.0205 163.969 42.2628C163.754 42.4955 163.49 42.6834 163.178 42.8264C162.875 42.9598 162.538 43.0572 162.167 43.1186C161.796 43.1799 161.41 43.2185 161.009 43.2343ZM162.856 46.3839C162.586 46.3946 162.349 46.3105 162.146 46.1317C161.952 45.9526 161.85 45.7278 161.839 45.4573C161.828 45.1869 161.912 44.9454 162.091 44.7328C162.279 44.5292 162.508 44.4221 162.778 44.4114C163.049 44.4008 163.281 44.4897 163.476 44.6782C163.68 44.8756 163.787 45.1095 163.797 45.38C163.808 45.6505 163.719 45.8828 163.531 46.0771C163.352 46.2709 163.127 46.3732 162.856 46.3839Z" fill="white"/>
<defs>
<filter id="filter0_d_10264_557388" x="205.001" y="25" width="254.295" height="49.0725" filterUnits="userSpaceOnUse" color-interpolation-filters="sRGB">
<feFlood flood-opacity="0" result="BackgroundImageFix"/>
<feColorMatrix in="SourceAlpha" type="matrix" values="0 0 0 0 0 0 0 0 0 0 0 0 0 0 0 0 0 0 127 0" result="hardAlpha"/>
<feOffset/>
<feGaussianBlur stdDeviation="2"/>
<feComposite in2="hardAlpha" operator="out"/>
<feColorMatrix type="matrix" values="0 0 0 0 0 0 0 0 0 0 0 0 0 0 0 0 0 0 0.25 0"/>
<feBlend mode="normal" in2="BackgroundImageFix" result="effect1_dropShadow_10264_557388"/>
<feBlend mode="normal" in="SourceGraphic" in2="effect1_dropShadow_10264_557388" result="shape"/>
</filter>
</defs>
</svg>