<svg xmlns:xlink="http://www.w3.org/1999/xlink" xmlns="http://www.w3.org/2000/svg" style="width: 20px; height: 20px; fill: var(--color-plus-500);" width="24"  height="24" ><defs><symbol id="plus" xmlns="http://www.w3.org/2000/svg" viewBox="0 0 24 24"><path fill-rule="evenodd" d="M20.362 13.877a.738.738 0 00.638-.732v-2.29l-.008-.11a.738.738 0 00-.63-.622l-.1-.007-.16.005-.066-.001-.276.014a5.745 5.745 0 01-4.215-1.68 5.748 5.748 0 01-1.665-4.492L13.88 3.9l.01-.002v-.159l-.008-.11a.739.739 0 00-.63-.621L13.15 3h-2.302l-.1.007a.738.738 0 00-.638.731v.159l.01.002-.001.063a5.748 5.748 0 01-1.665 4.492 5.746 5.746 0 01-4.491 1.666h-.067l-.16-.004-.1.007a.738.738 0 00-.637.732v2.29l.008.11a.738.738 0 00.63.622l.1.007.16-.005.066.001.276-.014a5.745 5.745 0 014.215 1.68 5.748 5.748 0 011.665 4.492l.001.063-.01.002v.159l.008.11a.739.739 0 00.63.621l.1.007h2.302l.1-.007a.738.738 0 00.638-.731v-.159l-.01-.002.001-.063a5.748 5.748 0 011.665-4.492 5.746 5.746 0 014.491-1.666h.067l.16.004.1-.007zM12.06 17.88l-.056.266-.003-.007-.003.014-.056-.273-.081-.322a7.734 7.734 0 00-5.715-5.495L5.835 12l.31-.063a7.737 7.737 0 005.796-5.816l.054-.264.005.004.003-.014.056.273.081.322a7.733 7.733 0 005.715 5.495l.31.063-.31.063a7.737 7.737 0 00-5.796 5.816z" clip-rule="evenodd"></path></symbol></defs><use xlink:href="#plus" fill="#B12BA4"></use></svg>