<svg xmlns:xlink="http://www.w3.org/1999/xlink" xmlns="http://www.w3.org/2000/svg" style="width: 24px; height: 24px; fill: var(--color-icon-high-emphasis);" width="24"  height="24" ><defs><symbol id="cartOff" xmlns="http://www.w3.org/2000/svg" viewBox="0 0 24 24"><path fill-rule="evenodd" d="M20 4h2V2h-3a1 1 0 00-1 1v1H3a1 1 0 00-.995 1.1l1 10A1 1 0 004 16h15a1 1 0 001-1V4zm-2 17a2 2 0 110-4 2 2 0 010 4zM5 21a2 2 0 110-4 2 2 0 010 4zm13-7V6H4.105l.8 8H18z" clip-rule="evenodd"></path></symbol></defs><use xlink:href="#cartOff" fill="#424750"></use></svg>